<svg id="Layer_4" data-name="Layer 4" xmlns="http://www.w3.org/2000/svg" viewBox="0 0 124.96 143.77"><defs><style>.cls-1{fill:#fff;}.cls-2{fill:none;stroke:#fff;stroke-miterlimit:10;stroke-width:2px;}</style></defs><title>logo-sci-fi-hack</title><g id="svg3686"><rect id="rect4518" class="cls-1" x="12.73" y="29.57" width="2.83" height="26.28"/><circle class="cls-2" cx="14.14" cy="58.3" r="2.59"/><rect id="rect4518-2" data-name="rect4518" class="cls-1" x="61.38" y="7.19" width="2.83" height="21.73"/><circle class="cls-2" cx="62.81" cy="31.32" r="2.59"/><rect id="rect4518-3" data-name="rect4518" class="cls-1" x="22.17" y="27.92" width="2.83" height="28.94"/><polygon id="rect4518-4" data-name="rect4518" class="cls-1" points="28.98 25.85 30.39 23.39 35.44 26.3 35.44 29.57 28.98 25.85"/><rect id="rect4518-5" data-name="rect4518" class="cls-1" x="32.61" y="27.32" width="2.83" height="16.39"/><circle class="cls-2" cx="34.03" cy="46.18" r="2.59"/><rect id="rect4518-6" data-name="rect4518" class="cls-1" x="104.22" y="65.27" width="15.84" height="2.83"/><circle class="cls-2" cx="101.63" cy="66.68" r="2.59"/><rect id="rect4518-7" data-name="rect4518" class="cls-1" x="97.72" y="73.81" width="25.75" height="2.83"/><circle class="cls-2" cx="95.17" cy="75.23" r="2.59"/><rect id="rect4518-8" data-name="rect4518" class="cls-1" x="92.91" y="82.93" width="27.15" height="2.83"/><circle class="cls-2" cx="90.63" cy="84.34" r="2.59"/><rect id="rect4518-9" data-name="rect4518" class="cls-1" x="89.16" y="108.15" width="24.64" height="2.83"/><rect id="rect4518-10" data-name="rect4518" class="cls-1" x="73.68" y="111.8" width="2.83" height="20.85"/><circle class="cls-2" cx="75.1" cy="109.58" r="2.59"/><rect id="rect4518-11" data-name="rect4518" class="cls-1" x="42.35" y="126.54" width="21.86" height="2.83"/><rect id="rect4518-12" data-name="rect4518" class="cls-1" x="61.49" y="109.21" width="2.71" height="20.14"/><circle class="cls-2" cx="62.84" cy="106.62" r="2.59"/><rect id="rect4518-13" data-name="rect4518" class="cls-1" x="27.08" y="117.17" width="23.29" height="2.83"/><rect id="rect4518-14" data-name="rect4518" class="cls-1" x="20.25" y="107.04" width="2.83" height="9.92"/><rect id="rect4518-15" data-name="rect4518" class="cls-1" x="20.25" y="107.04" width="24.58" height="2.83"/><rect id="rect4518-16" data-name="rect4518" class="cls-1" x="3.11" y="96.99" width="30.26" height="2.83"/><circle class="cls-2" cx="35.92" cy="98.4" r="2.59" transform="translate(-44.26 30.99) rotate(-29.89)"/><rect id="rect4518-17" data-name="rect4518" class="cls-1" x="3.11" y="87.67" width="19.47" height="2.83"/><circle class="cls-2" cx="25.08" cy="89.09" r="2.59" transform="translate(-41.06 24.35) rotate(-29.89)"/><circle class="cls-2" cx="53.13" cy="118.59" r="2.59" transform="translate(-52.03 42.25) rotate(-29.89)"/><rect id="rect4518-18" data-name="rect4518" class="cls-1" x="4.75" y="78.36" width="27.23" height="2.83"/><circle class="cls-2" cx="33.92" cy="79.78" r="2.59" transform="translate(-35.24 27.52) rotate(-29.89)"/><rect id="rect4518-19" data-name="rect4518" class="cls-1" x="3.13" y="68.99" width="20.46" height="2.83"/><circle class="cls-2" cx="25.36" cy="70.41" r="2.59" transform="translate(-31.71 22) rotate(-29.89)"/><rect id="rect4518-20" data-name="rect4518" class="cls-1" x="89.17" y="98.11" width="2.83" height="12.87"/><rect id="rect4518-21" data-name="rect4518" class="cls-1" x="70.49" y="9.73" width="2.83" height="23.38"/><circle class="cls-2" cx="71.93" cy="35.38" r="2.59"/><rect id="rect4518-22" data-name="rect4518" class="cls-1" x="52.17" y="9.73" width="2.83" height="23.06"/><circle class="cls-2" cx="53.6" cy="35.38" r="2.59"/><rect id="rect4518-23" data-name="rect4518" class="cls-1" x="42.57" y="14.03" width="2.83" height="21.76"/><circle class="cls-2" cx="44" cy="38.38" r="2.59"/><rect id="rect4518-24" data-name="rect4518" class="cls-1" x="79.57" y="14.03" width="2.83" height="22.22"/><circle class="cls-2" cx="81" cy="38.38" r="2.59"/><rect id="rect4518-25" data-name="rect4518" class="cls-1" x="98.64" y="25.67" width="2.83" height="17.09"/><rect id="rect4518-26" data-name="rect4518" class="cls-1" x="92.86" y="41.35" width="8.62" height="2.83"/><circle class="cls-2" cx="90.76" cy="42.76" r="2.59" transform="translate(-9.24 50.91) rotate(-29.89)"/><rect id="rect4518-27" data-name="rect4518" class="cls-1" x="106.12" y="47.33" width="2.83" height="7.95"/><rect id="rect4518-28" data-name="rect4518" class="cls-1" x="93.83" y="53.86" width="15.13" height="2.83"/><circle class="cls-2" cx="91.23" cy="55.28" r="2.59" transform="translate(-15.41 52.81) rotate(-29.89)"/><rect id="rect4518-29" data-name="rect4518" class="cls-1" x="106.12" y="47.33" width="15.92" height="2.83"/><rect id="rect4518-30" data-name="rect4518" class="cls-1" x="86.4" y="96.99" width="5.61" height="2.83"/><circle class="cls-2" cx="84.03" cy="98.4" r="2.59" transform="translate(-37.86 54.96) rotate(-29.89)"/><rect id="rect4518-31" data-name="rect4518" class="cls-1" x="106.75" y="94.39" width="12.79" height="2.83"/><circle class="cls-2" cx="104.42" cy="95.81" r="2.59" transform="translate(-33.86 64.78) rotate(-29.89)"/><circle class="cls-2" cx="47.03" cy="108.4" r="2.59"/><rect id="rect4518-32" data-name="rect4518" class="cls-1" x="22.17" y="56.68" width="11.75" height="2.83"/><circle class="cls-2" cx="36.23" cy="58.1" r="2.59"/></g><g id="Layer_3" data-name="Layer 3"><path id="path4497" class="cls-1" d="M124.64,108.22,125,36.33,62.8,0,.32,35.55,0,107.43l62.16,36.33Zm-6.22-3.63-56.23,32L6.25,103.88l.29-64.7,56.23-32,55.94,32.7Z"/></g><rect class="cls-1" x="60.79" y="55.68" width="4.08" height="14.32"/><path class="cls-1" d="M75.39,78.5A1.64,1.64,0,1,1,77,76.86,1.64,1.64,0,0,1,75.39,78.5Zm-4.61,0a1.64,1.64,0,1,1,1.64-1.64A1.64,1.64,0,0,1,70.78,78.5ZM55,78.5a1.64,1.64,0,1,1,1.63-1.64A1.64,1.64,0,0,1,55,78.5Zm-4.61,0A1.64,1.64,0,1,1,52,76.86,1.64,1.64,0,0,1,50.39,78.5Zm31-16.17h-.41l-.43-2.72h-3l-.43,2.72h-.41v3.25A18.48,18.48,0,0,0,75,63.78l-7.9-16.89-1.84-.34v2.11l-.48.48v5.11l1.46,1.47V59.4h0V71.56h-7V59.4h0V55.7l1.47-1.47V49.13l-.48-.48V46.54l-1.84.34-7.9,16.89a18.26,18.26,0,0,0-5.38,8.66l2.31,1.47-2.91,1.86c0,.52-.07,1.05-.07,1.59,0,.19,0,.37,0,.56l3,1.89L44.9,81.4a18.23,18.23,0,0,0,3.91,7.77L59.19,78.8a4,4,0,0,1-.49-1.89,4,4,0,1,1,7.59,1.83L76.68,89.13a18.23,18.23,0,0,0,3.87-7.71L78,79.8l3-1.91c0-.18,0-.36,0-.54,0-.53,0-1.05-.07-1.57L78,73.9l2.33-1.49a18.16,18.16,0,0,0-1.48-3.67L81.34,67Z"/><path class="cls-1" d="M67.87,90.37a1.45,1.45,0,1,1,1.45-1.45A1.45,1.45,0,0,1,67.87,90.37ZM64.7,83.59A1.45,1.45,0,1,1,66.15,85,1.45,1.45,0,0,1,64.7,83.59Zm-2,3a1.45,1.45,0,1,1,1.45-1.45A1.45,1.45,0,0,1,62.73,86.58Zm0,4.92a1.45,1.45,0,1,1,1.45-1.45A1.45,1.45,0,0,1,62.73,91.5ZM59.3,85a1.45,1.45,0,1,1,1.45-1.45A1.45,1.45,0,0,1,59.3,85Zm-1.72,5.33A1.45,1.45,0,1,1,59,88.92,1.45,1.45,0,0,1,57.58,90.37ZM65.79,79.5a4,4,0,0,1-6.08,0L49.4,89.84a18.23,18.23,0,0,0,26.69,0Z"/><circle class="cls-1" cx="62.73" cy="76.91" r="2.01"/><rect class="cls-1" x="48.44" y="73.4" width="9.14" height="6.1"/><rect class="cls-1" x="67.87" y="74.08" width="9.16" height="5.27"/><rect class="cls-1" x="55.6" y="86.87" width="13.92" height="5.01"/><rect class="cls-1" x="57.58" y="81.95" width="10.02" height="5.53"/></svg>