<?xml version="1.0" encoding="utf-8"?>
<!-- Generator: Adobe Illustrator 20.1.0, SVG Export Plug-In . SVG Version: 6.00 Build 0)  -->
<svg version="1.1" id="Layer_1" xmlns="http://www.w3.org/2000/svg" xmlns:xlink="http://www.w3.org/1999/xlink" x="0px" y="0px"
	 viewBox="0 0 125 144" style="enable-background:new 0 0 125 144;" xml:space="preserve">
<style type="text/css">
	.st0{fill:#F6A623;}
	.st1{fill:none;stroke:#FFFFFF;stroke-width:3;}
	.st2{fill:#FFFFFF;}
</style>
<title>Group 2</title>
<desc>Created with Sketch.</desc>
<g id="Page-1_1_">
	<g id="Group-2">
		<g id="sex-tech-white-sticker">
			<polygon id="Path-2" class="st0" points="4.5,37.7 62.8,4.4 122.2,38.6 121.9,106.9 62.3,140.6 2.5,105.5 			"/>
			<path id="Path-3" class="st1" d="M120.5,73.5c-30,1.4-28.4,20.6-56.9,28.2c-2.4,0.6-20.3,7.3-20.7-3C42.9,97,43.5,94.9,45,94
				c13.3-7.8,13.7,9.2,11.9,16.7c-1.4,6.1-15.8,5.6-18.8,2C27,99.7,23.5,87.3,22,70.7"/>
			<path id="Page-1" class="st2" d="M18.2,84.4c1.9,1.4,5.7-0.8,8.2-4.7L60.7,27c0.3-0.5-0.4-1-0.8-0.6L20.2,75.1
				C17.2,78.7,16.3,83,18.2,84.4L18.2,84.4z M25.8,74c0.7,0.5,0.1,2.7-1.4,4.7s-3.3,3.3-4.1,2.8c-0.7-0.5-0.1-2.7,1.4-4.7
				S25,73.5,25.8,74L25.8,74z"/>
			<g id="Group-57">
				<g id="Group">
					<path id="Fill-55" class="st2" d="M118.4,104.8l-56.2,32L6.2,104.1l0.3-64.7l56.2-32l55.9,32.7L118.4,104.8L118.4,104.8z
						 M124.6,108.4l0.3-71.9L62.8,0.2L0.3,35.8L0,107.7L62.2,144L124.6,108.4L124.6,108.4z"/>
				</g>
			</g>
		</g>
		<g id="np_button_930428_000000" transform="translate(55.000000, 39.000000)">
			<path id="Shape" class="st2" d="M20,0C9,0,0,8.9,0,20s9,20,20,20s20-9,20-20C40,8.9,31,0,20,0L20,0z M20,4.1
				c8.8,0,16,7.1,16,15.9c0,8.8-7.2,16-16,16S4,28.8,4,20C4,11.2,11.2,4.1,20,4.1L20,4.1z M20,5.3C11.9,5.3,5.3,11.9,5.3,20
				c0,8.1,6.6,14.7,14.7,14.7S34.7,28.1,34.7,20C34.7,11.9,28.1,5.3,20,5.3L20,5.3z M20,11.1c1.6,0,3,1.3,3,3s-1.3,3-3,3
				c-1.6,0-3-1.3-3-3C17,12.4,18.4,11.1,20,11.1L20,11.1z M14.1,17c1.6,0,3,1.3,3,3c0,1.6-1.3,3-3,3c-1.6,0-3-1.3-3-3
				C11.1,18.4,12.4,17,14.1,17L14.1,17z M25.9,17c1.6,0,3,1.3,3,3c0,1.6-1.3,3-3,3s-3-1.3-3-3C23,18.4,24.3,17,25.9,17L25.9,17z
				 M20,23c1.6,0,3,1.3,3,3c0,1.6-1.3,3-3,3s-3-1.3-3-3S18.4,23,20,23L20,23z"/>
		</g>
	</g>
</g>
</svg>
