<?xml version="1.0" encoding="utf-8"?>
<!-- Generator: Adobe Illustrator 20.1.0, SVG Export Plug-In . SVG Version: 6.00 Build 0)  -->
<svg version="1.1" xmlns="http://www.w3.org/2000/svg" xmlns:xlink="http://www.w3.org/1999/xlink" x="0px" y="0px"
	 viewBox="0 0 125 143.8" style="enable-background:new 0 0 125 143.8;" xml:space="preserve">
<style type="text/css">
	.st0{fill:#663366;}
	.st1{fill:#FFFFFF;}
	.st2{fill:none;stroke:#FFFFFF;stroke-width:2;stroke-miterlimit:10;}
</style>
<g id="Layer_4">
	<g id="Layer_8">
		<polygon class="st0" points="3.1,36.4 3.1,106 62.5,140.4 121.1,106 121.1,38 62.5,3.8 		"/>
	</g>

		<g id="svg3686" inkscape:version="0.92.0 r15299" sodipodi:docname="GGG2017Sticker2.svg" xmlns:cc="http://creativecommons.org/ns#" xmlns:dc="http://purl.org/dc/elements/1.1/" xmlns:inkscape="http://www.inkscape.org/namespaces/inkscape" xmlns:rdf="http://www.w3.org/1999/02/22-rdf-syntax-ns#" xmlns:sodipodi="http://sodipodi.sourceforge.net/DTD/sodipodi-0.dtd" xmlns:svg="http://www.w3.org/2000/svg">

			<sodipodi:namedview  bordercolor="#666666" borderopacity="1.0" id="base" inkscape:current-layer="layer1" inkscape:cx="352.02428" inkscape:cy="558.87474" inkscape:document-units="mm" inkscape:pageopacity="0.0" inkscape:pageshadow="2" inkscape:snap-text-baseline="false" inkscape:window-height="1027" inkscape:window-maximized="1" inkscape:window-width="1920" inkscape:window-x="-8" inkscape:window-y="-8" inkscape:zoom="4" pagecolor="#ffffff" showgrid="false">
			</sodipodi:namedview>
		<rect id="rect4518_32_" x="12.7" y="29.6" class="st1" width="2.8" height="27.1"/>
		<path class="st1" d="M14.1,61.9c-2,0-3.6-1.6-3.6-3.6s1.6-3.6,3.6-3.6c2,0,3.6,1.6,3.6,3.6S16.1,61.9,14.1,61.9z M14.1,56.7
			c-0.9,0-1.6,0.7-1.6,1.6s0.7,1.6,1.6,1.6s1.6-0.7,1.6-1.6S15,56.7,14.1,56.7z"/>
		<rect id="rect4518_4_" x="61.4" y="7.2" class="st1" width="2.8" height="50.2"/>
		<rect id="rect4518_7_" x="20.8" y="27.9" class="st1" width="2.8" height="13.5"/>
		<path class="st1" d="M32.7,46.4c-2,0-3.6-1.6-3.6-3.6s1.6-3.6,3.6-3.6c2,0,3.6,1.6,3.6,3.6S34.7,46.4,32.7,46.4z M32.7,41.2
			c-0.9,0-1.6,0.7-1.6,1.6s0.7,1.6,1.6,1.6s1.6-0.7,1.6-1.6S33.6,41.2,32.7,41.2z"/>
		<rect id="rect4518_14_" x="111.9" y="82.9" class="st1" width="8.1" height="2.8"/>
		<path class="st1" d="M110.3,87.9c-2,0-3.6-1.6-3.6-3.6s1.6-3.6,3.6-3.6c2,0,3.6,1.6,3.6,3.6S112.3,87.9,110.3,87.9z M110.3,82.8
			c-0.9,0-1.6,0.7-1.6,1.6s0.7,1.6,1.6,1.6s1.6-0.7,1.6-1.6S111.2,82.8,110.3,82.8z"/>
		<rect id="rect4518_8_" x="89.2" y="108.2" class="st1" width="24.6" height="2.8"/>
		<rect id="rect4518_16_" x="73.7" y="111" class="st1" width="2.8" height="21.7"/>
		<path class="st1" d="M75.1,113.2c-2,0-3.6-1.6-3.6-3.6c0-2,1.6-3.6,3.6-3.6c2,0,3.6,1.6,3.6,3.6C78.7,111.6,77.1,113.2,75.1,113.2
			z M75.1,108c-0.9,0-1.6,0.7-1.6,1.6s0.7,1.6,1.6,1.6s1.6-0.7,1.6-1.6S76,108,75.1,108z"/>
		<rect id="rect4518_20_" x="42.3" y="126.5" class="st1" width="21.9" height="2.8"/>
		<rect id="rect4518_19_" x="61.5" y="93.2" class="st1" width="2.7" height="36.1"/>
		<path class="st1" d="M62.8,94.2c-2,0-3.6-1.6-3.6-3.6c0-2,1.6-3.6,3.6-3.6c2,0,3.6,1.6,3.6,3.6C66.4,92.6,64.8,94.2,62.8,94.2z
			 M62.8,89c-0.9,0-1.6,0.7-1.6,1.6s0.7,1.6,1.6,1.6s1.6-0.7,1.6-1.6S63.7,89,62.8,89z"/>
		<rect id="rect4518_55_" x="23.6" y="116.2" class="st1" width="16.5" height="2.8"/>
		<rect id="rect4518_54_" x="15.3" y="98.1" class="st1" width="2.8" height="16.4"/>
		<rect id="rect4518_21_" x="15.3" y="98.1" class="st1" width="19.1" height="2.8"/>
		<rect id="rect4518_58_" x="2.8" y="82.9" class="st1" width="14.6" height="2.8"/>
		<path class="st1" d="M20,87.9c-0.3,0-0.6,0-0.9-0.1c-0.9-0.2-1.7-0.8-2.2-1.7c-0.5-0.8-0.6-1.8-0.4-2.7c0.3-0.9,0.8-1.7,1.7-2.2
			c1.7-1,3.9-0.4,4.9,1.3c1,1.7,0.4,3.9-1.3,4.9C21.3,87.8,20.6,87.9,20,87.9z M20,82.8c-0.3,0-0.5,0.1-0.8,0.2
			c-0.4,0.2-0.6,0.6-0.7,1c-0.1,0.4-0.1,0.8,0.2,1.2c0.2,0.4,0.6,0.6,1,0.7c0.4,0.1,0.8,0.1,1.2-0.2c0.8-0.4,1-1.4,0.6-2.2
			C21.1,83,20.6,82.8,20,82.8z"/>
		<path class="st1" d="M48.9,113.6c-0.3,0-0.6,0-0.9-0.1c-0.9-0.2-1.7-0.8-2.2-1.7c-0.5-0.8-0.6-1.8-0.4-2.7s0.8-1.7,1.7-2.2
			c1.7-1,3.9-0.4,4.9,1.3c1,1.7,0.4,3.9-1.3,4.9C50.1,113.5,49.5,113.6,48.9,113.6z M48.9,108.4c-0.3,0-0.5,0.1-0.8,0.2l0,0
			c-0.4,0.2-0.6,0.6-0.7,1c-0.1,0.4-0.1,0.8,0.2,1.2c0.2,0.4,0.6,0.6,1,0.7c0.4,0.1,0.8,0.1,1.2-0.2c0.8-0.4,1-1.4,0.6-2.2
			C49.9,108.7,49.4,108.4,48.9,108.4z"/>
		<rect id="rect4518_61_" x="3.1" y="69" class="st1" width="14.5" height="2.8"/>
		<path class="st1" d="M20.2,74c-1.2,0-2.5-0.6-3.1-1.8c-1-1.7-0.4-3.9,1.3-4.9c0.8-0.5,1.8-0.6,2.7-0.4c0.9,0.2,1.7,0.8,2.2,1.7
			c0.5,0.8,0.6,1.8,0.4,2.7c-0.2,0.9-0.8,1.7-1.7,2.2C21.4,73.8,20.8,74,20.2,74z M20.2,68.8c-0.3,0-0.5,0.1-0.8,0.2
			c-0.8,0.4-1,1.4-0.6,2.2c0.4,0.8,1.4,1,2.2,0.6c0.4-0.2,0.6-0.6,0.7-1c0.1-0.4,0.1-0.8-0.2-1.2c-0.2-0.4-0.6-0.6-1-0.7
			C20.4,68.8,20.3,68.8,20.2,68.8z"/>
		<rect id="rect4518_6_" x="89.2" y="98.1" class="st1" width="2.8" height="12.9"/>
		<rect id="rect4518_1_" x="70.5" y="9.7" class="st1" width="2.8" height="31.5"/>
		<path class="st1" d="M71.9,47.4c-2,0-3.6-1.6-3.6-3.6s1.6-3.6,3.6-3.6c2,0,3.6,1.6,3.6,3.6S73.9,47.4,71.9,47.4z M71.9,42.2
			c-0.9,0-1.6,0.7-1.6,1.6s0.7,1.6,1.6,1.6s1.6-0.7,1.6-1.6S72.8,42.2,71.9,42.2z"/>
		<rect id="rect4518_2_" x="52.1" y="9.7" class="st1" width="2.8" height="31.4"/>
		<circle class="st2" cx="53.5" cy="43.7" r="2.6"/>
		<rect id="rect4518_9_" x="42.6" y="14" class="st1" width="2.8" height="18.8"/>
		<path class="st1" d="M44,39c-2,0-3.6-1.6-3.6-3.6s1.6-3.6,3.6-3.6c2,0,3.6,1.6,3.6,3.6S46,39,44,39z M44,33.8
			c-0.9,0-1.6,0.7-1.6,1.6S43.1,37,44,37s1.6-0.7,1.6-1.6S44.9,33.8,44,33.8z"/>
		<rect id="rect4518_5_" x="79.6" y="14" class="st1" width="2.8" height="18.8"/>
		<path class="st1" d="M81,39c-2,0-3.6-1.6-3.6-3.6s1.6-3.6,3.6-3.6c2,0,3.6,1.6,3.6,3.6S83,39,81,39z M81,33.8
			c-0.9,0-1.6,0.7-1.6,1.6S80.1,37,81,37s1.6-0.7,1.6-1.6S81.9,33.8,81,33.8z"/>
		<rect id="rect4518_17_" x="98.6" y="25.7" class="st1" width="2.8" height="17.1"/>
		<rect id="rect4518_12_" x="92.4" y="41.3" class="st1" width="9" height="2.8"/>
		<path class="st1" d="M90.8,46.4c-1.2,0-2.5-0.6-3.1-1.8c-1-1.7-0.4-3.9,1.3-4.9c0.8-0.5,1.8-0.6,2.7-0.4c0.9,0.2,1.7,0.8,2.2,1.7
			c0.5,0.8,0.6,1.8,0.4,2.7s-0.8,1.7-1.7,2.2C92,46.2,91.4,46.4,90.8,46.4z M90.8,41.2c-0.3,0-0.5,0.1-0.8,0.2
			c-0.8,0.4-1,1.4-0.6,2.2c0.4,0.8,1.4,1,2.2,0.6c0.4-0.2,0.6-0.6,0.7-1c0.1-0.4,0.1-0.8-0.2-1.2c-0.2-0.4-0.6-0.6-1-0.7
			C91,41.2,90.9,41.2,90.8,41.2z"/>
		<rect id="rect4518_23_" x="106.1" y="38.8" class="st1" width="2.8" height="25.9"/>
		<path class="st1" d="M107.5,70.3c-1.2,0-2.5-0.6-3.1-1.8c-0.5-0.8-0.6-1.8-0.4-2.7c0.3-0.9,0.8-1.7,1.7-2.2c1.7-1,3.9-0.4,4.9,1.3
			c1,1.7,0.4,3.9-1.3,4.9C108.8,70.1,108.1,70.3,107.5,70.3z M107.5,65.1c-0.3,0-0.5,0.1-0.8,0.2c-0.4,0.2-0.6,0.6-0.7,1
			c-0.1,0.4-0.1,0.8,0.2,1.2c0.4,0.8,1.4,1,2.2,0.6c0.8-0.4,1-1.4,0.6-2.2C108.6,65.4,108.1,65.1,107.5,65.1z"/>
		<rect id="rect4518_24_" x="107" y="38.8" class="st1" width="15.9" height="2.8"/>
		<rect id="rect4518_25_" x="85.7" y="97" class="st1" width="6.3" height="2.8"/>
		<path class="st1" d="M84,102c-1.2,0-2.5-0.6-3.1-1.8v0c-0.5-0.8-0.6-1.8-0.4-2.7c0.2-0.9,0.8-1.7,1.7-2.2s1.8-0.6,2.7-0.4
			c0.9,0.2,1.7,0.8,2.2,1.7c0.5,0.8,0.6,1.8,0.4,2.7s-0.8,1.7-1.7,2.2C85.3,101.8,84.6,102,84,102z M82.6,99.2
			c0.4,0.8,1.4,1,2.2,0.6c0.4-0.2,0.6-0.6,0.7-1c0.1-0.4,0.1-0.8-0.2-1.2c-0.2-0.4-0.6-0.6-1-0.7c-0.4-0.1-0.8-0.1-1.2,0.2
			c-0.4,0.2-0.6,0.6-0.7,1C82.4,98.4,82.4,98.8,82.6,99.2L82.6,99.2z"/>
		<rect id="rect4518_18_" x="106.6" y="94.4" class="st1" width="12.9" height="2.8"/>
		<path class="st1" d="M104.4,99.4c-1.2,0-2.5-0.6-3.1-1.8v0c-0.5-0.8-0.6-1.8-0.4-2.7c0.2-0.9,0.8-1.7,1.7-2.2
			c0.8-0.5,1.8-0.6,2.7-0.4c0.9,0.2,1.7,0.8,2.2,1.7c0.5,0.8,0.6,1.8,0.4,2.7s-0.8,1.7-1.7,2.2C105.6,99.2,105,99.4,104.4,99.4z
			 M103,96.6c0.4,0.8,1.4,1,2.2,0.6c0.8-0.4,1-1.4,0.6-2.2c-0.2-0.4-0.6-0.6-1-0.7c-0.4-0.1-0.8-0.1-1.2,0.2c-0.4,0.2-0.6,0.6-0.7,1
			C102.8,95.8,102.8,96.2,103,96.6L103,96.6z"/>
		<path class="st1" d="M36.4,103.1c-2,0-3.6-1.6-3.6-3.6c0-2,1.6-3.6,3.6-3.6c2,0,3.6,1.6,3.6,3.6C40,101.5,38.4,103.1,36.4,103.1z
			 M36.4,97.9c-0.9,0-1.6,0.7-1.6,1.6s0.7,1.6,1.6,1.6s1.6-0.7,1.6-1.6S37.3,97.9,36.4,97.9z"/>
		<rect id="rect4518_26_" x="20.8" y="41.3" class="st1" width="10.3" height="2.8"/>
		<rect id="rect4518_3_" x="37.6" y="108.6" class="st1" width="2.8" height="10.4"/>
		<rect id="rect4518_10_" x="37.8" y="108.6" class="st1" width="9.1" height="2.8"/>
	</g>
	<g id="Layer_3">
		<path id="path4497_1_" class="st1" d="M124.6,108.2l0.3-71.9L62.8,0L0.3,35.5L0,107.4l62.2,36.3
			L124.6,108.2z M118.4,104.6l-56.2,32L6.2,103.9l0.3-64.7l56.2-32l55.9,32.7L118.4,104.6z"/>
	</g>
</g>
<g id="Layer_7">
	<g>
		<path class="st1" d="M81.1,51.9H44.6c-9.6,0-17.3,7.8-17.3,17.3S35,86.6,44.6,86.6c5.7,0,10.8-2.8,14-7.1h8.6
			c3.2,4.3,8.2,7.1,14,7.1c9.6,0,17.3-7.8,17.3-17.3S90.7,51.9,81.1,51.9z M54.3,72.1h-6.9V79h-5.7v-6.9h-6.9v-5.7h6.9v-6.9h5.7v6.9
			h6.9V72.1z M79.4,76.6c-1.5,1.5-4.1,1.5-5.6,0c-1.5-1.5-1.5-4.1,0-5.6c1.5-1.5,4.1-1.5,5.6,0C80.9,72.5,80.9,75.1,79.4,76.6z
			 M88.4,67.6c-1.5,1.5-4.1,1.5-5.6,0c-1.5-1.5-1.5-4.1,0-5.6s4.1-1.5,5.6,0S90,66,88.4,67.6z"/>
	</g>
</g>
</svg>
