<?xml version="1.0" encoding="utf-8"?>
<!-- Generator: Adobe Illustrator 20.1.0, SVG Export Plug-In . SVG Version: 6.00 Build 0)  -->
<svg version="1.1" xmlns="http://www.w3.org/2000/svg" xmlns:xlink="http://www.w3.org/1999/xlink" x="0px" y="0px"
	 viewBox="0 0 125 143.8" style="enable-background:new 0 0 125 143.8;" xml:space="preserve">
<style type="text/css">
	.st0{fill:#003B36;}
	.st1{fill:none;stroke:#012622;stroke-width:2;stroke-miterlimit:10;}
	.st2{fill:none;stroke:#012622;stroke-miterlimit:10;}
	.st3{fill:#EFDEC2;}
	.st4{fill:#012622;}
</style>
<g id="Layer_1">
	<title>logo-doc-hack</title>
	<g id="Layer_4">
		<polygon class="st0" points="3.1,36.4 3.1,105.9 62.5,140.4 121.1,105.9 121.1,38 62.5,3.8 		"/>
		<g>
			<g>
				<path class="st1" d="M54.7,72.8c1.3,0-14.4,4.4-16.9,55.2"/>
				<path class="st1" d="M55.8,72C11.3,94.1,8.4,109.5,8.4,109.5"/>
				<path class="st1" d="M22.8,22.7c0,0,15.9,36.2,32.9,50.5"/>
				<path class="st1" d="M-10.4,58.3"/>
				<path class="st1" d="M2.4,63.4c0,0,3.7,5.9,52.6,9.1"/>
				<path class="st1" d="M69,5.1c0,0-10.7,32.7-13.9,67.6"/>
				<path class="st2" d="M101.7,26c0,0-28.9,21.6-46.8,46.8"/>
				<path class="st1" d="M122.8,55.7c0,0-25-1.2-68.3,16.9"/>
				<path class="st1" d="M121.3,39.5c0,0-29.7,7.6-65.5,32.6"/>
				<path class="st1" d="M122.8,81.4c0,0-45.5-3-67.2-8.7"/>
				<path class="st1" d="M105.7,115c0,0-43.8-23.1-50.5-42.3"/>
				<path class="st2" d="M6.2,107.7c6-30.2-3.8-44.3-3.8-44.3s23.7-14.7,26.4-28.8c0,0,21.1,3.4,32.1-2.2c0,0,5,11.5,22.1,9.3
					c0,0,2.5,6.8,9.9,8.7c0,0-5.1,5.9-3.7,10.7c0,0-7.9,6.1-8.4,16.1c0,0-12.9-1.5-17,8.1c0,0-13-1.6-19.5,4.9c0,0-3.4-6.5-13.7-3.4
					c0,0,2.4-12.9-3.8-17.5c0,0,13.4-9.8,10.8-18.5c0,0,15.1,3.8,20.4-1.2c0,0,3.2,6.9,11.8,5c0,0,0.9,4.6,5.2,5.1
					c0,0-4.6,2.3-3.8,5.6c0,0-7.2,3.7-4.7,10.3"/>
				<path class="st2" d="M92.8,78.7c-21.3,1.2-22.2,13-22.2,13c-17.5-2.6-29.7,9.7-29.7,9.7c-9.8-5.5-21.3-5.7-21.3-5.7
					C23.5,76.1,14.8,67,14.8,67s18.5-11.5,18.5-24c0,0,17.7,3.1,25.9-1.9c0,0,2.8,9.3,16.9,6.9c0,0-0.4,6.5,5.4,8.2
					c0,0-2.7,4.8-1.5,7.2c0,0-8.6,5.3-8.4,12.7c0,0-10.1-0.5-12,5.5c0,0-10.1-0.9-13.5,2.7c0,0-1.9-3.4-6.4-3c0,0,1.2-7.4-2.4-10.3
					c0,0,7-6.7,6-11.8c0,0,7.9,2.2,13.7-1.2c0,0,2.9,3.8,7,3.1c0,0,1.2,2.9,3.8,3.1"/>
				<path class="st2" d="M1.5,54.1c0,0,15.8-7.3,21.3-29.8c0,0,19.1,7.9,41.4-1.7"/>
				<path class="st2" d="M85.1,78.7c6.5-14.5,16.2-20.8,16.2-20.8c-1.8-3.9,2.3-12.3,2.3-12.3c-7.7-3.4-8.7-14.3-8.7-14.3
					c-24.7,5.5-30.6-9.2-30.6-9.2"/>
				<path class="st2" d="M64.6,66c0,0-1.6,0.2-2.5-1.8c0,0-4.4,0.2-6-2.2c0,0-5.4,3-9.4,1.9c0,0-0.2,5.3-4.6,7.4
					c0,0,3.1,3.2,1.8,6.8c0,0,5,0.8,4.9,3.1c0,0,4.6-2.5,9.2-2.6c0,0,0.7-3.6,4.6-4c0,0,0-5.4,2.2-6.7"/>
				<path class="st2" d="M60.9,68.8c0,0-2.3,0.3-2.2-1.3c0,0-2.3,0.7-2.9-1.2c0,0-3.4,2.9-5.5,1.3c0,0,0.1,3.5-3.2,4.4
					c0,0,2.5,1.8,1.8,3.8c0,0,2.3,0.9,2.3,2.2c0,0,3-2.3,5.8-1.2c0,0-0.5-3.1,1.6-3.3c0,0,1-2.7,2.2-3.5"/>
				<path class="st2" d="M174.2,51.4"/>
				<path class="st2" d="M163.9,21.9"/>
				<path class="st2" d="M17.8,117c0,0-6.6-6.3,20.7,0.6c0,0,11.9-17.4,41.8-18.1c0,0,0.7-17.7,34-19"/>
			</g>
		</g>
		<g id="Layer_3">
			<path id="path4497" class="st3" d="M124.6,108.2l0.4-71.9L62.8,0L0.3,35.5L0,107.4l62.2,36.3L124.6,108.2z M118.4,104.6l-56.2,32
				L6.2,103.9l0.3-64.7l56.2-32l55.9,32.7L118.4,104.6z"/>
		</g>
	</g>
</g>
<g id="Layer_3_1_">
	<g>
		<g>
			<path class="st3" d="M38.1,87.1l-0.2,0L37.8,87l-0.1-0.2c-0.1-0.2,0-0.5,0.2-1c0.2-0.4,0.2-0.8,0.2-1.1c-0.1-0.3-0.3-0.6-0.6-0.9
				c-0.3-0.3-0.7-0.6-1.3-0.8c-0.5-0.2-1.1-0.4-1.7-0.6c-0.6-0.2-1.2-0.3-1.9-0.5c-0.7-0.1-1.3-0.2-1.8-0.3
				c-0.6-0.1-1.1-0.2-1.5-0.2c-0.3,0-0.6-0.1-0.8-0.1c-0.3,0.4-0.7,0.8-1,1.2c-0.4,0.5-0.9,0.9-1.4,1.2c-0.5,0.3-1.1,0.6-1.7,0.8
				c-0.6,0.2-1.3,0.3-2.1,0.3c-0.7,0-1.3-0.1-1.9-0.3c-0.6-0.2-1.1-0.5-1.5-0.8c-0.4-0.4-0.8-0.8-1-1.4c-0.2-0.5-0.3-1.2-0.3-1.8
				c0.1-0.6,0.4-1.2,0.9-1.6c0.5-0.4,1.1-0.6,1.9-0.8c0.7-0.2,1.6-0.3,2.7-0.3l0.2,0c0.9,0,1.8,0,2.9,0.1c0.2-0.5,0.3-1.2,0.4-1.8
				c0.2-0.8,0.3-1.7,0.4-2.5c0.1-0.8,0.2-1.7,0.3-2.4c0.1-0.5,0.1-1,0.2-1.4c0,0,0,0-0.1,0c-0.1,0-0.2,0-0.3,0
				c-0.3,0-0.5-0.1-0.8-0.1c-1.1-0.1-2.1-0.4-2.9-0.8c-0.8-0.4-1.5-0.9-2-1.4c-0.5-0.6-1-1.2-1.3-1.9c-0.3-0.7-0.5-1.5-0.6-2.3
				c-0.1-0.7,0-1.5,0.2-2.3c0.2-0.8,0.5-1.4,0.9-2.1c0.4-0.6,1-1.1,1.6-1.5c0.6-0.4,1.4-0.6,2.2-0.6c0.6,0,1.1,0.2,1.7,0.5
				c0.5,0.3,0.9,0.8,1.3,1.3c0.3,0.5,0.5,1.1,0.6,1.8c0.1,0.7,0,1.4-0.2,2c0,0.1-0.1,0.3-0.4,0.4C27.1,62.9,27,63,26.8,63
				c-0.2,0-0.4-0.1-0.5-0.2c-0.1-0.1-0.3-0.3-0.2-0.7c0.1-0.5,0.2-1,0.2-1.4c0-0.4-0.1-0.8-0.3-1c-0.1-0.3-0.3-0.4-0.5-0.6
				C25.3,59,25.2,59,25.1,59c0,0-0.1,0-0.1,0c-0.4,0.1-0.8,0.3-1.2,0.6c-0.3,0.3-0.6,0.7-0.8,1.1c-0.2,0.4-0.4,0.9-0.5,1.5
				c-0.1,0.5-0.1,1.1,0,1.7c0.1,0.8,0.3,1.4,0.6,1.9c0.3,0.5,0.7,1,1.2,1.3c0.5,0.3,1,0.5,1.7,0.7c0.3,0.1,0.6,0.1,0.9,0.1
				c0.3,0,0.5,0,0.8-0.1l0.3-1.5c0.1-0.9,0.3-1.9,0.5-2.9c0.2-1,0.4-2,0.7-2.9c0.3-0.9,0.6-1.7,1-2.5c0.4-0.8,0.9-1.3,1.4-1.7
				c0.4-0.2,0.8-0.4,1.2-0.6c0.5-0.1,1-0.2,1.4-0.2c0.3,0,0.7,0,1,0.1c0.3,0.1,0.6,0.2,0.9,0.5c0.3,0.2,0.5,0.5,0.7,0.8
				c0.2,0.3,0.3,0.7,0.4,1.2c0,0.5,0,1.1-0.1,1.8c-0.1,0.7-0.3,1.3-0.6,2c-0.3,0.7-0.6,1.4-1,2.1c-0.4,0.7-0.8,1.4-1.2,2
				c-0.5,0.6-1,1.2-1.5,1.7c-0.5,0.5-1,0.8-1.5,1.1c0,0.1-0.1,0.4-0.2,0.7c-0.1,0.5-0.2,1-0.3,1.6c-0.1,0.6-0.2,1.3-0.4,2.1
				c-0.1,0.7-0.3,1.5-0.4,2.2c-0.1,0.7-0.3,1.4-0.4,2c-0.1,0.4-0.2,0.8-0.3,1.1c1,0.2,2.1,0.4,3.2,0.7c1.2,0.3,2.4,0.7,3.5,1.1
				c1.1,0.5,2,1,2.7,1.6c0.8,0.7,1.2,1.4,1.3,2.3c0.1,0.5,0,1-0.3,1.5c-0.2,0.4-0.5,0.8-0.8,1C38.6,87,38.4,87.1,38.1,87.1
				L38.1,87.1z M22.5,80.1c-0.2,0-0.4,0-0.6,0c-0.5,0-1,0.1-1.4,0.2c-0.3,0.1-0.6,0.2-0.7,0.4c-0.1,0.2-0.2,0.5-0.2,0.8
				s0.1,0.5,0.3,0.8c0.2,0.2,0.4,0.4,0.8,0.6c0.2,0.1,0.5,0.1,0.8,0.1c0.2,0,0.4,0,0.6,0c0.5-0.1,0.9-0.2,1.2-0.4
				c0.3-0.2,0.6-0.4,0.8-0.7c0.2-0.3,0.4-0.6,0.6-0.9c0.1-0.2,0.2-0.5,0.4-0.7c-0.4-0.1-0.8-0.1-1.3-0.1
				C23.3,80.1,22.9,80.1,22.5,80.1z M34.8,57.4c0,0-0.1,0-0.3,0.1c-0.1,0.1-0.3,0.1-0.4,0.3c-0.4,0.4-0.8,0.9-1.1,1.6
				c-0.3,0.7-0.6,1.4-0.8,2.3c-0.2,0.8-0.4,1.8-0.5,2.7c-0.1,0.7-0.2,1.5-0.3,2.2c0.1-0.1,0.2-0.2,0.3-0.3c0.4-0.4,0.7-0.8,1.1-1.3
				c0.4-0.5,0.7-1,1-1.6c0.3-0.6,0.6-1.2,0.9-1.8c0.2-0.6,0.4-1.2,0.5-1.7c0.1-0.5,0.2-1,0.1-1.4c0-0.3-0.1-0.6-0.3-0.8
				C35,57.4,34.9,57.4,34.8,57.4z"/>
			<path class="st4" d="M34.2,55.9c0.3,0,0.6,0,0.9,0.1c0.3,0.1,0.6,0.2,0.8,0.4c0.2,0.2,0.4,0.4,0.6,0.7c0.2,0.3,0.3,0.6,0.3,1
				c0,0.5,0,1.1-0.1,1.7c-0.1,0.6-0.3,1.3-0.6,2c-0.3,0.7-0.6,1.4-0.9,2.1c-0.4,0.7-0.8,1.3-1.2,2c-0.4,0.6-0.9,1.2-1.4,1.6
				c-0.5,0.5-1,0.9-1.5,1.1c-0.1,0.2-0.1,0.5-0.2,0.9c-0.1,0.5-0.2,1-0.3,1.6c-0.1,0.6-0.2,1.3-0.4,2.1c-0.1,0.7-0.3,1.5-0.4,2.2
				c-0.1,0.7-0.3,1.4-0.4,2c-0.2,0.6-0.3,1.1-0.5,1.5c1.2,0.2,2.3,0.4,3.6,0.7c1.2,0.3,2.4,0.7,3.4,1.1c1,0.4,1.9,1,2.6,1.6
				c0.7,0.6,1.1,1.3,1.2,2.1c0,0.4,0,0.9-0.2,1.2c-0.2,0.4-0.4,0.7-0.7,0.9c-0.2,0.2-0.3,0.2-0.5,0.2c0,0-0.1,0-0.1,0
				C38,86.7,38,86.4,38.2,86c0.2-0.5,0.3-0.9,0.2-1.3s-0.3-0.8-0.7-1.1c-0.4-0.3-0.8-0.6-1.4-0.8c-0.5-0.2-1.1-0.5-1.8-0.6
				c-0.6-0.2-1.3-0.3-1.9-0.5c-0.7-0.1-1.3-0.2-1.9-0.3c-0.6-0.1-1.1-0.2-1.5-0.2c-0.4-0.1-0.8-0.1-1-0.2c-0.3,0.5-0.7,0.9-1.1,1.4
				c-0.4,0.4-0.9,0.8-1.4,1.1c-0.5,0.3-1.1,0.6-1.6,0.8c-0.6,0.2-1.3,0.3-2,0.3c-0.6,0-1.2-0.1-1.8-0.3c-0.5-0.2-1-0.4-1.4-0.8
				c-0.4-0.3-0.7-0.8-0.9-1.2c-0.2-0.5-0.3-1-0.2-1.7c0.1-0.5,0.3-1,0.7-1.3c0.4-0.3,1-0.6,1.7-0.7c0.7-0.2,1.6-0.2,2.6-0.3
				c0.1,0,0.1,0,0.2,0c0.9,0,2,0.1,3.1,0.1c0.2-0.6,0.4-1.3,0.5-2.2c0.2-0.8,0.3-1.7,0.4-2.5s0.2-1.7,0.3-2.4
				c0.1-0.8,0.2-1.4,0.3-1.9c-0.2,0.1-0.3,0.1-0.5,0.1c-0.1,0-0.1,0-0.2,0c-0.3,0-0.5-0.1-0.8-0.1c-1.1-0.1-2-0.4-2.8-0.7
				c-0.8-0.4-1.4-0.8-1.9-1.3c-0.5-0.5-0.9-1.1-1.2-1.8c-0.3-0.7-0.5-1.4-0.6-2.2c-0.1-0.7,0-1.4,0.2-2.1c0.2-0.7,0.5-1.4,0.9-1.9
				c0.4-0.6,0.9-1,1.5-1.4c0.6-0.4,1.3-0.5,2-0.5c0.5,0,1,0.2,1.5,0.5c0.5,0.3,0.8,0.7,1.1,1.2c0.3,0.5,0.5,1,0.6,1.7
				c0.1,0.6,0,1.2-0.2,1.9c0,0.1-0.1,0.2-0.2,0.2c-0.1,0.1-0.2,0.1-0.3,0.1c-0.1,0-0.2,0-0.3-0.1c-0.1-0.1-0.1-0.2-0.1-0.3
				c0.2-0.6,0.2-1.1,0.2-1.5c0-0.5-0.1-0.9-0.3-1.2c-0.2-0.3-0.4-0.6-0.6-0.7c-0.2-0.1-0.4-0.2-0.6-0.2c-0.1,0-0.1,0-0.2,0
				c-0.5,0.1-0.9,0.3-1.3,0.7c-0.4,0.3-0.7,0.7-0.9,1.2c-0.2,0.5-0.4,1-0.5,1.6c-0.1,0.6-0.1,1.2,0,1.8c0.1,0.8,0.3,1.5,0.7,2.1
				c0.4,0.6,0.8,1.1,1.3,1.4c0.5,0.4,1.1,0.6,1.8,0.7c0.3,0.1,0.6,0.1,1,0.1c0.4,0,0.7,0,1.1-0.1l0.3-1.8c0.2-0.9,0.3-1.9,0.5-2.9
				c0.2-1,0.4-2,0.7-2.9c0.3-0.9,0.6-1.7,0.9-2.4c0.4-0.7,0.8-1.2,1.3-1.6c0.3-0.2,0.7-0.4,1.1-0.5C33.3,55.9,33.7,55.9,34.2,55.9
				 M31.1,67.3c0.3-0.2,0.6-0.4,1-0.8c0.4-0.4,0.7-0.8,1.1-1.3c0.4-0.5,0.7-1.1,1-1.7c0.3-0.6,0.6-1.2,0.9-1.8
				c0.3-0.6,0.4-1.2,0.6-1.8c0.1-0.6,0.2-1.1,0.1-1.5c0-0.4-0.1-0.7-0.3-1C35.3,57.1,35,57,34.8,57c-0.1,0-0.2,0-0.4,0.1
				c-0.2,0.1-0.3,0.2-0.5,0.3c-0.5,0.4-0.8,1-1.1,1.7c-0.3,0.7-0.6,1.5-0.8,2.3c-0.2,0.9-0.4,1.8-0.5,2.8
				C31.3,65.3,31.2,66.3,31.1,67.3 M21.4,83.4c0.2,0,0.4,0,0.6,0c0.5-0.1,0.9-0.2,1.3-0.4c0.3-0.2,0.6-0.4,0.9-0.7
				c0.2-0.3,0.5-0.6,0.7-1c0.2-0.4,0.4-0.8,0.6-1.2c-0.5-0.1-1.1-0.2-1.8-0.2c-0.4,0-0.8-0.1-1.2-0.1c-0.2,0-0.4,0-0.6,0
				c-0.6,0-1.1,0.1-1.5,0.2c-0.4,0.1-0.7,0.3-0.9,0.6c-0.2,0.3-0.3,0.6-0.2,1c0,0.4,0.1,0.7,0.3,1c0.2,0.3,0.5,0.5,0.9,0.7
				C20.7,83.4,21,83.4,21.4,83.4 M34.2,55.1c-0.5,0-1,0.1-1.5,0.2c-0.5,0.1-1,0.4-1.3,0.6c-0.6,0.4-1.1,1-1.6,1.9
				c-0.4,0.7-0.7,1.6-1,2.5c-0.3,0.9-0.5,1.9-0.7,2.9c-0.2,1-0.4,2-0.5,2.9l-0.2,1.2c-0.2,0-0.3,0-0.5,0c-0.3,0-0.6,0-0.8-0.1
				c-0.6-0.1-1.1-0.3-1.5-0.6c-0.4-0.3-0.8-0.7-1.1-1.2c-0.3-0.5-0.5-1.1-0.6-1.8c-0.1-0.5-0.1-1.1,0-1.6c0.1-0.5,0.2-1,0.4-1.4
				c0.2-0.4,0.5-0.7,0.8-1c0.3-0.2,0.6-0.4,1-0.5c0,0,0,0,0.1,0c0,0,0.1,0,0.2,0.1c0.1,0.1,0.2,0.2,0.3,0.4c0.1,0.2,0.2,0.5,0.2,0.9
				c0,0.4,0,0.8-0.1,1.3c-0.1,0.4,0,0.8,0.3,1.1c0.2,0.2,0.5,0.3,0.7,0.3c0.2,0,0.5-0.1,0.7-0.2c0.4-0.2,0.5-0.5,0.6-0.7
				c0.2-0.8,0.3-1.5,0.2-2.2c-0.1-0.7-0.3-1.4-0.7-1.9c-0.4-0.6-0.8-1.1-1.4-1.4c-0.6-0.4-1.2-0.6-1.9-0.6c-0.9,0-1.7,0.2-2.4,0.6
				c-0.7,0.4-1.3,1-1.7,1.6c-0.4,0.6-0.8,1.4-1,2.2c-0.2,0.8-0.3,1.6-0.2,2.4c0.1,0.9,0.3,1.7,0.6,2.4c0.3,0.8,0.8,1.5,1.3,2.1
				c0.6,0.6,1.3,1.1,2.2,1.5c0.8,0.4,1.8,0.7,3,0.8c0.2,0,0.5,0.1,0.7,0.1c0,0.3-0.1,0.7-0.1,1c-0.1,0.8-0.2,1.6-0.3,2.4
				c-0.1,0.8-0.3,1.7-0.4,2.5c-0.1,0.6-0.2,1.1-0.3,1.5c-0.9-0.1-1.8-0.1-2.6-0.1l-0.2,0c-1.1,0-2,0.1-2.7,0.3
				c-0.8,0.2-1.5,0.5-2,0.9c-0.6,0.5-0.9,1.1-1,1.8c-0.1,0.8,0,1.4,0.3,2c0.3,0.6,0.6,1.1,1.1,1.5c0.5,0.4,1,0.7,1.7,0.9
				c0.6,0.2,1.3,0.3,2,0.3c0.8,0,1.5-0.1,2.2-0.3c0.7-0.2,1.3-0.5,1.8-0.9c0.5-0.4,1.1-0.8,1.5-1.3c0.3-0.3,0.6-0.7,0.9-1
				c0.2,0,0.4,0.1,0.6,0.1c0.4,0.1,0.9,0.1,1.5,0.2c0.6,0.1,1.2,0.2,1.8,0.3c0.6,0.1,1.3,0.3,1.9,0.5c0.6,0.2,1.1,0.4,1.7,0.6
				c0.5,0.2,0.9,0.4,1.2,0.7c0.3,0.2,0.4,0.5,0.5,0.7c0.1,0.2,0,0.5-0.1,0.8c-0.2,0.4-0.4,0.9-0.2,1.3c0.1,0.2,0.3,0.4,0.5,0.5
				c0.1,0,0.2,0.1,0.4,0.1c0.3,0,0.6-0.1,0.9-0.4c0.3-0.3,0.6-0.6,0.8-1.1c0.3-0.5,0.4-1.1,0.3-1.7c-0.1-1-0.6-1.9-1.5-2.6
				c-0.8-0.6-1.7-1.2-2.8-1.7c-1.1-0.5-2.3-0.8-3.5-1.1c-0.9-0.2-1.9-0.4-2.8-0.6c0.1-0.2,0.1-0.5,0.2-0.8c0.2-0.6,0.3-1.3,0.5-2
				c0.1-0.7,0.3-1.5,0.4-2.2c0.1-0.7,0.3-1.4,0.4-2.1c0.1-0.6,0.2-1.2,0.3-1.6c0.1-0.3,0.1-0.4,0.1-0.6c0.5-0.3,1-0.7,1.4-1.1
				c0.5-0.5,1-1.1,1.5-1.7c0.5-0.6,0.9-1.3,1.3-2c0.4-0.7,0.7-1.4,1-2.1c0.3-0.7,0.5-1.4,0.6-2.1c0.1-0.7,0.2-1.3,0.1-1.9
				c-0.1-0.5-0.2-0.9-0.4-1.3c-0.2-0.4-0.5-0.7-0.8-0.9c-0.3-0.2-0.7-0.4-1-0.5C34.9,55.2,34.6,55.1,34.2,55.1L34.2,55.1z M32,65.5
				c0-0.4,0.1-0.8,0.1-1.1c0.1-1,0.3-1.9,0.5-2.7c0.2-0.8,0.5-1.6,0.8-2.2c0.3-0.6,0.6-1.1,1-1.5c0.1-0.1,0.2-0.1,0.3-0.2
				c0.1,0,0.1,0,0.1,0c0,0,0,0,0,0.1c0.1,0.1,0.2,0.3,0.2,0.6c0,0.4,0,0.8-0.1,1.3c-0.1,0.5-0.3,1.1-0.5,1.7
				c-0.2,0.6-0.5,1.2-0.8,1.8c-0.3,0.6-0.7,1.1-1,1.6C32.4,65,32.2,65.3,32,65.5L32,65.5z M21.4,82.7c-0.3,0-0.5,0-0.6-0.1
				c-0.3-0.1-0.5-0.3-0.6-0.4c-0.1-0.2-0.2-0.4-0.2-0.6c0-0.2,0-0.4,0.1-0.6c0,0,0.2-0.1,0.5-0.2c0.4-0.1,0.8-0.2,1.4-0.2
				c0.2,0,0.4,0,0.6,0c0.4,0,0.7,0,1.1,0c0.2,0,0.5,0,0.7,0.1c0,0.1-0.1,0.2-0.1,0.2c-0.2,0.3-0.4,0.6-0.6,0.9
				c-0.2,0.2-0.4,0.4-0.7,0.6c-0.3,0.2-0.6,0.3-1,0.3C21.7,82.6,21.6,82.7,21.4,82.7L21.4,82.7z"/>
		</g>
		<g>
			<path class="st3" d="M38.3,81.2c-0.2,0-0.4,0-0.7-0.1c-0.8-0.1-1.4-0.5-1.8-1.1c-0.4-0.5-0.7-1.2-0.9-1.8
				c-0.2-0.7-0.2-1.4-0.2-2.1c0-0.7,0.1-1.4,0.2-1.9c0.3-1.6,0.7-2.9,1.2-3.9c0.5-1.1,1.1-1.9,1.8-2.5c0.7-0.6,1.4-1.1,2.1-1.3
				c0.6-0.2,1.2-0.3,1.7-0.3c0.1,0,0.2,0,0.4,0c0.8,0.1,1.5,0.4,1.9,0.9c0.4,0.5,0.7,1.1,0.9,1.8c0.2,0.7,0.2,1.4,0.2,2.2
				c0,0.8-0.2,1.6-0.3,2.4c-0.2,0.8-0.4,1.5-0.6,2.2c-0.1,0.3-0.2,0.6-0.3,0.9c0.2-0.2,0.4-0.4,0.6-0.6c0.3-0.3,0.5-0.7,0.8-1.2
				c0.3-0.4,0.5-0.9,0.8-1.4c0.2-0.5,0.5-0.9,0.7-1.4c0.2-0.5,0.4-0.9,0.5-1.3c0.1-0.3,0.3-0.5,0.5-0.6c0.1,0,0.2-0.1,0.3-0.1
				c0.1,0,0.2,0,0.3,0.1c0.2,0.1,0.3,0.3,0.3,0.5c0.1,0.2,0.1,0.4,0,0.6l-0.4,1.2c-0.2,0.5-0.4,1-0.7,1.6c-0.3,0.6-0.6,1.1-0.9,1.7
				c-0.3,0.6-0.7,1.1-1.1,1.5c-0.4,0.4-0.9,0.8-1.4,1c-0.4,0.2-0.7,0.3-1.1,0.3c-0.1,0-0.2,0-0.3,0c-0.3,0.4-0.6,0.7-0.9,1.1
				c-0.4,0.4-0.8,0.7-1.2,1c-0.4,0.3-0.9,0.5-1.4,0.7C38.9,81.2,38.6,81.2,38.3,81.2z M38.6,72.7c-0.2,0.7-0.3,1.5-0.5,2.3
				C38,75.9,38,76.6,38,77.2c0,0.6,0.1,1.2,0.3,1.6c0.1,0.3,0.4,0.5,0.7,0.5c0.1,0,0.3,0,0.5-0.1c0.2-0.1,0.4-0.2,0.6-0.4
				c0.2-0.2,0.4-0.3,0.6-0.5c0-0.1,0.1-0.1,0.1-0.2c-0.3-0.1-0.5-0.4-0.7-0.6c-0.3-0.4-0.5-0.8-0.7-1.3c-0.2-0.5-0.4-1.1-0.5-1.7
				c-0.1-0.6-0.2-1.2-0.2-1.8C38.6,72.6,38.6,72.7,38.6,72.7z M41.9,68.4c-0.4,0-0.7,0.2-0.9,0.6c-0.3,0.5-0.5,1.1-0.6,2
				c-0.1,0.5-0.1,1-0.1,1.6c0,0.6,0.1,1.2,0.2,1.7c0.1,0.5,0.3,1,0.6,1.5c0.2,0.3,0.5,0.5,0.8,0.7c0.1-0.2,0.3-0.5,0.4-0.9
				c0.2-0.5,0.4-1.1,0.6-1.7c0.2-0.6,0.3-1.3,0.4-2c0.1-0.7,0.1-1.3,0-1.8c-0.1-0.5-0.2-0.9-0.4-1.2C42.7,68.5,42.4,68.4,41.9,68.4z
				"/>
			<path class="st4" d="M41.7,66.5c0.1,0,0.2,0,0.3,0c0.7,0.1,1.3,0.3,1.7,0.7c0.4,0.4,0.7,1,0.8,1.6c0.2,0.6,0.2,1.4,0.2,2.1
				c0,0.8-0.1,1.5-0.3,2.3c-0.2,0.8-0.4,1.5-0.6,2.1c-0.2,0.7-0.4,1.2-0.6,1.5c0.1,0,0.1,0,0.2,0c0.2,0,0.4-0.1,0.6-0.2
				c0.3-0.2,0.5-0.4,0.8-0.8c0.3-0.3,0.5-0.7,0.8-1.2c0.3-0.5,0.5-0.9,0.8-1.4c0.2-0.5,0.5-1,0.7-1.4c0.2-0.5,0.4-0.9,0.5-1.3
				c0.1-0.2,0.2-0.4,0.3-0.4c0,0,0.1,0,0.1,0c0.1,0,0.1,0,0.1,0c0.1,0.1,0.1,0.1,0.2,0.3c0,0.1,0,0.3,0,0.4
				c-0.1,0.3-0.3,0.7-0.4,1.2c-0.2,0.5-0.4,1-0.7,1.5c-0.3,0.5-0.6,1.1-0.9,1.6c-0.3,0.6-0.7,1-1.1,1.4c-0.4,0.4-0.8,0.7-1.3,0.9
				c-0.3,0.1-0.6,0.2-1,0.2c-0.2,0-0.3,0-0.5-0.1c-0.3,0.4-0.7,0.8-1,1.2c-0.3,0.4-0.7,0.7-1.1,1c-0.4,0.3-0.8,0.5-1.3,0.6
				c-0.3,0.1-0.5,0.1-0.8,0.1c-0.2,0-0.4,0-0.6-0.1c-0.7-0.1-1.2-0.4-1.6-0.9c-0.4-0.5-0.6-1.1-0.8-1.7c-0.2-0.6-0.2-1.3-0.2-2
				c0-0.7,0.1-1.3,0.2-1.9c0.3-1.5,0.6-2.8,1.1-3.8c0.5-1,1.1-1.8,1.7-2.4c0.6-0.6,1.3-1,1.9-1.2C40.6,66.6,41.2,66.5,41.7,66.5
				 M42,76.9c0.2-0.3,0.4-0.7,0.6-1.2c0.2-0.5,0.4-1.1,0.6-1.8c0.2-0.7,0.3-1.3,0.4-2c0.1-0.7,0.1-1.3,0-1.9c-0.1-0.6-0.2-1-0.5-1.4
				c-0.3-0.4-0.7-0.5-1.3-0.5c-0.5,0-0.9,0.3-1.2,0.8c-0.3,0.5-0.5,1.2-0.6,2.1c-0.1,0.5-0.1,1-0.1,1.7c0,0.6,0.1,1.2,0.2,1.8
				c0.1,0.6,0.4,1.1,0.7,1.6C41.1,76.4,41.5,76.7,42,76.9 M39.4,69.4c-0.2,0.2-0.3,0.6-0.6,1.2c-0.2,0.6-0.4,1.3-0.6,2
				c-0.2,0.8-0.3,1.5-0.5,2.4c-0.1,0.8-0.2,1.6-0.1,2.3c0,0.7,0.1,1.2,0.3,1.7c0.2,0.4,0.5,0.7,1,0.7c0.2,0,0.4-0.1,0.6-0.2
				c0.2-0.1,0.5-0.3,0.7-0.4c0.2-0.2,0.4-0.4,0.6-0.6c0.2-0.2,0.3-0.4,0.3-0.6c-0.3-0.1-0.7-0.3-0.9-0.7c-0.3-0.3-0.5-0.8-0.7-1.3
				c-0.2-0.5-0.3-1-0.5-1.6c-0.1-0.6-0.2-1.2-0.2-1.8c0-0.6,0-1.1,0.1-1.7C39.1,70.3,39.2,69.8,39.4,69.4 M41.7,65.8
				c-0.6,0-1.2,0.1-1.8,0.3c-0.8,0.2-1.5,0.7-2.2,1.4c-0.7,0.6-1.3,1.5-1.8,2.6c-0.5,1.1-0.9,2.4-1.2,4.1c-0.1,0.6-0.2,1.2-0.2,2
				c0,0.8,0,1.5,0.2,2.2c0.2,0.7,0.5,1.4,0.9,2c0.5,0.6,1.2,1.1,2,1.2c0.2,0,0.5,0.1,0.7,0.1c0.4,0,0.7,0,1-0.1
				c0.5-0.2,1-0.4,1.5-0.7c0.4-0.3,0.9-0.7,1.3-1.1c0.3-0.3,0.5-0.6,0.8-0.9c0.1,0,0.1,0,0.1,0c0.4,0,0.9-0.1,1.3-0.3
				c0.5-0.3,1-0.6,1.5-1.1c0.4-0.4,0.8-1,1.2-1.6c0.3-0.6,0.7-1.1,0.9-1.7c0.3-0.6,0.5-1.1,0.7-1.6c0.2-0.5,0.3-0.9,0.4-1.2
				c0.1-0.3,0.1-0.6,0-0.9c-0.1-0.4-0.3-0.6-0.5-0.7c-0.2-0.1-0.4-0.2-0.6-0.2c-0.1,0-0.3,0-0.4,0.1c-0.3,0.1-0.5,0.4-0.7,0.8
				c-0.1,0.4-0.3,0.8-0.5,1.3c-0.2,0.5-0.4,0.9-0.7,1.4c-0.2,0.5-0.5,0.9-0.7,1.4c0,0,0,0.1-0.1,0.1c0.1-0.4,0.2-0.7,0.3-1.1
				c0.2-0.8,0.3-1.6,0.3-2.4c0-0.8,0-1.6-0.2-2.4c-0.2-0.8-0.5-1.4-1-1.9c-0.5-0.6-1.3-0.9-2.2-1C41.9,65.8,41.8,65.8,41.7,65.8
				L41.7,65.8z M41.7,75.9c-0.1-0.1-0.2-0.2-0.3-0.3c-0.3-0.4-0.4-0.8-0.6-1.3c-0.1-0.5-0.2-1.1-0.2-1.7c0-0.6,0.1-1.1,0.1-1.5
				c0.1-0.8,0.3-1.4,0.5-1.9c0.2-0.4,0.4-0.4,0.5-0.4c0.5,0,0.6,0.2,0.7,0.3c0.2,0.3,0.3,0.6,0.4,1c0.1,0.5,0,1.1,0,1.7
				c-0.1,0.7-0.2,1.3-0.4,1.9c-0.2,0.6-0.4,1.2-0.6,1.7C41.9,75.6,41.8,75.8,41.7,75.9L41.7,75.9z M39,78.9c-0.2,0-0.3-0.1-0.4-0.2
				c-0.2-0.4-0.3-0.8-0.3-1.4c0-0.6,0-1.3,0.1-2.1c0-0.1,0-0.2,0-0.3c0.1,0.5,0.2,0.9,0.4,1.4c0.2,0.6,0.5,1,0.8,1.4
				c0.1,0.2,0.3,0.3,0.5,0.5c-0.1,0.1-0.2,0.2-0.4,0.3c-0.2,0.1-0.4,0.3-0.6,0.3C39.1,78.9,39,78.9,39,78.9L39,78.9z"/>
		</g>
		<g>
			<path class="st3" d="M47.8,81.1c-0.2,0-0.5,0-0.7-0.1c-0.5-0.1-0.8-0.3-1.1-0.6c-0.3-0.3-0.5-0.6-0.6-1c-0.1-0.4-0.2-0.8-0.2-1.4
				c0-0.5,0-1.1,0.1-1.7c0-0.5,0.1-1,0.2-1.5c0.1-0.5,0.2-1,0.3-1.5c0.1-0.5,0.2-1,0.3-1.5c0.1-0.5,0.2-0.9,0.3-1.3
				c0.1-0.5,0.2-1,0.3-1.4c0.1-0.4,0.1-0.7,0.1-0.8c0-0.1,0-0.2,0-0.3c0-0.1,0-0.2-0.1-0.2l0,0c-0.1-0.1-0.1-0.2-0.1-0.2
				c0-0.1,0-0.1,0-0.3c0-0.4,0.2-0.6,0.4-0.7c0.2-0.1,0.3-0.1,0.5-0.2c0.2,0,0.3,0,0.5,0c0.1,0,0.2,0,0.3,0c0.2,0,0.4,0.1,0.5,0.1
				c0.5,0.3,0.9,0.6,1.1,1.1c0.2,0.5,0.3,1,0.3,1.5c0,0.3-0.1,0.7-0.2,1.3c-0.1,0.6-0.3,1.2-0.4,2c-0.2,0.7-0.3,1.5-0.5,2.3
				c-0.2,0.8-0.3,1.5-0.4,2.2c-0.1,0.6-0.1,1.2-0.1,1.6c0,0.3,0.1,0.4,0.1,0.4c0,0,0.1,0,0.1,0c0.2,0,0.4-0.1,0.7-0.3
				c0.4-0.3,0.8-0.7,1.1-1.2c0.4-0.5,0.7-1,1-1.6c0.3-0.5,0.5-0.9,0.6-1.3c-0.2-0.4-0.3-0.9-0.5-1.4c-0.1-0.6-0.2-1.2-0.2-1.9
				c0-0.6,0-1.3,0.1-1.9c0.1-0.6,0.3-1.2,0.5-1.7c0.3-0.5,0.6-0.9,1.1-1.2c0.3-0.2,0.7-0.3,1.2-0.3c0.2,0,0.3,0,0.5,0
				c0.4,0.1,0.8,0.3,1,0.8c0.2,0.4,0.2,0.9,0.2,1.6c-0.1,0.6-0.2,1.4-0.5,2.3c-0.3,0.8-0.6,1.8-1.1,2.9c0.1,0.1,0.3,0.2,0.5,0.2
				c0,0,0,0,0,0c0.3,0,0.6-0.1,0.9-0.2c0.3-0.1,0.6-0.4,0.9-0.7c0.3-0.3,0.6-0.6,0.8-1l0-0.1l0.1-0.1c0.2-0.1,0.4-0.2,0.6-0.2h0
				l0.1,0c0.2,0.1,0.4,0.2,0.6,0.4l0.1,0.1v0.3l0,0.1c-0.3,0.6-0.7,1.1-1,1.5c-0.4,0.4-0.8,0.8-1.3,1c-0.5,0.2-1,0.4-1.5,0.4l-0.1,0
				c-0.4,0-0.9-0.1-1.4-0.2c-0.2,0.5-0.5,1.1-0.9,1.7c-0.4,0.8-0.9,1.5-1.5,2.1c-0.6,0.6-1.2,1.2-1.9,1.6
				C48.9,81,48.4,81.1,47.8,81.1z M54.1,69.3c0,0-0.1,0.1-0.1,0.1c-0.2,0.2-0.3,0.6-0.4,1c-0.1,0.4-0.2,0.9-0.2,1.4c0,0,0,0,0,0
				c0-0.1,0-0.1,0.1-0.2c0.2-0.5,0.4-1,0.5-1.4C54,69.9,54.1,69.5,54.1,69.3C54.1,69.3,54.1,69.3,54.1,69.3z"/>
			<path class="st4" d="M54.4,66.5c0.1,0,0.3,0,0.4,0c0.3,0,0.6,0.2,0.7,0.5c0.2,0.3,0.2,0.8,0.1,1.4c-0.1,0.6-0.2,1.4-0.5,2.3
				c-0.3,0.9-0.7,1.9-1.2,3.1c0.3,0.3,0.6,0.4,0.9,0.4c0,0,0.1,0,0.1,0c0.3,0,0.7-0.1,1-0.2c0.4-0.2,0.7-0.4,1-0.7
				c0.3-0.3,0.6-0.7,0.8-1.1l0-0.1c0.1-0.1,0.3-0.1,0.4-0.1c0,0,0,0,0.1,0c0.1,0,0.3,0.1,0.4,0.3v0c-0.3,0.6-0.6,1.1-1,1.5
				c-0.3,0.4-0.7,0.7-1.1,0.9c-0.4,0.2-0.9,0.3-1.4,0.3c0,0-0.1,0-0.1,0c-0.5,0-1-0.1-1.6-0.3c-0.3,0.6-0.6,1.2-1,2
				c-0.4,0.7-0.9,1.4-1.4,2c-0.5,0.6-1.1,1.1-1.8,1.5c-0.5,0.3-0.9,0.4-1.4,0.4c-0.2,0-0.4,0-0.6-0.1c-0.4-0.1-0.7-0.2-0.9-0.5
				c-0.2-0.2-0.4-0.5-0.5-0.9c-0.1-0.4-0.2-0.8-0.2-1.3c0-0.5,0-1,0.1-1.6c0-0.5,0.1-1,0.2-1.5c0.1-0.5,0.2-1,0.3-1.5
				c0.1-0.5,0.2-1,0.3-1.5c0.1-0.5,0.2-0.9,0.3-1.3c0.1-0.5,0.2-1,0.3-1.4c0.1-0.4,0.1-0.7,0.1-0.9c0-0.2,0-0.3,0-0.4
				c0-0.1,0-0.2-0.1-0.3l0-0.1v0c0,0,0-0.1-0.1-0.1c0,0,0-0.1,0-0.2c0-0.2,0-0.3,0.2-0.4c0.1-0.1,0.3-0.1,0.4-0.1c0.1,0,0.3,0,0.4,0
				c0.1,0,0.2,0,0.2,0c0.2,0,0.3,0.1,0.4,0.1c0.4,0.2,0.7,0.5,0.9,0.9c0.2,0.4,0.2,0.9,0.2,1.4c0,0.2-0.1,0.7-0.2,1.2
				c-0.1,0.6-0.3,1.2-0.4,2c-0.2,0.7-0.3,1.5-0.5,2.3c-0.2,0.8-0.3,1.5-0.4,2.2C48,77.4,48,78,48,78.4c0,0.4,0.2,0.7,0.4,0.8
				c0.1,0,0.1,0,0.2,0c0.3,0,0.6-0.1,0.9-0.4c0.4-0.3,0.8-0.8,1.2-1.3c0.4-0.5,0.8-1.1,1.1-1.6c0.3-0.6,0.6-1.1,0.7-1.4
				C52.3,74,52.2,73.5,52,73c-0.1-0.6-0.2-1.2-0.2-1.8c0-0.6,0-1.2,0.1-1.8c0.1-0.6,0.3-1.1,0.5-1.6c0.2-0.4,0.5-0.8,0.9-1
				C53.7,66.6,54,66.5,54.4,66.5 M53,73.3c0.3-0.5,0.5-1.1,0.7-1.6c0.2-0.5,0.4-1,0.5-1.4c0.1-0.4,0.2-0.8,0.2-1
				c0-0.3,0-0.4-0.1-0.4c-0.1,0-0.1,0-0.2,0c-0.2,0-0.3,0.1-0.5,0.3c-0.2,0.3-0.3,0.6-0.5,1.1c-0.1,0.5-0.2,1-0.2,1.5
				C53,72.3,53,72.8,53,73.3 M54.4,65.8c-0.5,0-1,0.1-1.4,0.4c-0.5,0.3-0.9,0.7-1.2,1.3c-0.3,0.5-0.5,1.1-0.6,1.8
				c-0.1,0.6-0.2,1.3-0.1,2c0,0.7,0.1,1.3,0.2,1.9c0.1,0.5,0.2,0.9,0.4,1.3c-0.1,0.3-0.3,0.7-0.6,1.1c-0.3,0.5-0.6,1.1-1,1.5
				c-0.4,0.5-0.7,0.9-1.1,1.1c-0.1,0.1-0.2,0.2-0.3,0.2c0,0,0,0,0-0.1c0-0.4,0-0.9,0.1-1.5c0.1-0.7,0.2-1.4,0.4-2.1
				c0.2-0.8,0.3-1.5,0.5-2.3c0.2-0.7,0.3-1.4,0.4-2c0.1-0.6,0.2-1.1,0.2-1.4c0-0.6-0.1-1.1-0.3-1.6c-0.2-0.6-0.7-1.1-1.2-1.3l0,0
				l0,0C48.6,66,48.4,66,48.2,66c-0.1,0-0.2,0-0.3,0c-0.1,0-0.3,0-0.5,0l0,0l0,0c-0.2,0-0.4,0.1-0.6,0.2c-0.4,0.2-0.6,0.6-0.6,1.1
				c0,0.1,0,0.2,0,0.3c0,0.1,0.1,0.2,0.1,0.3c0,0.1,0,0.1,0,0.1c0,0.1,0,0.2,0,0.3c0,0.1,0,0.3-0.1,0.7c-0.1,0.4-0.2,0.8-0.3,1.4
				c-0.1,0.4-0.2,0.9-0.3,1.3c-0.1,0.5-0.2,1-0.3,1.5c-0.1,0.5-0.2,1-0.3,1.6C45,75.3,45,75.8,45,76.4c0,0.6-0.1,1.2-0.1,1.7
				c0,0.6,0.1,1,0.2,1.5c0.1,0.5,0.4,0.9,0.7,1.2c0.3,0.3,0.8,0.6,1.3,0.7c0.3,0.1,0.5,0.1,0.8,0.1c0.6,0,1.2-0.2,1.8-0.5
				c0.7-0.4,1.4-1,2-1.6c0.6-0.7,1.1-1.4,1.5-2.2c0.3-0.5,0.6-1,0.8-1.5c0.4,0.1,0.8,0.1,1.2,0.1l0.1,0c0.6,0,1.2-0.2,1.7-0.4
				c0.5-0.3,1-0.6,1.4-1.1c0.4-0.4,0.7-1,1.1-1.6l0.1-0.2v-0.2v-0.3l-0.2-0.2c-0.3-0.3-0.5-0.4-0.8-0.5c-0.1,0-0.2,0-0.3,0
				c-0.3,0-0.5,0.1-0.8,0.3l-0.2,0.1L57.2,72c-0.2,0.3-0.4,0.6-0.7,0.8c-0.3,0.3-0.6,0.5-0.8,0.6c-0.2,0.1-0.5,0.2-0.7,0.2l-0.1,0
				c0.4-1,0.7-1.8,1-2.6c0.3-1,0.5-1.7,0.5-2.4c0.1-0.7,0-1.3-0.2-1.8c-0.3-0.5-0.7-0.9-1.3-1C54.7,65.8,54.5,65.8,54.4,65.8
				L54.4,65.8z"/>
		</g>
		<g>
			<path class="st3" d="M59.8,81c-0.7,0-1.3-0.1-1.8-0.4c-0.5-0.3-0.9-0.6-1.3-1.1c-0.3-0.5-0.6-1-0.7-1.6c-0.1-0.6-0.2-1.2-0.2-1.9
				l0-0.2l0-0.3c0-0.2,0-0.3,0.1-0.5c0.1-0.9,0.4-2,0.8-3c0.4-1,0.9-2,1.5-2.9c0.6-0.9,1.3-1.6,2-2.1c0.8-0.6,1.6-0.9,2.5-0.9
				c0.6,0,1.1,0.1,1.5,0.4c0.4,0.3,0.6,0.6,0.8,1c0.2,0.4,0.3,0.9,0.3,1.4c0,0.5,0,1-0.1,1.4c-0.1,0.7-0.4,1.3-0.8,1.8
				c-0.4,0.5-0.9,0.9-1.5,1.3c-0.5,0.3-1.2,0.6-1.8,0.8c-0.6,0.2-1.1,0.3-1.7,0.4c0,0.1-0.1,0.3-0.1,0.5c-0.1,0.3-0.1,0.6-0.1,0.9
				c0,0.3,0,0.7,0,1c0,0.3,0.1,0.6,0.1,0.9c0.1,0.2,0.2,0.5,0.4,0.6c0.1,0.1,0.3,0.2,0.6,0.3c0.1,0,0.2,0,0.3,0c0.3,0,0.6-0.1,1-0.3
				c0.5-0.2,0.9-0.6,1.3-1c0.4-0.4,0.9-1,1.3-1.5c0.4-0.6,0.8-1.2,1.1-1.8c0.4-0.6,0.7-1.2,1-1.8c0.3-0.6,0.5-1.1,0.7-1.5
				c0.1-0.2,0.3-0.4,0.5-0.4c0,0,0,0,0,0c0.2,0,0.3,0,0.5,0.1c0.1,0.1,0.3,0.2,0.4,0.3c0.1,0.2,0.2,0.4,0.1,0.7
				c-0.2,0.4-0.4,0.9-0.7,1.5c-0.3,0.6-0.6,1.3-1,1.9c-0.4,0.7-0.8,1.4-1.2,2.1c-0.5,0.7-1,1.3-1.5,1.9c-0.6,0.6-1.2,1-1.9,1.4
				C61.4,80.8,60.6,81,59.8,81z M63.1,69.1c-0.2,0-0.4,0.1-0.7,0.4c-0.3,0.3-0.6,0.7-0.9,1.2c-0.3,0.5-0.6,1-0.9,1.5
				c-0.1,0.3-0.3,0.5-0.4,0.8c0.2,0,0.4-0.1,0.6-0.1c0.4-0.1,0.9-0.3,1.3-0.5c0.4-0.2,0.7-0.5,1-0.8c0.3-0.3,0.4-0.7,0.5-1.1
				c0-0.1,0-0.3,0-0.4c0-0.2,0-0.4-0.1-0.5c0-0.1-0.1-0.3-0.2-0.4C63.2,69.1,63.2,69.1,63.1,69.1z"/>
			<path class="st4" d="M62.7,66.6c0.5,0,0.9,0.1,1.2,0.3c0.3,0.2,0.5,0.5,0.7,0.9c0.2,0.4,0.2,0.8,0.2,1.2c0,0.5,0,0.9-0.1,1.4
				c-0.1,0.6-0.3,1.2-0.7,1.7c-0.4,0.5-0.8,0.9-1.4,1.2c-0.5,0.3-1.1,0.6-1.7,0.8c-0.6,0.2-1.2,0.3-1.8,0.4
				c-0.1,0.2-0.1,0.4-0.2,0.8c-0.1,0.3-0.1,0.6-0.1,1c0,0.4,0,0.7,0,1.1c0,0.4,0.1,0.7,0.2,1c0.1,0.3,0.2,0.5,0.4,0.8
				c0.2,0.2,0.5,0.3,0.8,0.4c0.1,0,0.2,0,0.3,0c0.4,0,0.8-0.1,1.1-0.3c0.5-0.3,1-0.6,1.4-1.1c0.5-0.5,0.9-1,1.3-1.6
				c0.4-0.6,0.8-1.2,1.2-1.9c0.4-0.6,0.7-1.2,1-1.8c0.3-0.6,0.5-1.1,0.7-1.6c0-0.1,0.1-0.2,0.2-0.2c0,0,0,0,0,0c0.1,0,0.2,0,0.2,0.1
				c0.1,0,0.2,0.1,0.2,0.2c0.1,0.1,0.1,0.2,0,0.3c-0.2,0.4-0.4,0.9-0.7,1.5c-0.3,0.6-0.6,1.2-0.9,1.9c-0.4,0.7-0.8,1.3-1.2,2
				s-0.9,1.3-1.5,1.8c-0.5,0.5-1.1,1-1.8,1.3c-0.6,0.3-1.3,0.5-2.1,0.5c-0.6,0-1.2-0.1-1.6-0.4c-0.5-0.2-0.8-0.6-1.1-1
				c-0.3-0.4-0.5-0.9-0.6-1.5c-0.1-0.5-0.2-1.1-0.2-1.8l0-0.2c0-0.1,0-0.2,0-0.4c0-0.1,0-0.2,0-0.4c0.1-1,0.4-2,0.8-3
				c0.4-1,0.9-1.9,1.4-2.8c0.6-0.8,1.2-1.5,1.9-2C61.2,66.9,61.9,66.6,62.7,66.6 M59.6,73.4c0.4,0,0.8-0.1,1.3-0.2
				c0.5-0.1,0.9-0.3,1.4-0.5c0.4-0.2,0.8-0.5,1.1-0.9c0.3-0.4,0.5-0.8,0.6-1.3c0-0.1,0-0.3,0-0.5c0-0.2-0.1-0.4-0.1-0.6
				c-0.1-0.2-0.2-0.4-0.3-0.5c-0.1-0.1-0.3-0.2-0.5-0.2c-0.3,0-0.6,0.2-1,0.5c-0.3,0.3-0.7,0.8-1,1.3c-0.3,0.5-0.6,1-0.9,1.5
				C60,72.6,59.8,73,59.6,73.4 M62.7,65.8c-1,0-1.9,0.3-2.7,0.9c-0.8,0.6-1.5,1.3-2.1,2.2c-0.6,0.9-1.1,1.9-1.5,2.9
				C56,73,55.7,74,55.6,75c0,0.2-0.1,0.3-0.1,0.5v0.3l0,0.1l0,0l0,0c0,0.7,0.1,1.3,0.2,2c0.2,0.6,0.4,1.2,0.8,1.7
				c0.4,0.5,0.8,0.9,1.4,1.2c0.6,0.3,1.2,0.5,2,0.5c0.9,0,1.7-0.2,2.4-0.6c0.7-0.4,1.4-0.9,2-1.4c0.6-0.6,1.1-1.2,1.6-1.9
				c0.5-0.7,0.9-1.4,1.3-2.1c0.4-0.7,0.7-1.3,1-2c0.3-0.6,0.5-1.1,0.7-1.5c0.2-0.3,0.1-0.7-0.1-1c-0.1-0.2-0.3-0.3-0.5-0.4
				c-0.2-0.1-0.4-0.1-0.6-0.1h0l-0.1,0c-0.4,0-0.7,0.3-0.8,0.6c-0.2,0.4-0.4,0.9-0.7,1.5c-0.3,0.6-0.6,1.2-0.9,1.8
				c-0.3,0.6-0.7,1.2-1.1,1.8c-0.4,0.6-0.8,1.1-1.2,1.5c-0.4,0.4-0.8,0.7-1.3,0.9c-0.3,0.1-0.5,0.2-0.8,0.2c-0.1,0-0.2,0-0.2,0
				c-0.2,0-0.3-0.1-0.3-0.1c-0.1-0.1-0.2-0.3-0.3-0.5c-0.1-0.2-0.1-0.5-0.1-0.8c0-0.3,0-0.7,0-1c0-0.3,0.1-0.6,0.1-0.9
				c0-0.1,0-0.1,0-0.2c0.5-0.1,1-0.2,1.5-0.3c0.7-0.2,1.3-0.5,1.9-0.8c0.6-0.4,1.1-0.8,1.5-1.4c0.5-0.6,0.8-1.2,0.9-2
				c0.1-0.5,0.1-1,0.1-1.5c0-0.5-0.1-1-0.3-1.5c-0.2-0.5-0.5-0.9-0.9-1.2C64,66,63.4,65.8,62.7,65.8L62.7,65.8z M60.9,72.4
				C60.9,72.4,60.9,72.4,60.9,72.4c0.3-0.6,0.6-1.1,0.9-1.6c0.3-0.4,0.6-0.8,0.9-1.1c0.2-0.2,0.3-0.3,0.4-0.3c0,0,0.1,0.1,0.1,0.2
				c0,0.1,0.1,0.3,0.1,0.4c0,0.2,0,0.3,0,0.4c-0.1,0.3-0.2,0.6-0.4,0.9c-0.2,0.3-0.5,0.5-0.9,0.7C61.6,72.2,61.2,72.4,60.9,72.4
				L60.9,72.4z"/>
		</g>
		<g>
			<path class="st3" d="M69.2,81.1c-0.7,0-1.3-0.2-1.8-0.5c-0.5-0.3-0.9-0.7-1.1-1.2c-0.3-0.5-0.5-1-0.6-1.6
				c-0.1-0.6-0.2-1.2-0.2-1.7v-0.2c0-0.1,0-0.3,0-0.4c0-0.2,0-0.4,0-0.5c0-0.6,0.1-1.4,0.3-2.5c0.1-1,0.3-2.2,0.6-3.3
				c0.3-1.2,0.6-2.4,0.9-3.6c0.4-1.2,0.8-2.3,1.3-3.3c0.5-1,1.1-1.8,1.8-2.4c0.7-0.7,1.5-1,2.3-1c0.4,0,0.8,0.1,1,0.4
				c0.2,0.2,0.4,0.5,0.5,0.9c0.1,0.3,0.2,0.7,0.2,1.1c0,0.4,0,0.8,0,1.2c0,0.7-0.2,1.5-0.5,2.5c-0.3,1-0.7,2-1.2,3
				c-0.5,1-1.1,2-1.7,3c-0.6,0.9-1.3,1.8-2.1,2.4c0,0.1,0,0.2-0.1,0.3c-0.1,0.3-0.1,0.7-0.2,1.1c-0.1,0.4-0.1,0.9-0.2,1.5
				c0,0.5,0,1,0.1,1.4c0.1,0.4,0.2,0.7,0.4,1c0.1,0.1,0.3,0.3,0.7,0.3c0.4,0,0.8-0.2,1.3-0.6c0.5-0.5,0.9-1.1,1.4-1.7
				c0.4-0.7,0.9-1.4,1.3-2.2c0.4-0.8,0.7-1.5,1-2.1c0.1-0.4,0.3-0.7,0.4-0.9c0.1-0.3,0.2-0.5,0.3-0.6l0,0l0,0
				c0.1-0.1,0.2-0.2,0.4-0.2c0.1,0,0.1,0,0.2,0c0.2,0,0.6,0.1,0.8,0.6l0.1,0.1l-0.7,1.5c-0.3,0.6-0.5,1.2-0.8,1.9
				c-0.3,0.6-0.6,1.3-0.9,1.9c-0.3,0.6-0.7,1.2-1.1,1.8c-0.4,0.6-0.8,1.1-1.2,1.5c-0.4,0.5-0.9,0.8-1.4,1.1
				C70.2,81,69.7,81.1,69.2,81.1z M72.7,61.8c-0.1,0.2-0.3,0.5-0.4,0.7c-0.3,0.5-0.5,1-0.8,1.7c-0.3,0.6-0.5,1.3-0.8,2.1
				c-0.3,0.7-0.5,1.5-0.7,2.4c-0.1,0.3-0.2,0.6-0.3,1c0,0,0,0,0,0c0.4-0.6,0.9-1.4,1.3-2.2c0.4-0.8,0.8-1.7,1.1-2.5
				c0.3-0.9,0.5-1.6,0.5-2.3C72.7,62.2,72.7,62,72.7,61.8z"/>
			<path class="st4" d="M72.7,59.2c0.3,0,0.6,0.1,0.8,0.3c0.2,0.2,0.3,0.4,0.4,0.7c0.1,0.3,0.1,0.6,0.2,1c0,0.4,0,0.7,0,1.1
				c0,0.6-0.2,1.4-0.5,2.4c-0.3,0.9-0.7,1.9-1.2,2.9c-0.5,1-1.1,2-1.7,2.9c-0.7,0.9-1.3,1.7-2.1,2.4c0,0-0.1,0.2-0.1,0.5
				c-0.1,0.3-0.1,0.7-0.2,1.1c-0.1,0.5-0.1,1-0.2,1.5c0,0.5,0,1,0.1,1.5c0.1,0.5,0.2,0.8,0.5,1.1s0.6,0.5,1,0.5c0.5,0,1-0.2,1.5-0.7
				c0.5-0.5,1-1.1,1.4-1.8s0.9-1.5,1.3-2.3c0.4-0.8,0.7-1.5,1-2.1c0.2-0.4,0.3-0.7,0.4-0.9c0.1-0.3,0.2-0.5,0.3-0.6
				c0,0,0.1-0.1,0.2-0.1c0.1,0,0.1,0,0.2,0c0.2,0,0.4,0.1,0.5,0.4l-0.6,1.4c-0.3,0.6-0.5,1.2-0.8,1.8c-0.3,0.6-0.6,1.3-0.9,1.9
				c-0.3,0.6-0.7,1.2-1,1.8c-0.4,0.6-0.8,1.1-1.2,1.5c-0.4,0.4-0.8,0.8-1.3,1s-0.9,0.4-1.4,0.4c-0.6,0-1.2-0.1-1.6-0.4
				c-0.4-0.3-0.8-0.6-1-1.1c-0.3-0.4-0.4-0.9-0.6-1.5c-0.1-0.6-0.2-1.1-0.2-1.7v-0.2c0-0.1,0-0.3,0-0.4c0-0.1,0-0.3,0-0.4
				c0-0.7,0.1-1.5,0.3-2.5c0.1-1,0.3-2.1,0.6-3.3c0.3-1.2,0.6-2.3,0.9-3.5c0.4-1.2,0.8-2.3,1.3-3.2c0.5-1,1.1-1.7,1.7-2.3
				C71.2,59.5,71.9,59.2,72.7,59.2 M69,71.2c0.3-0.2,0.6-0.7,1.1-1.3c0.4-0.7,0.9-1.4,1.3-2.2c0.4-0.8,0.8-1.7,1.1-2.6
				c0.3-0.9,0.5-1.7,0.6-2.4c0-0.6,0-1,0-1.2c0-0.2-0.1-0.3-0.2-0.3c0,0,0,0-0.1,0c-0.1,0-0.2,0.2-0.4,0.4c-0.2,0.2-0.3,0.5-0.5,0.8
				c-0.3,0.5-0.5,1.1-0.8,1.7c-0.3,0.7-0.5,1.4-0.8,2.1c-0.3,0.8-0.5,1.5-0.7,2.4C69.4,69.4,69.2,70.3,69,71.2 M72.7,58.5
				c-1,0-1.8,0.4-2.6,1.1c-0.7,0.7-1.3,1.5-1.8,2.5c-0.5,1-1,2.1-1.4,3.3c-0.4,1.2-0.7,2.4-1,3.6c-0.3,1.2-0.5,2.3-0.6,3.4
				c-0.1,1-0.2,1.9-0.3,2.5c0,0.2,0,0.4,0,0.5c0,0.1,0,0.3,0,0.4v0.2c0,0.6,0.1,1.2,0.2,1.8c0.1,0.6,0.4,1.2,0.6,1.7
				c0.3,0.6,0.7,1,1.3,1.3c0.5,0.4,1.2,0.5,2,0.5c0.6,0,1.2-0.2,1.7-0.5c0.5-0.3,1-0.7,1.5-1.2c0.4-0.5,0.9-1,1.3-1.6
				c0.4-0.6,0.7-1.2,1.1-1.8c0.3-0.6,0.7-1.3,0.9-1.9c0.3-0.6,0.6-1.3,0.8-1.9l0.6-1.4l0.1-0.3l-0.1-0.3c-0.2-0.5-0.7-0.9-1.2-0.9
				c-0.1,0-0.2,0-0.2,0c-0.2,0-0.4,0.1-0.6,0.3L75,70.2l-0.1,0.1c-0.1,0.1-0.2,0.3-0.3,0.6c-0.1,0.3-0.3,0.6-0.4,1
				c-0.3,0.6-0.6,1.3-1,2.1c-0.4,0.8-0.8,1.5-1.2,2.2c-0.4,0.7-0.9,1.2-1.3,1.7c-0.4,0.3-0.7,0.5-1,0.5c-0.3,0-0.4-0.1-0.4-0.2
				c-0.2-0.2-0.3-0.5-0.3-0.8c-0.1-0.4-0.1-0.8-0.1-1.3c0-0.5,0.1-1,0.2-1.4c0.1-0.4,0.1-0.8,0.2-1.1c0-0.1,0-0.2,0.1-0.2
				c0.7-0.7,1.4-1.5,2-2.4c0.7-1,1.3-2,1.8-3c0.5-1,0.9-2.1,1.2-3c0.3-1,0.5-1.8,0.5-2.6c0-0.4,0-0.8,0-1.2c0-0.4-0.1-0.8-0.2-1.2
				c-0.1-0.4-0.4-0.8-0.7-1C73.6,58.6,73.2,58.5,72.7,58.5L72.7,58.5z M70.9,66.8c0-0.1,0.1-0.3,0.1-0.4c0.3-0.7,0.5-1.4,0.8-2.1
				c0.1-0.3,0.2-0.5,0.3-0.7c-0.1,0.3-0.2,0.7-0.3,1.1C71.6,65.5,71.3,66.2,70.9,66.8L70.9,66.8z"/>
		</g>
		<g>
			<path class="st3" d="M82.4,81.1c-0.1,0-0.2,0-0.4,0c-0.4-0.1-0.8-0.2-1-0.5c-0.2-0.2-0.4-0.5-0.6-0.9c-0.1-0.3-0.2-0.6-0.3-1
				c0,0-0.1,0.1-0.1,0.1c-0.3,0.4-0.6,0.8-1,1.1c-0.4,0.3-0.8,0.6-1.3,0.8c-0.4,0.2-0.9,0.3-1.5,0.3c-0.1,0-0.2,0-0.2,0
				c-0.5,0-0.9-0.1-1.3-0.3c-0.4-0.2-0.7-0.5-0.9-0.8c-0.2-0.3-0.4-0.7-0.5-1.1c-0.1-0.4-0.2-0.8-0.2-1.3c0-0.7,0.1-1.5,0.2-2.4
				c0.1-0.8,0.4-1.7,0.7-2.5c0.3-0.8,0.7-1.7,1.1-2.4c0.4-0.8,0.9-1.5,1.4-2.1c0.5-0.6,1.1-1.1,1.7-1.4c0.6-0.3,1.2-0.5,1.8-0.5
				c0.1,0,0.2,0,0.3,0c0.7,0.1,1.3,0.4,1.6,1.1c0.1,0.2,0.2,0.3,0.2,0.5c0.1-0.4,0.2-0.6,0.3-0.7c0.2-0.4,0.5-0.8,1-0.8
				c0.2,0,0.4-0.1,0.5-0.1c0.2,0,0.4,0,0.6,0.1c0.4,0.1,0.7,0.2,1,0.4c0.1,0.1,0.3,0.3,0.4,0.6c0,0.2-0.1,0.3-0.2,0.4
				c0,0-0.1,0.1-0.3,0.7c-0.1,0.5-0.3,1.1-0.4,1.8c-0.1,0.7-0.3,1.5-0.4,2.3l-0.4,2.4c-0.1,0.8-0.2,1.4-0.3,2
				c-0.1,0.6-0.2,1-0.2,1.2c0,0.1,0,0.2,0,0.4c0,0.1,0,0.2,0,0.2c0.1,0,0.1-0.1,0.3-0.3c0.3-0.3,0.6-0.7,0.9-1.3
				c0.3-0.5,0.7-1.1,1.1-1.8c0.4-0.7,0.7-1.4,1.1-2.1c0.3-0.7,0.7-1.4,1-2.1c0.1-0.2,0.2-0.3,0.5-0.4c0.1,0,0.2,0,0.3,0
				c0.1,0,0.1,0,0.2,0c0.2,0,0.3,0.1,0.4,0.2c0.2,0.2,0.3,0.4,0.2,0.6c-0.2,0.4-0.4,0.8-0.6,1.4c-0.3,0.6-0.5,1.3-0.9,2
				c-0.3,0.7-0.7,1.5-1.1,2.2c-0.4,0.7-0.9,1.4-1.4,2c-0.5,0.6-1,1.1-1.6,1.4C83.5,80.9,83,81.1,82.4,81.1z M80.5,68.1
				c-0.4,0.1-0.9,0.4-1.3,0.9c-0.5,0.6-0.9,1.3-1.3,2.1c-0.4,0.8-0.7,1.7-1,2.6c-0.3,0.9-0.4,1.8-0.5,2.6c-0.1,0.8-0.1,1.5,0.1,2
				c0.1,0.6,0.4,0.6,0.5,0.7c0,0,0.1,0,0.1,0l0,0c0.2,0,0.4-0.1,0.6-0.2c0.3-0.2,0.6-0.4,0.9-0.7c0.3-0.3,0.6-0.7,0.8-1.1
				c0.3-0.4,0.5-0.8,0.7-1.3c0.2-0.4,0.4-0.9,0.6-1.3c0.2-0.4,0.3-0.8,0.3-1.1c0-0.1,0.1-0.3,0.1-0.7c0-0.3,0.1-0.7,0.1-1.2
				c0-0.4,0-0.9,0-1.3c0-0.4-0.1-0.9-0.2-1.2c-0.1-0.3-0.2-0.6-0.3-0.8C80.7,68.1,80.6,68.1,80.5,68.1l0-0.4L80.5,68.1z"/>
			<path class="st4" d="M84,66.6c0.2,0,0.4,0,0.6,0.1c0.3,0.1,0.6,0.2,0.8,0.4c0.2,0.2,0.3,0.3,0.1,0.4c-0.1,0.1-0.2,0.4-0.4,0.9
				c-0.1,0.5-0.3,1.1-0.4,1.8c-0.2,0.7-0.3,1.5-0.4,2.3c-0.1,0.8-0.3,1.6-0.4,2.4c-0.1,0.8-0.2,1.4-0.3,2c-0.1,0.6-0.2,1-0.2,1.2
				c0,0.1,0,0.3,0,0.4c0,0.2,0,0.3,0.1,0.5c0,0.1,0.1,0.2,0.3,0.2c0,0,0,0,0,0c0.1,0,0.3-0.1,0.6-0.4c0.3-0.3,0.6-0.8,1-1.3
				c0.4-0.6,0.7-1.2,1.1-1.8c0.4-0.7,0.7-1.4,1.1-2.1c0.3-0.7,0.7-1.4,1-2.1c0-0.1,0.1-0.1,0.2-0.2c0.1,0,0.1,0,0.2,0
				c0,0,0.1,0,0.1,0c0.1,0,0.2,0,0.2,0.1c0.1,0.1,0.1,0.1,0.1,0.2c-0.2,0.3-0.4,0.8-0.6,1.4c-0.3,0.6-0.5,1.3-0.9,2
				c-0.3,0.7-0.7,1.4-1.1,2.2c-0.4,0.7-0.8,1.4-1.3,1.9c-0.5,0.6-1,1-1.5,1.4c-0.4,0.3-0.9,0.4-1.3,0.4c-0.1,0-0.2,0-0.3,0
				c-0.3,0-0.6-0.2-0.8-0.4c-0.2-0.2-0.4-0.5-0.5-0.8c-0.1-0.3-0.2-0.6-0.2-1c0-0.3-0.1-0.7-0.1-1c-0.2,0.3-0.5,0.7-0.7,1.1
				c-0.3,0.4-0.6,0.7-0.9,1c-0.3,0.3-0.7,0.6-1.2,0.8c-0.4,0.2-0.8,0.3-1.3,0.3c-0.1,0-0.2,0-0.2,0c-0.4,0-0.8-0.1-1.1-0.3
				c-0.3-0.2-0.6-0.4-0.8-0.7c-0.2-0.3-0.4-0.6-0.5-1c-0.1-0.4-0.2-0.8-0.2-1.2c0-0.7,0-1.5,0.2-2.3c0.1-0.8,0.4-1.7,0.6-2.5
				c0.3-0.8,0.6-1.6,1-2.4c0.4-0.8,0.9-1.4,1.4-2c0.5-0.6,1-1,1.6-1.4c0.5-0.3,1.1-0.4,1.6-0.4c0.1,0,0.2,0,0.2,0
				c0.6,0,1,0.3,1.3,0.9c0.3,0.5,0.5,1.2,0.6,1.9c0-0.5,0.1-1,0.2-1.4c0.1-0.4,0.2-0.7,0.3-0.8c0.1-0.4,0.4-0.6,0.7-0.6
				C83.6,66.6,83.8,66.6,84,66.6 M77.1,79.4c0.3,0,0.5-0.1,0.8-0.2c0.3-0.2,0.6-0.4,1-0.8c0.3-0.3,0.6-0.7,0.9-1.1
				c0.3-0.4,0.5-0.9,0.7-1.3c0.2-0.4,0.4-0.9,0.6-1.3c0.2-0.4,0.3-0.8,0.4-1.1c0-0.1,0.1-0.4,0.1-0.7c0-0.4,0.1-0.8,0.1-1.2
				c0-0.4,0-0.9,0-1.4c0-0.5-0.1-0.9-0.2-1.3c-0.1-0.4-0.2-0.7-0.4-0.9c-0.1-0.2-0.3-0.3-0.5-0.3c0,0-0.1,0-0.1,0
				c-0.5,0.1-1,0.4-1.5,1c-0.5,0.6-0.9,1.3-1.3,2.1c-0.4,0.8-0.7,1.7-1,2.7c-0.3,1-0.4,1.9-0.5,2.7c-0.1,0.8-0.1,1.5,0.1,2.1
				c0.1,0.6,0.4,0.9,0.8,0.9C77,79.4,77.1,79.4,77.1,79.4 M84,65.8c-0.2,0-0.4,0-0.6,0.1c-0.6,0.1-1,0.5-1.2,1c-0.4-0.6-1-1-1.8-1
				c-0.1,0-0.2,0-0.3,0c-0.7,0-1.4,0.2-2,0.5c-0.7,0.4-1.3,0.9-1.8,1.5c-0.5,0.6-1,1.3-1.5,2.2c-0.4,0.8-0.8,1.6-1.1,2.5
				c-0.3,0.9-0.5,1.7-0.7,2.6c-0.2,0.9-0.2,1.7-0.2,2.4c0,0.5,0.1,0.9,0.2,1.4c0.1,0.5,0.3,0.9,0.6,1.2c0.3,0.4,0.6,0.7,1,0.9
				c0.4,0.2,0.9,0.4,1.5,0.4c0.1,0,0.2,0,0.3,0c0.6,0,1.1-0.1,1.6-0.3c0.5-0.2,1-0.5,1.4-0.9c0.2-0.2,0.4-0.4,0.6-0.7
				c0,0.1,0.1,0.2,0.1,0.3c0.2,0.4,0.4,0.7,0.6,1c0.3,0.3,0.7,0.5,1.2,0.6c0.1,0,0.3,0,0.4,0c0.6,0,1.2-0.2,1.7-0.5
				c0.6-0.4,1.1-0.9,1.7-1.5c0.5-0.6,1-1.3,1.4-2.1c0.4-0.7,0.8-1.5,1.1-2.2c0.3-0.7,0.6-1.4,0.9-2c0.2-0.6,0.4-1.1,0.6-1.4
				c0.2-0.4,0-0.8-0.3-1.1c-0.2-0.1-0.4-0.2-0.6-0.3c-0.1,0-0.2,0-0.2,0c-0.1,0-0.2,0-0.3,0c-0.4,0.1-0.6,0.3-0.7,0.6
				c-0.3,0.7-0.6,1.4-1,2.1c-0.3,0.7-0.7,1.4-1,2.1c-0.3,0.7-0.7,1.3-1,1.8c-0.2,0.2-0.3,0.5-0.5,0.7c0-0.2,0.1-0.4,0.1-0.7
				c0.1-0.6,0.2-1.2,0.3-2l0-0.2l0.4-2.2c0.1-0.8,0.3-1.6,0.4-2.3c0.1-0.7,0.3-1.3,0.4-1.8c0.1-0.4,0.2-0.5,0.2-0.6
				c0.2-0.2,0.3-0.4,0.3-0.7c0-0.3-0.2-0.6-0.5-0.8c-0.3-0.2-0.7-0.4-1.1-0.5C84.5,65.8,84.2,65.8,84,65.8L84,65.8z M77.1,78.6
				C77.1,78.6,77.1,78.6,77.1,78.6c-0.1,0-0.2-0.1-0.3-0.4c-0.1-0.5-0.1-1.1-0.1-1.9c0.1-0.8,0.2-1.7,0.5-2.6
				c0.3-0.9,0.6-1.8,0.9-2.6c0.4-0.8,0.8-1.4,1.2-2c0.3-0.4,0.7-0.6,1-0.7c0.1,0.1,0.1,0.3,0.2,0.6c0.1,0.3,0.1,0.7,0.1,1.2
				c0,0.5,0,0.9,0,1.3c0,0.4,0,0.8-0.1,1.2c0,0.4-0.1,0.6-0.1,0.6l0,0l0,0c-0.1,0.3-0.2,0.6-0.3,1c-0.2,0.4-0.3,0.8-0.5,1.2
				c-0.2,0.4-0.4,0.8-0.7,1.2c-0.2,0.4-0.5,0.7-0.8,1c-0.3,0.3-0.5,0.5-0.8,0.6C77.4,78.6,77.3,78.6,77.1,78.6L77.1,78.6z"/>
		</g>
		<g>
			<path class="st3" d="M90.5,81.5c-0.2,0-0.5,0-0.8-0.1c-0.7-0.1-1.2-0.3-1.7-0.6c-0.5-0.3-0.8-0.7-1.1-1.2c-0.3-0.5-0.5-1-0.6-1.6
				c-0.1-0.6-0.2-1.2-0.1-1.9l0-0.2c0-0.2,0-0.5,0.1-0.8c0.2-1,0.4-2.1,0.8-3.1c0.4-1.1,0.9-2.1,1.5-3c0.6-0.9,1.3-1.7,2-2.2
				c0.8-0.6,1.6-0.9,2.5-0.9c0.5,0,0.9,0.1,1.4,0.3c0.5,0.2,0.9,0.6,1.2,1c0.3,0.5,0.5,1.1,0.5,1.8c0,0.7-0.1,1.5-0.6,2.5
				c-0.2,0.4-0.4,0.6-0.6,0.8c-0.2,0.1-0.3,0.2-0.5,0.2c-0.1,0-0.2,0-0.3-0.1c-0.1-0.1-0.4-0.3-0.4-0.7c0-0.3,0.1-0.6,0.3-1
				c0.1-0.2,0.2-0.4,0.3-0.7c0.1-0.3,0.1-0.5,0.1-0.8c0-0.2-0.1-0.4-0.2-0.6c-0.1-0.1-0.3-0.2-0.5-0.3c-0.1,0-0.1,0-0.2,0
				c-0.2,0-0.4,0.1-0.7,0.3c-0.4,0.3-0.7,0.7-1.1,1.2c-0.4,0.5-0.7,1.2-1,1.9c-0.3,0.7-0.6,1.4-0.8,2.2c-0.2,0.8-0.4,1.5-0.5,2.2
				c-0.1,0.7-0.1,1.4-0.1,1.9c0.1,0.5,0.2,1,0.4,1.3c0.2,0.3,0.4,0.4,0.8,0.4c0.6,0,1.2-0.2,1.8-0.7c0.6-0.5,1.2-1.1,1.7-1.9
				c0.5-0.8,1.1-1.7,1.6-2.7c0.5-1,1-2.1,1.4-3.3l0-0.1l0.1-0.1l0.1-0.1c0,0,0.1,0,0.2-0.1l0,0c0,0,0.2,0,0.2,0
				c0.3,0,0.5,0.1,0.6,0.2c0.1,0.1,0.2,0.2,0.2,0.4l0.1,0.2l-0.1,0.1c-0.2,0.4-0.4,1-0.7,1.6c-0.3,0.7-0.6,1.4-0.9,2.1
				c-0.3,0.8-0.7,1.5-1.2,2.3c-0.5,0.8-1,1.4-1.6,2c-0.6,0.6-1.3,1.1-2,1.4C91.7,81.3,91.1,81.5,90.5,81.5z"/>
			<path class="st4" d="M93,66.2c0.4,0,0.8,0.1,1.3,0.3c0.4,0.2,0.8,0.5,1.1,0.9c0.3,0.4,0.4,0.9,0.5,1.6c0,0.7-0.1,1.4-0.5,2.4
				c-0.1,0.3-0.3,0.5-0.4,0.6C94.8,72,94.7,72,94.6,72c0,0-0.1,0-0.1,0c-0.1-0.1-0.2-0.2-0.2-0.4s0.1-0.5,0.3-0.8
				c0.1-0.2,0.2-0.5,0.3-0.8c0.1-0.3,0.1-0.6,0.1-0.9c0-0.3-0.1-0.5-0.3-0.8c-0.2-0.2-0.4-0.4-0.8-0.5c-0.1,0-0.2,0-0.3,0
				c-0.3,0-0.6,0.1-0.9,0.3c-0.4,0.3-0.8,0.7-1.2,1.3c-0.4,0.6-0.7,1.2-1.1,1.9c-0.3,0.7-0.6,1.5-0.8,2.3c-0.2,0.8-0.4,1.5-0.5,2.3
				c-0.1,0.8-0.1,1.4-0.1,2c0.1,0.6,0.2,1.1,0.5,1.4c0.2,0.4,0.6,0.5,1.1,0.5c0.7,0,1.4-0.2,2-0.7c0.6-0.5,1.2-1.1,1.8-1.9
				c0.6-0.8,1.1-1.7,1.6-2.8c0.5-1.1,1-2.2,1.5-3.3l0,0l0,0c0,0,0.1,0,0.1,0c0,0,0,0,0.1,0c0,0,0.1,0,0.1,0c0.1,0,0.2,0,0.3,0.1
				c0.1,0.1,0.1,0.2,0.2,0.3c-0.2,0.4-0.4,1-0.7,1.7c-0.3,0.7-0.6,1.4-0.9,2.1c-0.3,0.7-0.7,1.5-1.2,2.2c-0.4,0.7-1,1.4-1.5,1.9
				c-0.6,0.6-1.2,1-1.9,1.3c-0.5,0.2-1,0.3-1.6,0.3c-0.2,0-0.5,0-0.7-0.1c-0.6-0.1-1.1-0.3-1.5-0.6c-0.4-0.3-0.8-0.7-1-1.1
				c-0.2-0.4-0.4-1-0.5-1.5s-0.1-1.2-0.1-1.8l0-0.2c0-0.2,0-0.5,0.1-0.8c0.2-1,0.4-2,0.8-3.1c0.4-1.1,0.9-2,1.4-2.9
				c0.6-0.9,1.2-1.6,1.9-2.1C91.5,66.5,92.2,66.2,93,66.2 M93,65.4c-1,0-1.9,0.3-2.7,1c-0.8,0.6-1.5,1.4-2.1,2.3
				c-0.6,0.9-1.1,1.9-1.5,3C86.3,72.9,86,74,85.9,75c0,0.3-0.1,0.5-0.1,0.8l0,0.2c0,0.7,0,1.4,0.1,2c0.1,0.6,0.3,1.2,0.6,1.7
				c0.3,0.5,0.7,1,1.2,1.4c0.5,0.4,1.1,0.6,1.9,0.7c0.3,0,0.6,0.1,0.8,0.1c0.7,0,1.3-0.1,1.9-0.4c0.8-0.3,1.5-0.8,2.1-1.5
				c0.6-0.6,1.2-1.3,1.6-2.1c0.5-0.8,0.9-1.5,1.2-2.3c0.3-0.7,0.6-1.5,0.9-2.2c0.2-0.6,0.5-1.2,0.7-1.6l0.1-0.3L99,71.2
				c-0.1-0.2-0.2-0.3-0.3-0.5c-0.2-0.2-0.5-0.4-0.8-0.4h-0.2l0,0h0l-0.1,0.1c-0.1,0-0.1,0-0.2,0.1l-0.1,0.1l-0.1,0.1l0,0l0,0
				l-0.1,0.1L96.9,71c-0.5,1.1-0.9,2.2-1.4,3.3c-0.5,1-1,1.9-1.5,2.7c-0.5,0.7-1.1,1.3-1.6,1.8c-0.5,0.4-1,0.6-1.6,0.6
				c-0.3,0-0.4-0.1-0.5-0.2c-0.2-0.3-0.3-0.6-0.3-1.1c-0.1-0.5,0-1.1,0.1-1.8c0.1-0.7,0.3-1.5,0.5-2.2c0.2-0.7,0.5-1.5,0.8-2.2
				c0.3-0.7,0.6-1.3,1-1.8c0.3-0.5,0.7-0.9,1-1.1c0.2-0.1,0.3-0.2,0.4-0.2c0,0,0.1,0,0.1,0c0.2,0,0.3,0.1,0.3,0.1
				c0.1,0.1,0.1,0.3,0.1,0.4c0,0.2,0,0.4-0.1,0.6c-0.1,0.2-0.2,0.5-0.2,0.7c-0.2,0.4-0.4,0.8-0.4,1.1c0,0.7,0.4,1,0.6,1.1
				c0.1,0.1,0.3,0.1,0.4,0.1c0.2,0,0.5-0.1,0.7-0.2c0.3-0.2,0.5-0.5,0.7-0.9c0.4-1.1,0.6-2,0.6-2.7c0-0.8-0.2-1.5-0.6-2
				c-0.4-0.5-0.8-0.9-1.4-1.2C94.1,65.5,93.6,65.4,93,65.4L93,65.4z"/>
		</g>
		<g>
			<path class="st3" d="M99.3,81c-0.7,0-1.3-0.1-1.8-0.4c-0.5-0.3-0.9-0.6-1.3-1.1c-0.3-0.5-0.6-1-0.7-1.6c-0.1-0.6-0.2-1.2-0.2-1.9
				l0-0.2l0-0.3c0-0.2,0-0.3,0.1-0.5c0.1-0.9,0.4-2,0.8-3c0.4-1,0.9-2,1.5-2.9c0.6-0.9,1.3-1.6,2-2.1c0.8-0.6,1.6-0.9,2.5-0.9
				c0.6,0,1.1,0.1,1.5,0.4c0.4,0.3,0.6,0.6,0.8,1c0.2,0.4,0.3,0.9,0.3,1.4c0,0.5,0,1-0.1,1.4c-0.1,0.7-0.4,1.3-0.8,1.8
				c-0.4,0.5-0.9,0.9-1.5,1.3c-0.5,0.3-1.2,0.6-1.8,0.8c-0.6,0.2-1.1,0.3-1.7,0.4c0,0.1-0.1,0.3-0.1,0.5c-0.1,0.3-0.1,0.6-0.1,0.9
				c0,0.3,0,0.7,0,1c0,0.3,0.1,0.6,0.1,0.9c0.1,0.2,0.2,0.5,0.4,0.6c0.1,0.1,0.3,0.2,0.6,0.3c0.1,0,0.2,0,0.3,0c0.3,0,0.6-0.1,1-0.3
				c0.5-0.2,0.9-0.6,1.3-1c0.4-0.4,0.9-1,1.3-1.5c0.4-0.6,0.8-1.2,1.1-1.8c0.3-0.6,0.7-1.2,1-1.8c0.3-0.6,0.5-1.1,0.7-1.5
				c0.1-0.2,0.3-0.4,0.5-0.4c0,0,0,0,0,0c0.2,0,0.3,0,0.5,0.1c0.1,0.1,0.3,0.2,0.4,0.3c0.1,0.2,0.2,0.4,0.1,0.6
				c-0.2,0.4-0.4,0.9-0.7,1.5c-0.3,0.6-0.6,1.3-1,2c-0.4,0.7-0.8,1.4-1.2,2.1c-0.5,0.7-1,1.3-1.5,1.9c-0.6,0.6-1.2,1-1.9,1.4
				C100.9,80.8,100.1,81,99.3,81z M102.6,69.1c-0.2,0-0.4,0.1-0.7,0.4c-0.3,0.3-0.6,0.7-0.9,1.2c-0.3,0.5-0.6,1-0.9,1.5
				c-0.1,0.3-0.3,0.5-0.4,0.8c0.2,0,0.4-0.1,0.6-0.1c0.4-0.1,0.9-0.3,1.3-0.5c0.4-0.2,0.7-0.5,1-0.8c0.3-0.3,0.4-0.7,0.5-1.1
				c0-0.1,0-0.3,0-0.4c0-0.2,0-0.4-0.1-0.5c0-0.1-0.1-0.3-0.2-0.4C102.7,69.1,102.7,69.1,102.6,69.1z"/>
			<path class="st4" d="M102.2,66.6c0.5,0,0.9,0.1,1.2,0.3c0.3,0.2,0.5,0.5,0.7,0.9c0.2,0.4,0.2,0.8,0.2,1.2c0,0.5,0,0.9-0.1,1.4
				c-0.1,0.6-0.3,1.2-0.7,1.7c-0.4,0.5-0.8,0.9-1.4,1.2c-0.5,0.3-1.1,0.6-1.7,0.8c-0.6,0.2-1.2,0.3-1.8,0.4
				c-0.1,0.2-0.1,0.4-0.2,0.8c-0.1,0.3-0.1,0.6-0.1,1c0,0.4,0,0.7,0,1.1c0,0.4,0.1,0.7,0.2,1c0.1,0.3,0.2,0.5,0.4,0.8
				c0.2,0.2,0.5,0.3,0.8,0.4c0.1,0,0.2,0,0.3,0c0.4,0,0.8-0.1,1.1-0.3c0.5-0.3,1-0.6,1.4-1.1c0.5-0.5,0.9-1,1.3-1.6
				c0.4-0.6,0.8-1.2,1.2-1.9c0.4-0.6,0.7-1.2,1-1.8c0.3-0.6,0.5-1.1,0.7-1.6c0-0.1,0.1-0.2,0.2-0.2c0,0,0,0,0,0c0.1,0,0.2,0,0.2,0.1
				c0.1,0,0.2,0.1,0.2,0.2c0.1,0.1,0.1,0.2,0,0.3c-0.2,0.4-0.4,0.9-0.7,1.5c-0.3,0.6-0.6,1.2-0.9,1.9c-0.4,0.7-0.8,1.3-1.2,2
				s-0.9,1.3-1.5,1.8c-0.5,0.5-1.1,1-1.8,1.3c-0.6,0.3-1.3,0.5-2.1,0.5c-0.6,0-1.2-0.1-1.6-0.4c-0.5-0.2-0.8-0.6-1.1-1
				c-0.3-0.4-0.5-0.9-0.6-1.5c-0.1-0.5-0.2-1.1-0.2-1.8l0-0.2c0-0.1,0-0.2,0-0.4c0-0.1,0-0.2,0-0.4c0.1-1,0.4-2,0.8-3
				c0.4-1,0.9-1.9,1.4-2.8c0.6-0.8,1.2-1.5,1.9-2C100.7,66.9,101.4,66.6,102.2,66.6 M99.1,73.4c0.4,0,0.8-0.1,1.3-0.2
				c0.5-0.1,0.9-0.3,1.4-0.5s0.8-0.5,1.1-0.9c0.3-0.4,0.5-0.8,0.6-1.3c0-0.1,0-0.3,0-0.5c0-0.2-0.1-0.4-0.1-0.6
				c-0.1-0.2-0.2-0.4-0.3-0.5c-0.1-0.1-0.3-0.2-0.5-0.2c-0.3,0-0.6,0.2-1,0.5c-0.3,0.3-0.7,0.8-1,1.3c-0.3,0.5-0.6,1-0.9,1.5
				S99.3,73,99.1,73.4 M102.2,65.8c-0.9,0-1.9,0.3-2.7,0.9c-0.8,0.6-1.5,1.3-2.1,2.2c-0.6,0.9-1.1,1.9-1.5,2.9
				c-0.4,1-0.7,2.1-0.8,3.1c0,0.2-0.1,0.3-0.1,0.5v0.3l0,0.1l0,0l0,0c0,0.7,0.1,1.3,0.2,2c0.2,0.6,0.4,1.2,0.8,1.7
				c0.4,0.5,0.8,0.9,1.4,1.2c0.6,0.3,1.2,0.5,2,0.5c0.9,0,1.7-0.2,2.4-0.6c0.7-0.4,1.4-0.9,2-1.4c0.6-0.6,1.1-1.2,1.6-1.9
				c0.5-0.7,0.9-1.4,1.3-2.1c0.4-0.7,0.7-1.3,1-2c0.3-0.6,0.5-1.1,0.7-1.5c0.2-0.3,0.1-0.7-0.1-1c-0.1-0.2-0.3-0.3-0.5-0.4
				c-0.2-0.1-0.4-0.1-0.6-0.1h0l-0.1,0c-0.4,0-0.7,0.3-0.8,0.6c-0.2,0.4-0.4,0.9-0.7,1.5c-0.3,0.6-0.6,1.2-0.9,1.8
				c-0.3,0.6-0.7,1.2-1.1,1.8c-0.4,0.6-0.8,1.1-1.2,1.5c-0.4,0.4-0.8,0.7-1.3,0.9c-0.3,0.1-0.5,0.2-0.8,0.2c-0.1,0-0.2,0-0.2,0
				c-0.2,0-0.3-0.1-0.3-0.1c-0.1-0.1-0.2-0.3-0.3-0.5c-0.1-0.2-0.1-0.5-0.1-0.8c0-0.3,0-0.7,0-1c0-0.3,0.1-0.6,0.1-0.9
				c0-0.1,0-0.1,0-0.2c0.5-0.1,1-0.2,1.5-0.3c0.7-0.2,1.3-0.5,1.9-0.8c0.6-0.4,1.1-0.8,1.5-1.4c0.5-0.6,0.8-1.2,0.9-2
				c0.1-0.5,0.1-1,0.1-1.5c0-0.5-0.1-1-0.3-1.5c-0.2-0.5-0.5-0.9-0.9-1.2C103.5,66,102.9,65.8,102.2,65.8L102.2,65.8z M100.4,72.4
				C100.4,72.4,100.4,72.4,100.4,72.4c0.3-0.6,0.6-1.1,0.9-1.6c0.3-0.4,0.6-0.8,0.9-1.1c0.2-0.2,0.3-0.3,0.4-0.3
				c0,0,0.1,0.1,0.1,0.2c0,0.1,0.1,0.3,0.1,0.4c0,0.2,0,0.3,0,0.4c-0.1,0.3-0.2,0.6-0.4,0.9c-0.2,0.3-0.5,0.5-0.9,0.7
				C101.1,72.2,100.7,72.4,100.4,72.4L100.4,72.4z"/>
		</g>
	</g>
</g>
</svg>
