<?xml version="1.0" encoding="utf-8"?>
<!-- Generator: Adobe Illustrator 20.1.0, SVG Export Plug-In . SVG Version: 6.00 Build 0)  -->
<svg version="1.1" id="Layer_4" xmlns="http://www.w3.org/2000/svg" xmlns:xlink="http://www.w3.org/1999/xlink" x="0px" y="0px"
	 viewBox="0 0 125 143.8" style="enable-background:new 0 0 125 143.8;" xml:space="preserve">
<style type="text/css">
	.st0{fill:url(#SVGID_1_);}
	.st1{fill:#333333;}
</style>
<g id="Layer_8">
	<linearGradient id="SVGID_1_" gradientUnits="userSpaceOnUse" x1="62.0933" y1="3.7713" x2="62.0933" y2="140.3865">
		<stop  offset="0" style="stop-color:#BDFA19"/>
		<stop  offset="1" style="stop-color:#4CF208"/>
	</linearGradient>
	<polygon class="st0" points="3.1,36.4 3.1,106 62.5,140.4 121.1,106 121.1,38 62.5,3.8 	"/>
</g>
<g id="Layer_3">
	<path id="path4497_1_" class="st1" d="M124.6,108.2l0.3-71.9L62.8,0L0.3,35.5L0,107.4l62.2,36.3
		L124.6,108.2z M118.4,104.6l-56.2,32L6.2,103.9l0.3-64.7l56.2-32l55.9,32.7L118.4,104.6z"/>
</g>
<g>
	<path class="st1" d="M64.9,60l20.3-18.5h5.9v43.1l-14,15.4L78,65.8L64.9,77.7L51.7,65.9l0,23.3l-13.2,11.5V41.4h5.9L64.9,60z"/>
	<path class="st1" d="M44.4,78.2v1.6C43,79.3,41.5,79,39.9,79C33.3,79,28,83.9,28,90s5.3,11,11.9,11c6.6,0,11.9-4.9,11.9-11V79.1"/>
	<path class="st1" d="M83.8,78.2v1.6c-1.4-0.5-2.9-0.8-4.5-0.8c-6.6,0-11.9,4.9-11.9,11s5.3,11,11.9,11c6.6,0,11.9-4.9,11.9-11V79.1
		"/>
</g>
</svg>
