<?xml version="1.0" encoding="UTF-8"?>
<svg width="125px" height="187px" viewBox="0 0 125 187" version="1.1" xmlns="http://www.w3.org/2000/svg" xmlns:xlink="http://www.w3.org/1999/xlink">
    <!-- Generator: Sketch 43 (38999) - http://www.bohemiancoding.com/sketch -->
    <title>Artboard</title>
    <desc>Created with Sketch.</desc>
    <defs>
        <polygon id="path-1" points="0 143.94 124.957 143.94 124.957 0.233 0 0.233"></polygon>
    </defs>
    <g id="Page-1" stroke="none" stroke-width="1" fill="none" fill-rule="evenodd">
        <g id="Artboard">
            <text id="💖" font-family="AppleColorEmoji, Apple Color Emoji" font-size="10" font-weight="normal" fill="#FFFFFF">
                <tspan x="93" y="167">💖</tspan>
            </text>
            <g id="logo">
                <polygon id="Path-2" fill="#781D36" fill-rule="nonzero" points="3.53553589 37.980169 62.3222107 3.95807025 120.727072 38.8658987 121.825997 105.903233 62.5199009 139.939868 2.89982617 105.538863"></polygon>
                <g>
                    <polygon id="Fill-1" fill="#FFFFFF" fill-rule="nonzero" points="12.726 56.443 15.561 56.443 15.561 29.799 12.726 29.799"></polygon>
                    <path d="M16.736,58.536 C16.736,59.967 15.575,61.128 14.143,61.128 C12.712,61.128 11.551,59.967 11.551,58.536 C11.551,57.104 12.712,55.943 14.143,55.943 C15.575,55.943 16.736,57.104 16.736,58.536 Z" id="Stroke-2" stroke="#FFFFFF" stroke-width="2"></path>
                    <polygon id="Fill-3" fill="#FFFFFF" fill-rule="nonzero" points="61.382 39.64 64.217 39.64 64.217 7.421 61.382 7.421"></polygon>
                    <path d="M65.407,41.554 C65.407,42.986 64.246,44.147 62.815,44.147 C61.383,44.147 60.222,42.986 60.222,41.554 C60.222,40.123 61.383,38.962 62.815,38.962 C64.246,38.962 65.407,40.123 65.407,41.554 Z" id="Stroke-4" stroke="#FFFFFF" stroke-width="2"></path>
                    <polygon id="Fill-5" fill="#FFFFFF" fill-rule="nonzero" points="22.172 50.393 25.007 50.393 25.007 28.152 22.172 28.152"></polygon>
                    <path d="M26.181,52.411 C26.181,53.843 25.021,55.003 23.589,55.003 C22.157,55.003 20.997,53.843 20.997,52.411 C20.997,50.98 22.157,49.819 23.589,49.819 C25.021,49.819 26.181,50.98 26.181,52.411 Z" id="Stroke-6" stroke="#FFFFFF" stroke-width="2"></path>
                    <polyline id="Fill-7" fill="#FFFFFF" fill-rule="nonzero" points="28.98 26.083 30.393 23.625 35.443 26.529 35.443 29.799 28.98 26.083"></polyline>
                    <polygon id="Fill-8" fill="#FFFFFF" fill-rule="nonzero" points="32.609 43.943 35.444 43.943 35.444 27.549 32.609 27.549"></polygon>
                    <path d="M36.618,46.411 C36.618,47.843 35.458,49.003 34.026,49.003 C32.594,49.003 31.434,47.843 31.434,46.411 C31.434,44.98 32.594,43.819 34.026,43.819 C35.458,43.819 36.618,44.98 36.618,46.411 Z" id="Stroke-9" stroke="#FFFFFF" stroke-width="2"></path>
                    <polygon id="Fill-10" fill="#FFFFFF" fill-rule="nonzero" points="102.223 68.335 120.058 68.335 120.058 65.5 102.223 65.5"></polygon>
                    <path d="M99.63,69.51 C98.199,69.51 97.038,68.349 97.038,66.917 C97.038,65.486 98.199,64.325 99.63,64.325 C101.062,64.325 102.223,65.486 102.223,66.917 C102.223,68.349 101.062,69.51 99.63,69.51 Z" id="Stroke-11" stroke="#FFFFFF" stroke-width="2"></path>
                    <polygon id="Fill-12" fill="#FFFFFF" fill-rule="nonzero" points="94.491 77.422 124.058 77.422 124.058 74.587 94.491 74.587"></polygon>
                    <path d="M92.758,78.597 C91.326,78.597 90.166,77.436 90.166,76.004 C90.166,74.573 91.326,73.412 92.758,73.412 C94.19,73.412 95.35,74.573 95.35,76.004 C95.35,77.436 94.19,78.597 92.758,78.597 Z" id="Stroke-13" stroke="#FFFFFF" stroke-width="2"></path>
                    <polygon id="Fill-14" fill="#FFFFFF" fill-rule="nonzero" points="87.501 85.993 120.058 85.993 120.058 83.158 87.501 83.158"></polygon>
                    <path d="M85.63,87.168 C84.199,87.168 83.038,86.007 83.038,84.576 C83.038,83.144 84.199,81.983 85.63,81.983 C87.062,81.983 88.223,83.144 88.223,84.576 C88.223,86.007 87.062,87.168 85.63,87.168 Z" id="Stroke-15" stroke="#FFFFFF" stroke-width="2"></path>
                    <polygon id="Fill-16" fill="#FFFFFF" fill-rule="nonzero" points="89.163 111.222 113.805 111.222 113.805 108.388 89.163 108.388"></polygon>
                    <polygon id="Fill-17" fill="#FFFFFF" fill-rule="nonzero" points="73.684 132.878 76.519 132.878 76.519 111.802 73.684 111.802"></polygon>
                    <path d="M77.694,109.817 C77.694,111.249 76.533,112.41 75.101,112.41 C73.67,112.41 72.509,111.249 72.509,109.817 C72.509,108.386 73.67,107.225 75.101,107.225 C76.533,107.225 77.694,108.386 77.694,109.817 Z" id="Stroke-18" stroke="#FFFFFF" stroke-width="2"></path>
                    <polygon id="Fill-19" fill="#FFFFFF" fill-rule="nonzero" points="42.349 129.603 64.205 129.603 64.205 126.768 42.349 126.768"></polygon>
                    <polygon id="Fill-20" fill="#FFFFFF" fill-rule="nonzero" points="61.488 129.581 64.2 129.581 64.2 100.869 61.488 100.869"></polygon>
                    <path d="M65.437,98.852 C65.437,100.284 64.276,101.444 62.844,101.444 C61.413,101.444 60.252,100.284 60.252,98.852 C60.252,97.42 61.413,96.26 62.844,96.26 C64.276,96.26 65.437,97.42 65.437,98.852 Z" id="Stroke-21" stroke="#FFFFFF" stroke-width="2"></path>
                    <polygon id="Fill-22" fill="#FFFFFF" fill-rule="nonzero" points="27.079 120.241 50.926 120.241 50.926 117.406 27.079 117.406"></polygon>
                    <polygon id="Fill-23" fill="#FFFFFF" fill-rule="nonzero" points="20.248 117.194 23.083 117.194 23.083 107.275 20.248 107.275"></polygon>
                    <polygon id="Fill-24" fill="#FFFFFF" fill-rule="nonzero" points="20.247 110.11 46.59 110.11 46.59 107.275 20.247 107.275"></polygon>
                    <polygon id="Fill-25" fill="#FFFFFF" fill-rule="nonzero" points="3.113 100.055 31.785 100.055 31.785 97.22 3.113 97.22"></polygon>
                    <path d="M32.633,96.39 C33.874,95.676 35.458,96.104 36.172,97.345 C36.885,98.587 36.457,100.171 35.216,100.885 C33.975,101.598 32.39,101.17 31.677,99.929 C30.963,98.688 31.391,97.103 32.633,96.39 Z" id="Stroke-26" stroke="#FFFFFF" stroke-width="2"></path>
                    <polygon id="Fill-27" fill="#FFFFFF" fill-rule="nonzero" points="3.113 90.741 22.582 90.741 22.582 87.906 3.113 87.906"></polygon>
                    <path d="M23.791,87.076 C25.032,86.362 26.616,86.79 27.33,88.031 C28.043,89.273 27.615,90.857 26.374,91.571 C25.133,92.284 23.548,91.856 22.835,90.615 C22.121,89.374 22.549,87.789 23.791,87.076 Z M51.839,116.576 C53.08,115.862 54.665,116.29 55.378,117.531 C56.091,118.773 55.664,120.357 54.422,121.071 C53.181,121.784 51.597,121.356 50.883,120.115 C50.17,118.874 50.598,117.289 51.839,116.576 Z" id="Stroke-28" stroke="#FFFFFF" stroke-width="2"></path>
                    <polygon id="Fill-29" fill="#FFFFFF" fill-rule="nonzero" points="4.753 81.432 31.784 81.432 31.784 78.597 4.753 78.597"></polygon>
                    <path d="M32.633,77.767 C33.874,77.054 35.458,77.481 36.172,78.723 C36.885,79.964 36.457,81.549 35.216,82.262 C33.975,82.975 32.39,82.548 31.677,81.306 C30.963,80.065 31.391,78.48 32.633,77.767 Z" id="Stroke-30" stroke="#FFFFFF" stroke-width="2"></path>
                    <polygon id="Fill-31" fill="#FFFFFF" fill-rule="nonzero" points="3.128 72.061 23.399 72.061 23.399 69.226 3.128 69.226"></polygon>
                    <path d="M24.072,68.396 C25.313,67.682 26.897,68.11 27.611,69.352 C28.324,70.593 27.896,72.177 26.655,72.891 C25.414,73.604 23.829,73.176 23.116,71.935 C22.402,70.694 22.83,69.109 24.072,68.396 Z" id="Stroke-32" stroke="#FFFFFF" stroke-width="2"></path>
                    <polyline id="Fill-33" fill="#FFFFFF" fill-rule="nonzero" points="92.006 111.222 89.171 111.222 89.174 98.347 92.009 98.348 92.006 111.222"></polyline>
                    <polygon id="Fill-34" fill="#FFFFFF" fill-rule="nonzero" points="70.493 33.38 73.328 33.38 73.328 9.963 70.493 9.963"></polygon>
                    <path d="M74.517,35.612 C74.517,37.044 73.357,38.204 71.925,38.204 C70.493,38.204 69.333,37.044 69.333,35.612 C69.333,34.18 70.493,33.02 71.925,33.02 C73.357,33.02 74.517,34.18 74.517,35.612 Z" id="Stroke-35" stroke="#FFFFFF" stroke-width="2"></path>
                    <polygon id="Fill-36" fill="#FFFFFF" fill-rule="nonzero" points="52.097 33.723 54.932 33.723 54.932 9.963 52.097 9.963"></polygon>
                    <path d="M56.121,35.612 C56.121,37.044 54.961,38.204 53.529,38.204 C52.097,38.204 50.937,37.044 50.937,35.612 C50.937,34.18 52.097,33.02 53.529,33.02 C54.961,33.02 56.121,34.18 56.121,35.612 Z" id="Stroke-37" stroke="#FFFFFF" stroke-width="2"></path>
                    <polygon id="Fill-38" fill="#FFFFFF" fill-rule="nonzero" points="42.566 28.019 45.401 28.019 45.401 14.261 42.566 14.261"></polygon>
                    <path d="M46.59,30.612 C46.59,32.044 45.43,33.204 43.998,33.204 C42.566,33.204 41.406,32.044 41.406,30.612 C41.406,29.18 42.566,28.02 43.998,28.02 C45.43,28.02 46.59,29.18 46.59,30.612 Z" id="Stroke-39" stroke="#FFFFFF" stroke-width="2"></path>
                    <polygon id="Fill-40" fill="#FFFFFF" fill-rule="nonzero" points="79.566 28.792 82.401 28.792 82.401 14.261 79.566 14.261"></polygon>
                    <path d="M83.59,30.612 C83.59,32.044 82.43,33.204 80.998,33.204 C79.566,33.204 78.406,32.044 78.406,30.612 C78.406,29.18 79.566,28.02 80.998,28.02 C82.43,28.02 83.59,29.18 83.59,30.612 Z" id="Stroke-41" stroke="#FFFFFF" stroke-width="2"></path>
                    <polyline id="Fill-42" fill="#FFFFFF" fill-rule="nonzero" points="98.645 25.903 101.479 25.904 101.476 42.997 98.641 42.997 98.645 25.903"></polyline>
                    <polyline id="Fill-43" fill="#FFFFFF" fill-rule="nonzero" points="101.479 41.581 101.479 44.415 93.756 44.414 93.757 41.579 101.479 41.581"></polyline>
                    <path d="M93.048,45.245 C91.807,45.958 90.222,45.53 89.509,44.289 C88.795,43.048 89.223,41.463 90.464,40.75 C91.706,40.036 93.29,40.464 94.004,41.705 C94.717,42.947 94.289,44.531 93.048,45.245 Z" id="Stroke-44" stroke="#FFFFFF" stroke-width="2"></path>
                    <polyline id="Fill-45" fill="#FFFFFF" fill-rule="nonzero" points="106.12 47.558 108.955 47.559 108.953 55.509 106.118 55.509 106.12 47.558"></polyline>
                    <polyline id="Fill-46" fill="#FFFFFF" fill-rule="nonzero" points="108.957 54.093 108.956 56.927 101.234 56.926 101.234 54.091 108.957 54.093"></polyline>
                    <path d="M100.525,57.757 C99.284,58.47 97.7,58.042 96.986,56.801 C96.273,55.56 96.701,53.975 97.942,53.262 C99.183,52.548 100.768,52.976 101.481,54.217 C102.195,55.459 101.767,57.043 100.525,57.757 Z" id="Stroke-47" stroke="#FFFFFF" stroke-width="2"></path>
                    <polygon id="Fill-48" fill="#FFFFFF" fill-rule="nonzero" points="106.118 50.393 122.036 50.393 122.036 47.558 106.118 47.558"></polygon>
                    <polygon id="Fill-49" fill="#FFFFFF" fill-rule="nonzero" points="85.957 100.055 92.008 100.055 92.008 97.22 85.957 97.22"></polygon>
                    <path d="M81.779,99.929 C81.066,98.688 81.493,97.103 82.735,96.39 C83.976,95.676 85.561,96.104 86.274,97.345 C86.988,98.587 86.56,100.171 85.318,100.884 C84.077,101.598 82.493,101.17 81.779,99.929 Z" id="Stroke-50" stroke="#FFFFFF" stroke-width="2"></path>
                    <polygon id="Fill-51" fill="#FFFFFF" fill-rule="nonzero" points="106.581 97.462 119.537 97.462 119.537 94.627 106.581 94.627"></polygon>
                    <path d="M102.172,97.336 C101.458,96.095 101.886,94.51 103.127,93.797 C104.369,93.083 105.953,93.511 106.667,94.753 C107.38,95.994 106.952,97.579 105.711,98.292 C104.47,99.005 102.885,98.577 102.172,97.336 Z" id="Stroke-52" stroke="#FFFFFF" stroke-width="2"></path>
                    <polygon id="Fill-53" fill="#FFFFFF" fill-rule="nonzero" points="44.501 110.11 47.336 110.11 47.336 89.641 44.501 89.641"></polygon>
                    <path d="M48.51,87.049 C48.51,88.48 47.35,89.641 45.918,89.641 C44.486,89.641 43.326,88.48 43.326,87.049 C43.326,85.617 44.486,84.456 45.918,84.456 C47.35,84.456 48.51,85.617 48.51,87.049 Z" id="Stroke-54" stroke="#FFFFFF" stroke-width="2"></path>
                    <g id="Group-57">
                        <g id="Fill-55-Clipped">
                            <g>
                                <mask id="mask-2" fill="white">
                                    <use xlink:href="#path-1"></use>
                                </mask>
                                <g id="path-1"></g>
                                <path d="M118.423,104.817 L62.191,136.812 L6.248,104.112 L6.535,39.415 L62.766,7.421 L118.709,40.121 L118.423,104.817 Z M124.639,108.45 L124.957,36.567 L62.797,0.233 L0.319,35.782 L0,107.666 L62.16,144 L124.639,108.45 L124.639,108.45 Z" id="Fill-55" fill="#FFFFFF" fill-rule="nonzero" mask="url(#mask-2)"></path>
                            </g>
                        </g>
                    </g>
                    <path d="M51.827,49.303 C45.853,49.28 40.192,53.771 40.192,60.739 C40.192,74.492 53.368,75.951 62.815,90.122 C72.261,75.951 85.437,74.491 85.437,60.739 C85.437,49.004 69.382,44.294 62.815,56.344 C60.147,51.448 55.913,49.321 51.827,49.304 L51.827,49.303" id="Fill-58" fill="#FFFFFF" fill-rule="nonzero"></path>
                </g>
            </g>
            <path d="M21.3525597,162.567213 L21.7975954,162.567213 C22.2135459,162.567213 22.524777,162.481303 22.7312979,162.30948 C22.9378188,162.137656 23.0410777,161.887528 23.0410777,161.559088 C23.0410777,161.227606 22.9545438,160.982799 22.7814735,160.824661 C22.6084032,160.666523 22.3371667,160.587455 21.9677561,160.587455 L21.3525597,160.587455 L21.3525597,162.567213 Z M24.4067266,161.508909 C24.4067266,162.226613 24.1922099,162.775527 23.76317,163.155666 C23.3341301,163.535806 22.72403,163.725873 21.9328514,163.725873 L21.3525597,163.725873 L21.3525597,166.097933 L20,166.097933 L20,159.428795 L22.0375657,159.428795 C22.8112918,159.428795 23.3995767,159.602897 23.8024379,159.951105 C24.205299,160.299313 24.4067266,160.818576 24.4067266,161.508909 Z M28.2287984,160.902209 C28.4091406,160.902209 28.5589387,160.915894 28.6781972,160.943264 L28.577846,162.247897 C28.4702225,162.217486 28.3393309,162.202281 28.1851674,162.202281 C27.7604907,162.202281 27.4296259,162.316321 27.1925632,162.544405 C26.9555005,162.772489 26.8369709,163.091801 26.8369709,163.502352 L26.8369709,166.097933 L25.5062267,166.097933 L25.5062267,160.998004 L26.5141018,160.998004 L26.7104411,161.855595 L26.7758875,161.855595 C26.9271423,161.56973 27.1314786,161.339369 27.3889025,161.164505 C27.6463264,160.98964 27.9262889,160.902209 28.2287984,160.902209 Z M31.405132,161.892088 C31.1229838,161.892088 30.9019225,161.985601 30.7419415,162.17263 C30.5819605,162.359659 30.4903364,162.624992 30.4670665,162.968638 L32.3344714,162.968638 C32.3286539,162.624992 32.2428472,162.359659 32.0770488,162.17263 C31.9112503,161.985601 31.6872803,161.892088 31.405132,161.892088 Z M31.5927451,166.189166 C30.807384,166.189166 30.193648,165.962606 29.7515188,165.509479 C29.3093895,165.056353 29.0883282,164.414687 29.0883282,163.584462 C29.0883282,162.729908 29.2926645,162.069235 29.7013432,161.602423 C30.1100218,161.135612 30.6750371,160.902209 31.3964058,160.902209 C32.0857784,160.902209 32.6224338,161.107482 33.0063881,161.518033 C33.3903425,161.928584 33.5823168,162.495743 33.5823168,163.219529 L33.5823168,163.894654 L30.4365248,163.894654 C30.4510685,164.289999 30.5630535,164.598668 30.7724832,164.82067 C30.9819128,165.042671 31.2756916,165.15367 31.6538285,165.15367 C31.9476117,165.15367 32.2253927,165.121739 32.4871797,165.057876 C32.7489668,164.994012 33.0223847,164.892136 33.3074417,164.752245 L33.3074417,165.828795 C33.0747421,165.95044 32.8260482,166.040912 32.5613524,166.100214 C32.2966566,166.159515 31.9737907,166.189166 31.5927451,166.189166 Z M38.0675791,164.583464 C38.0675791,165.106536 37.8937842,165.504916 37.5461892,165.778617 C37.1985941,166.052318 36.6786638,166.189166 35.9863825,166.189166 C35.6315156,166.189166 35.3290106,166.164077 35.0788586,166.113899 C34.8287065,166.06372 34.594556,165.989974 34.3764002,165.892658 L34.3764002,164.743122 C34.6236435,164.864766 34.9021516,164.966642 35.211933,165.048752 C35.5217143,165.130863 35.7944051,165.171917 36.0300134,165.171917 C36.5128651,165.171917 36.7542873,165.025946 36.7542873,164.733998 C36.7542873,164.624518 36.7222916,164.535567 36.6582992,164.467142 C36.5943068,164.398717 36.4837761,164.321169 36.3267039,164.234497 C36.1696317,164.147825 35.9602052,164.04671 35.6984181,163.931147 C35.32319,163.766927 35.0475906,163.614873 34.8716115,163.474982 C34.6956324,163.335091 34.5676496,163.174674 34.4876591,162.993728 C34.4076686,162.812781 34.367674,162.590023 34.367674,162.325445 C34.367674,161.872319 34.5356515,161.521835 34.8716115,161.273984 C35.2075716,161.026133 35.6838714,160.902209 36.3005253,160.902209 C36.8880918,160.902209 37.4596516,161.036017 38.0152219,161.303635 L37.6138171,162.307199 C37.3694826,162.197719 37.1411495,162.108007 36.9288111,162.038061 C36.7164727,161.968115 36.4997745,161.933143 36.2787099,161.933143 C35.8860293,161.933143 35.689692,162.044142 35.689692,162.266144 C35.689692,162.39083 35.7529562,162.498788 35.8794866,162.590021 C36.006017,162.681255 36.2830708,162.816582 36.7106563,162.996008 C37.0917019,163.157188 37.3709373,163.307721 37.5483707,163.447612 C37.7258041,163.587504 37.8566957,163.74868 37.9410493,163.931147 C38.0254029,164.113614 38.0675791,164.331051 38.0675791,164.583464 Z M41.1261091,161.892088 C40.8439609,161.892088 40.6228996,161.985601 40.4629186,162.17263 C40.3029376,162.359659 40.2113135,162.624992 40.1880436,162.968638 L42.0554485,162.968638 C42.049631,162.624992 41.9638243,162.359659 41.7980259,162.17263 C41.6322274,161.985601 41.4082574,161.892088 41.1261091,161.892088 Z M41.3137222,166.189166 C40.5283611,166.189166 39.9146251,165.962606 39.4724959,165.509479 C39.0303666,165.056353 38.8093053,164.414687 38.8093053,163.584462 C38.8093053,162.729908 39.0136416,162.069235 39.4223203,161.602423 C39.830999,161.135612 40.3960142,160.902209 41.1173829,160.902209 C41.8067555,160.902209 42.3434109,161.107482 42.7273652,161.518033 C43.1113196,161.928584 43.3032939,162.495743 43.3032939,163.219529 L43.3032939,163.894654 L40.1575019,163.894654 C40.1720456,164.289999 40.2840306,164.598668 40.4934603,164.82067 C40.7028899,165.042671 40.9966687,165.15367 41.3748056,165.15367 C41.6685888,165.15367 41.9463698,165.121739 42.2081569,165.057876 C42.4699439,164.994012 42.7433618,164.892136 43.0284188,164.752245 L43.0284188,165.828795 C42.7957192,165.95044 42.5470253,166.040912 42.2823295,166.100214 C42.0176337,166.159515 41.6947678,166.189166 41.3137222,166.189166 Z M48.8880563,166.097933 L47.5573121,166.097933 L47.5573121,163.119173 C47.5573121,162.751198 47.494775,162.475221 47.369699,162.291233 C47.244623,162.107245 47.0453769,162.015253 46.7719549,162.015253 C46.3996355,162.015253 46.1305807,162.145259 45.9647822,162.405274 C45.7989837,162.66529 45.7160858,163.096362 45.7160858,163.698503 L45.7160858,166.097933 L44.3853416,166.097933 L44.3853416,160.998004 L45.4019429,160.998004 L45.5808298,161.650321 L45.6550024,161.650321 C45.8033484,161.40399 46.0076847,161.217724 46.2680174,161.091518 C46.52835,160.965312 46.8243104,160.902209 47.1559073,160.902209 C47.7231126,160.902209 48.1536004,161.062626 48.4473836,161.383464 C48.7411669,161.704302 48.8880563,162.167305 48.8880563,162.772487 L48.8880563,166.097933 Z M52.3130864,165.080684 C52.545786,165.080684 52.8250213,165.027465 53.1508007,164.921026 L53.1508007,165.956521 C52.8192038,166.111618 52.4119856,166.189166 51.929134,166.189166 C51.3968336,166.189166 51.0092492,166.048516 50.766369,165.767213 C50.5234888,165.48591 50.4020505,165.063961 50.4020505,164.501354 L50.4020505,162.042623 L49.7650385,162.042623 L49.7650385,161.45417 L50.4980386,160.988881 L50.881991,159.912331 L51.7327947,159.912331 L51.7327947,160.998004 L53.0984436,160.998004 L53.0984436,162.042623 L51.7327947,162.042623 L51.7327947,164.501354 C51.7327947,164.699027 51.7858785,164.844998 51.8920476,164.939273 C51.9982168,165.033547 52.1385617,165.080684 52.3130864,165.080684 Z M56.1569736,161.892088 C55.8748254,161.892088 55.6537641,161.985601 55.4937831,162.17263 C55.3338021,162.359659 55.242178,162.624992 55.2189081,162.968638 L57.086313,162.968638 C57.0804955,162.624992 56.9946888,162.359659 56.8288904,162.17263 C56.6630919,161.985601 56.4391219,161.892088 56.1569736,161.892088 Z M56.3445868,166.189166 C55.5592256,166.189166 54.9454896,165.962606 54.5033604,165.509479 C54.0612312,165.056353 53.8401699,164.414687 53.8401699,163.584462 C53.8401699,162.729908 54.0445061,162.069235 54.4531848,161.602423 C54.8618635,161.135612 55.4268787,160.902209 56.1482475,160.902209 C56.83762,160.902209 57.3742754,161.107482 57.7582297,161.518033 C58.1421841,161.928584 58.3341584,162.495743 58.3341584,163.219529 L58.3341584,163.894654 L55.1883664,163.894654 C55.2029101,164.289999 55.3148951,164.598668 55.5243248,164.82067 C55.7337544,165.042671 56.0275332,165.15367 56.4056701,165.15367 C56.6994533,165.15367 56.9772343,165.121739 57.2390214,165.057876 C57.5008084,164.994012 57.7742263,164.892136 58.0592833,164.752245 L58.0592833,165.828795 C57.8265837,165.95044 57.5778898,166.040912 57.313194,166.100214 C57.0484982,166.159515 56.7256323,166.189166 56.3445868,166.189166 Z M60.960742,166.189166 C60.3877192,166.189166 59.9375977,165.956524 59.6103639,165.491233 C59.28313,165.025942 59.1195156,164.381235 59.1195156,163.557092 C59.1195156,162.720784 59.2860387,162.069235 59.61909,161.602423 C59.9521413,161.135612 60.410989,160.902209 60.9956467,160.902209 C61.6093919,160.902209 62.0776928,161.151577 62.4005635,161.650321 L62.4441945,161.650321 C62.3772933,161.270181 62.3438433,160.931101 62.3438433,160.633072 L62.3438433,159 L63.6789505,159 L63.6789505,166.097933 L62.6579862,166.097933 L62.4005635,165.436493 L62.3438433,165.436493 C62.0413338,165.938277 61.5803046,166.189166 60.960742,166.189166 Z M61.4275932,165.080684 C61.7679164,165.080684 62.0173375,164.977288 62.1758641,164.770492 C62.3343907,164.563696 62.4209246,164.212452 62.4354683,163.71675 L62.4354683,163.566215 C62.4354683,163.018814 62.3547518,162.626516 62.1933165,162.389309 C62.0318811,162.152101 61.7693708,162.0335 61.4057777,162.0335 C61.1090857,162.0335 60.8785711,162.165026 60.714227,162.428083 C60.549883,162.691139 60.4677121,163.073554 60.4677121,163.575338 C60.4677121,164.077123 60.5506101,164.453455 60.7164086,164.704348 C60.8822071,164.95524 61.1192662,165.080684 61.4275932,165.080684 Z M71.4016298,166.097933 L71.0264036,164.314326 L70.5202845,162.060869 L70.4897429,162.060869 L69.5996713,166.097933 L68.168576,166.097933 L66.7811116,160.998004 L68.1074926,160.998004 L68.670332,163.256023 C68.7605031,163.660491 68.8521272,164.218528 68.945207,164.930149 L68.9713856,164.930149 C68.9830205,164.699025 69.0339228,164.332575 69.1240939,163.830791 L69.1939034,163.44305 L69.7960106,160.998004 L71.2620108,160.998004 L71.8335763,163.44305 C71.8452113,163.509955 71.8633907,163.60879 71.888115,163.739558 C71.9128393,163.870326 71.9368361,164.009455 71.9601061,164.156949 C71.983376,164.304443 72.0044641,164.448894 72.023371,164.590306 C72.0422778,164.731718 72.0531854,164.844998 72.0560942,164.930149 L72.0822728,164.930149 C72.1084515,164.711189 72.1549907,164.410883 72.2218918,164.029223 C72.288793,163.647563 72.3367865,163.389832 72.365874,163.256023 L72.9505288,160.998004 L74.2550944,160.998004 L72.8501776,166.097933 L71.4016298,166.097933 Z M74.9837314,159.679686 C74.9837314,159.22656 75.2251536,159 75.7080052,159 C76.1908569,159 76.4322791,159.22656 76.4322791,159.679686 C76.4322791,159.895606 76.3719236,160.063625 76.2512107,160.183749 C76.1304977,160.303873 75.9494311,160.363934 75.7080052,160.363934 C75.2251536,160.363934 74.9837314,160.135854 74.9837314,159.679686 Z M76.3711958,166.097933 L75.0404516,166.097933 L75.0404516,160.998004 L76.3711958,160.998004 L76.3711958,166.097933 Z M79.8224044,165.080684 C80.055104,165.080684 80.3343394,165.027465 80.6601188,164.921026 L80.6601188,165.956521 C80.3285219,166.111618 79.9213037,166.189166 79.438452,166.189166 C78.9061517,166.189166 78.5185672,166.048516 78.275687,165.767213 C78.0328068,165.48591 77.9113686,165.063961 77.9113686,164.501354 L77.9113686,162.042623 L77.2743566,162.042623 L77.2743566,161.45417 L78.0073567,160.988881 L78.3913091,159.912331 L79.2421127,159.912331 L79.2421127,160.998004 L80.6077617,160.998004 L80.6077617,162.042623 L79.2421127,162.042623 L79.2421127,164.501354 C79.2421127,164.699027 79.2951965,164.844998 79.4013657,164.939273 C79.5075349,165.033547 79.6478797,165.080684 79.8224044,165.080684 Z M86.1488931,166.097933 L84.818149,166.097933 L84.818149,163.119173 C84.818149,162.383223 84.5563658,162.015253 84.0327917,162.015253 C83.6604724,162.015253 83.3914175,162.14754 83.2256191,162.412117 C83.0598206,162.676694 82.9769226,163.105485 82.9769226,163.698503 L82.9769226,166.097933 L81.6461784,166.097933 L81.6461784,159 L82.9769226,159 L82.9769226,160.446044 C82.9769226,160.558565 82.9667421,160.823139 82.9463809,161.239772 L82.9158393,161.650321 L82.9856488,161.650321 C83.2823408,161.151577 83.7535504,160.902209 84.3992918,160.902209 C84.9723145,160.902209 85.4071654,161.063386 85.7038574,161.385745 C86.0005494,161.708103 86.1488931,162.170346 86.1488931,162.772487 L86.1488931,166.097933 Z" id="Presented-with" fill="#FFFFFF"></path>
            <path d="M38.7138455,178.902209 C39.289777,178.902209 39.7406257,179.137132 40.0664051,179.606985 C40.3921846,180.076838 40.5550719,180.720785 40.5550719,181.538845 C40.5550719,182.381235 40.3870944,183.033545 40.0511343,183.495794 C39.7151743,183.958044 39.257781,184.189166 38.6789407,184.189166 C38.105918,184.189166 37.6565236,183.971729 37.3307442,183.536849 L37.2391192,183.536849 L37.0166013,184.097933 L36,184.097933 L36,177 L37.3307442,177 L37.3307442,178.651319 C37.3307442,178.861156 37.313292,179.197194 37.278387,179.659444 L37.3307442,179.659444 C37.6419799,179.154618 38.103009,178.902209 38.7138455,178.902209 Z M38.2862621,180.015253 C37.9575739,180.015253 37.7176061,180.12093 37.5663513,180.332288 C37.4150966,180.543646 37.3365617,180.892609 37.3307442,181.379187 L37.3307442,181.529722 C37.3307442,182.077123 37.4085519,182.469421 37.5641698,182.706628 C37.7197876,182.943836 37.9663001,183.062437 38.3037145,183.062437 C38.5771365,183.062437 38.794562,182.930911 38.9559973,182.667854 C39.1174326,182.404798 39.1981491,182.022383 39.1981491,181.520599 C39.1981491,181.018814 39.1167055,180.642482 38.9538158,180.391589 C38.790926,180.140697 38.5684104,180.015253 38.2862621,180.015253 Z M40.7775897,178.998004 L42.2348637,178.998004 L43.1554769,181.867284 C43.234013,182.116656 43.287824,182.41164 43.3169114,182.752245 L43.34309,182.752245 C43.3750862,182.43901 43.4376233,182.144026 43.5307031,181.867284 L44.4338639,178.998004 L45.8605962,178.998004 L43.7968519,184.750249 C43.6077835,185.282445 43.3380015,185.680825 42.9874977,185.945402 C42.6369939,186.20998 42.2275942,186.342266 41.7592863,186.342266 C41.5294954,186.342266 41.304071,186.316417 41.0830064,186.264718 L41.0830064,185.160798 C41.2429874,185.200333 41.4175095,185.220099 41.6065779,185.220099 C41.8421863,185.220099 42.0479769,185.144833 42.2239559,184.994298 C42.399935,184.843762 42.5373712,184.616442 42.6362685,184.31233 L42.7148042,184.06144 L40.7775897,178.998004 Z" id="by" fill="#FFFFFF"></path>
            <g id="GitHub_Logo" transform="translate(51.000000, 175.000000)" fill="#FFFFFF">
                <path d="M7.65957735,4.66845717 L4.42278806,4.66845717 C4.33926699,4.66845717 4.27157321,4.73660229 4.27157321,4.82054761 L4.27157321,6.41110187 C4.27157321,6.49504719 4.33926699,6.56340728 4.42278806,6.56340728 L5.68544281,6.56340728 L5.68544281,8.53950811 C5.68544281,8.53950811 5.40194169,8.63667401 4.61806269,8.63667401 C3.69334214,8.63667401 2.40149246,8.29702328 2.40149246,5.44191497 C2.40149246,2.58605426 3.7467058,2.21039626 5.00957443,2.21039626 C6.10283431,2.21039626 6.57369641,2.40376071 6.87345259,2.49705717 C6.96766779,2.52607796 7.05471792,2.43181414 7.05471792,2.34776133 L7.41575141,0.811056757 C7.41575141,0.771609979 7.4024907,0.724424324 7.35800316,0.692286486 C7.23630408,0.605009148 6.49381133,0.187432225 4.61806269,0.187432225 C2.45731576,0.187432225 0.240745522,1.11136819 0.240745522,5.55326881 C0.240745522,9.99516944 2.77846018,10.6570584 4.91696335,10.6570584 C6.68758879,10.6570584 7.76170619,9.89660624 7.76170619,9.89660624 C7.80597985,9.87199231 7.8107922,9.80975884 7.8107922,9.78138295 L7.8107922,4.82054761 C7.8107922,4.73660229 7.74309842,4.66845717 7.65957735,4.66845717" id="Fill-3"></path>
                <path d="M24.3406934,0.71969501 C24.3406934,0.634997297 24.2739621,0.566744699 24.1903341,0.566744699 L22.3678421,0.566744699 C22.2846419,0.566744699 22.2169481,0.634997297 22.2169481,0.71969501 C22.2169481,0.720017464 22.2174828,4.25958649 22.2174828,4.25958649 L19.3765899,4.25958649 L19.3765899,0.71969501 C19.3765899,0.634997297 19.3096447,0.566744699 19.2262305,0.566744699 L17.4038456,0.566744699 C17.3209661,0.566744699 17.2532723,0.634997297 17.2532723,0.71969501 L17.2532723,10.304832 C17.2532723,10.3894222 17.3209661,10.4581048 17.4038456,10.4581048 L19.2262305,10.4581048 C19.3096447,10.4581048 19.3765899,10.3894222 19.3765899,10.304832 L19.3765899,6.20483929 L22.2174828,6.20483929 C22.2174828,6.20483929 22.2124566,10.3045096 22.2124566,10.304832 C22.2124566,10.3894222 22.2800434,10.4581048 22.3634576,10.4581048 L24.1902271,10.4581048 C24.2737482,10.4581048 24.3404795,10.3894222 24.3406934,10.304832 L24.3406934,0.71969501" id="Fill-4"></path>
                <path d="M11.0986994,1.97737006 C11.0986994,1.31784574 10.5726556,0.784830561 9.92352254,0.784830561 C9.2750311,0.784830561 8.74845264,1.31784574 8.74845264,1.97737006 C8.74845264,2.63635696 9.2750311,3.17087692 9.92352254,3.17087692 C10.5726556,3.17087692 11.0986994,2.63635696 11.0986994,1.97737006" id="Fill-5"></path>
                <path d="M10.968445,8.28283534 L10.968445,3.85834719 C10.968445,3.77429439 10.9009651,3.70561185 10.8176579,3.70561185 L9.00083387,3.70561185 C8.91752667,3.70561185 8.84298866,3.79202931 8.84298866,3.87597464 L8.84298866,10.2150825 C8.84298866,10.401353 8.95848515,10.456815 9.10788201,10.456815 L10.744724,10.456815 C10.9243852,10.456815 10.968445,10.3681403 10.968445,10.212073 L10.968445,8.28283534" id="Fill-6"></path>
                <path d="M31.266954,3.72001476 L29.4584714,3.72001476 C29.375592,3.72001476 29.3080052,3.78880478 29.3080052,3.87339501 L29.3080052,8.57315073 C29.3080052,8.57315073 28.8484788,8.9110817 28.1963514,8.9110817 C27.5443309,8.9110817 27.3713,8.61367235 27.3713,7.97199044 L27.3713,3.87339501 C27.3713,3.78880478 27.3039271,3.72001476 27.2208338,3.72001476 L25.385295,3.72001476 C25.3025225,3.72001476 25.2346149,3.78880478 25.2346149,3.87339501 L25.2346149,8.28219044 C25.2346149,10.1885339 26.2916217,10.6549087 27.7457012,10.6549087 C28.9387372,10.6549087 29.9005663,9.99237484 29.9005663,9.99237484 C29.9005663,9.99237484 29.9463372,10.3415917 29.9670838,10.3828657 C29.9877234,10.4241397 30.0417287,10.4659511 30.1001186,10.4659511 L31.2678096,10.4606844 C31.3505821,10.4606844 31.4184897,10.3918944 31.4184897,10.3076266 L31.4178481,3.87339501 C31.4178481,3.78880478 31.3503682,3.72001476 31.266954,3.72001476" id="Fill-7"></path>
                <path d="M35.4966924,8.90527755 C34.8693753,8.88614532 34.4438563,8.59991435 34.4438563,8.59991435 L34.4438563,5.56455468 C34.4438563,5.56455468 34.8636005,5.30594719 35.3786293,5.2597289 C36.0299012,5.20104241 36.6574321,5.39881372 36.6574321,6.96034719 C36.6574321,8.60690083 36.3742518,8.9318262 35.4966924,8.90527755 Z M36.2099902,3.50472349 C35.1828199,3.50472349 34.4841731,3.96529418 34.4841731,3.96529418 L34.4841731,0.71969501 C34.4841731,0.634997297 34.4168001,0.566744699 34.3338138,0.566744699 L32.5060817,0.566744699 C32.4229884,0.566744699 32.3555085,0.634997297 32.3555085,0.71969501 L32.3555085,10.304832 C32.3555085,10.3894222 32.4229884,10.4581048 32.5062956,10.4581048 L33.7744044,10.4581048 C33.831511,10.4581048 33.8747152,10.4285466 33.9066906,10.3768466 C33.9382383,10.3252541 33.9836883,9.9347632 33.9836883,9.9347632 C33.9836883,9.9347632 34.7309934,10.6466324 36.1457185,10.6466324 C37.8067292,10.6466324 38.7592545,9.79987027 38.7592545,6.84533888 C38.7592545,3.89080748 37.237909,3.50472349 36.2099902,3.50472349 L36.2099902,3.50472349 Z" id="Fill-8"></path>
                <path d="M16.2064249,3.70475198 L14.8392886,3.70475198 C14.8392886,3.70475198 14.8372568,1.88998524 14.8372568,1.8895553 C14.8372568,1.82076528 14.8019662,1.78647775 14.7229366,1.78647775 L12.8600209,1.78647775 C12.7875148,1.78647775 12.7486951,1.81850811 12.7486951,1.88848046 L12.7486951,3.76429834 C12.7486951,3.76429834 11.8150985,3.99087547 11.7518962,4.00904033 C11.6891217,4.02742017 11.6428162,4.08567672 11.6428162,4.15521913 L11.6428162,5.33400062 C11.6428162,5.41880582 11.7101892,5.4871659 11.7934963,5.4871659 L12.7486951,5.4871659 L12.7486951,8.32303451 C12.7486951,10.4294064 14.2187089,10.6363139 15.2105885,10.6363139 C15.6639122,10.6363139 16.2061041,10.4899202 16.2956139,10.456815 C16.3497261,10.4367154 16.3811669,10.3803936 16.3811669,10.3192349 L16.382771,9.02254304 C16.382771,8.93806029 16.3116551,8.86948524 16.2316631,8.86948524 C16.1518849,8.86948524 15.9481619,8.9021605 15.7383433,8.9021605 C15.0667526,8.9021605 14.8392886,8.58830603 14.8392886,8.18212245 C14.8392886,7.77615385 14.8391817,5.4871659 14.8391817,5.4871659 L16.2064249,5.4871659 C16.2897321,5.4871659 16.357212,5.41880582 16.357212,5.33400062 L16.357212,3.85748732 C16.357212,3.77289709 16.2897321,3.70475198 16.2064249,3.70475198" id="Fill-9"></path>
            </g>
        </g>
    </g>
</svg>