<?xml version="1.0" encoding="UTF-8"?>
<svg width="126px" height="144px" viewBox="0 0 126 144" version="1.1" xmlns="http://www.w3.org/2000/svg" xmlns:xlink="http://www.w3.org/1999/xlink">
    <!-- Generator: Sketch 43 (38999) - http://www.bohemiancoding.com/sketch -->
    <title>logo-main</title>
    <desc>Created with Sketch.</desc>
    <defs></defs>
    <g id="Page-1" stroke="none" stroke-width="1" fill="none" fill-rule="evenodd">
        <g id="logo-main">
            <g id="Layer_5" transform="translate(3.000000, 3.000000)" fill-rule="nonzero" fill="#000000">
                <g id="Layer_6">
                    <polygon id="Shape" points="0.9 33.4 0.9 103 60.3 137.4 118.8 103 118.8 35 60.3 0.8"></polygon>
                </g>
            </g>
            <g id="svg3686" transform="translate(3.000000, 10.000000)" fill-rule="nonzero">
                <rect id="rect4518_32_" fill="#BD901E" x="13.5" y="19.6" width="2.8" height="18.7"></rect>
                <ellipse id="Oval" stroke="#BD901E" stroke-width="2" fill="#000000" cx="14.9" cy="36.3" rx="2.6" ry="2.6"></ellipse>
                <rect id="rect4518_1_" fill="#BD901E" transform="translate(69.666989, 12.842280) rotate(-60.099484) translate(-69.666989, -12.842280) " x="68.2669888" y="-9.75771977" width="2.8" height="45.2"></rect>
                <ellipse id="Oval" stroke="#BD901E" stroke-width="2" fill="#000000" cx="89.1" cy="24.5" rx="2.6" ry="2.6"></ellipse>
                <rect id="rect4518_2_" fill="#BD901E" transform="translate(55.978337, 15.048120) rotate(-60.099484) translate(-55.978337, -15.048120) " x="54.5783366" y="-5.25187953" width="2.8" height="40.6"></rect>
                <ellipse id="Oval" stroke="#BD901E" stroke-width="2" fill="#000000" cx="71.9" cy="24.5" rx="2.6" ry="2.6"></ellipse>
                <rect id="rect4518_3_" fill="#BD901E" transform="translate(45.996685, 19.293359) rotate(-60.099484) translate(-45.996685, -19.293359) " x="44.5966852" y="2.04335905" width="2.8" height="34.5"></rect>
                <rect id="rect4518_4_" fill="#BD901E" x="58.9" y="26.7" width="2.8" height="8.6"></rect>
                <rect id="rect4518_5_" fill="#BD901E" x="43.3" y="32.5" width="18.4" height="2.8"></rect>
                <ellipse id="Oval" stroke="#BD901E" stroke-width="2" fill="#000000" cx="41.6" cy="33.7" rx="2.6" ry="2.6"></ellipse>
                <rect id="rect4518_7_" fill="#BD901E" x="21.9" y="14.9" width="2.8" height="23.3"></rect>
                <ellipse id="Oval" stroke="#BD901E" stroke-width="2" fill="#000000" cx="23.3" cy="36.2" rx="2.6" ry="2.6"></ellipse>
                <polygon id="rect4518_11_" fill="#BD901E" points="26.7 15.8 28.1 13.4 33.2 16.3 33.2 19.6"></polygon>
                <rect id="rect4518_10_" fill="#BD901E" x="30.4" y="17.3" width="2.8" height="16.4"></rect>
                <ellipse id="Oval" stroke="#BD901E" stroke-width="2" fill="#000000" cx="31.8" cy="36.2" rx="2.6" ry="2.6"></ellipse>
                <rect id="rect4518_12_" fill="#BD901E" x="83.5" y="32.2" width="35.3" height="2.8"></rect>
                <ellipse id="Oval" stroke="#BD901E" stroke-width="2" fill="#000000" cx="81.6" cy="33.6" rx="2.6" ry="2.6"></ellipse>
                <rect id="rect4518_13_" fill="#BD901E" x="98.3" y="55.3" width="19.5" height="2.8"></rect>
                <ellipse id="Oval" stroke="#BD901E" stroke-width="2" fill="#000000" cx="97.4" cy="56.7" rx="2.6" ry="2.6"></ellipse>
                <rect id="rect4518_15_" fill="#BD901E" x="88.1" y="64.4" width="33.7" height="2.8"></rect>
                <ellipse id="Oval" stroke="#BD901E" stroke-width="2" fill="#000000" cx="86.5" cy="65.8" rx="2.6" ry="2.6"></ellipse>
                <rect id="rect4518_14_" fill="#BD901E" x="98.3" y="72.9" width="19.5" height="2.8"></rect>
                <ellipse id="Oval" stroke="#BD901E" stroke-width="2" fill="#000000" cx="97.4" cy="74.3" rx="2.6" ry="2.6"></ellipse>
                <rect id="rect4518_18_" fill="#BD901E" x="100.3" y="90.2" width="17.1" height="2.8"></rect>
                <rect id="rect4518_8_" fill="#BD901E" x="86.9" y="98.2" width="24.6" height="2.8"></rect>
                <ellipse id="Oval" stroke="#BD901E" stroke-width="2" fill="#000000" cx="86.3" cy="99.6" rx="2.6" ry="2.6"></ellipse>
                <rect id="rect4518_16_" fill="#BD901E" x="74.4" y="101" width="2.8" height="21.7"></rect>
                <ellipse id="Oval" stroke="#BD901E" stroke-width="2" fill="#000000" cx="75.9" cy="99.6" rx="2.6" ry="2.6"></ellipse>
                <rect id="rect4518_20_" fill="#BD901E" x="40.1" y="116.5" width="25.2" height="2.8"></rect>
                <rect id="rect4518_19_" fill="#BD901E" x="64.4" y="89.4" width="2.7" height="30"></rect>
                <ellipse id="Oval" stroke="#BD901E" stroke-width="2.00007513" fill="#000000" transform="translate(65.709233, 92.418324) rotate(-38.402112) translate(-65.709233, -92.418324) " cx="65.7092327" cy="92.4183241" rx="2.6" ry="2.6"></ellipse>
                <rect id="rect4518_55_" fill="#BD901E" x="24.8" y="107.2" width="16.9" height="2.8"></rect>
                <rect id="rect4518_54_" fill="#BD901E" x="18" y="97" width="2.8" height="9.9"></rect>
                <rect id="rect4518_21_" fill="#BD901E" x="18" y="97" width="20.9" height="2.8"></rect>
                <ellipse id="Oval" stroke="#BD901E" stroke-width="2.00007513" fill="#000000" transform="translate(41.631083, 98.493914) rotate(-38.402112) translate(-41.631083, -98.493914) " cx="41.6310827" cy="98.4939141" rx="2.6" ry="2.6"></ellipse>
                <rect id="rect4518_56_" fill="#BD901E" x="0.9" y="87" width="31" height="2.8"></rect>
                <ellipse id="Oval" stroke="#BD901E" stroke-width="1.99999189" fill="#000000" transform="translate(31.693834, 88.389794) rotate(-29.887726) translate(-31.693834, -88.389794) " cx="31.6938343" cy="88.3897939" rx="2.6" ry="2.6"></ellipse>
                <rect id="rect4518_58_" fill="#BD901E" x="0.9" y="77.7" width="19.5" height="2.8"></rect>
                <ellipse id="Oval" stroke="#BD901E" stroke-width="1.99999189" fill="#000000" transform="translate(22.808644, 79.116764) rotate(-29.887726) translate(-22.808644, -79.116764) " cx="22.8086443" cy="79.1167639" rx="2.6" ry="2.6"></ellipse>
                <rect id="rect4518_59_" fill="#BD901E" x="40.6" y="107.2" width="11.3" height="2.8"></rect>
                <ellipse id="Oval" stroke="#BD901E" stroke-width="1.99999189" fill="#000000" transform="translate(50.901495, 108.591334) rotate(-29.887726) translate(-50.901495, -108.591334) " cx="50.9014946" cy="108.591334" rx="2.6" ry="2.6"></ellipse>
                <rect id="rect4518_60_" fill="#BD901E" x="2.5" y="68.4" width="28.4" height="2.8"></rect>
                <ellipse id="Oval" stroke="#BD901E" stroke-width="1.99999189" fill="#000000" transform="translate(31.705354, 69.786794) rotate(-29.887726) translate(-31.705354, -69.786794) " cx="31.7053543" cy="69.7867939" rx="2.6" ry="2.6"></ellipse>
                <rect id="rect4518_61_" fill="#BD901E" x="0.9" y="59" width="9.7" height="2.8"></rect>
                <ellipse id="Oval" stroke="#BD901E" stroke-width="1.99999189" fill="#000000" transform="translate(13.096234, 60.409774) rotate(-29.887726) translate(-13.096234, -60.409774) " cx="13.0962343" cy="60.4097739" rx="2.6" ry="2.6"></ellipse>
                <rect id="rect4518_6_" fill="#BD901E" x="98.9" y="85.4" width="2.8" height="7.7"></rect>
                <ellipse id="Oval" stroke="#BD901E" stroke-width="1.99999189" fill="#000000" transform="translate(100.326135, 83.416914) rotate(-29.887726) translate(-100.326135, -83.416914) " cx="100.326135" cy="83.4169136" rx="2.6" ry="2.6"></ellipse>
            </g>
            <g id="Layer_3" fill-rule="nonzero" fill="#BD901E">
                <path d="M125.4,108.2 L125.7,36.3 L63.5,0 L1.1,35.5 L0.8,107.4 L63,143.7 L125.4,108.2 L125.4,108.2 Z M119.2,104.6 L63,136.6 L7,103.9 L7.3,39.2 L63.5,7.2 L119.4,39.9 L119.2,104.6 L119.2,104.6 Z" id="path4497_1_"></path>
            </g>
            <g id="Layer_2" transform="translate(13.000000, 50.000000)" fill-rule="nonzero" fill="#BD901E">
                <path d="M38.9,0.3 L38.8,3.3 L0.5,3.3 L2.5,6.1 C4.5,8.9 8.1,13.1 16.8,17.3 C26.1,21.8 43.2,22.8 43.2,22.8 C43.2,22.8 43.3,30.3 43.2,30.3 C43.1,30.3 42.4,30.4 39.2,32.1 C33.8,35 29.4,39.4 29.4,39.4 L29.4,47 C29.4,47 44.6,47.1 47,47 C48.4,44.6 51.8,42.9 55.7,42.9 C59.4,42.9 62.7,44.4 64.2,46.7 L64.5,47 L82.2,47 L82.1,40.1 C82.1,40.1 81,38.5 78.4,36.6 C75.8,34.7 67.8,30.2 67.8,30.2 L67.8,22.7 L83.5,9 L99.9,9 L99.9,0.4 L38.9,0.3" id="path14_1_"></path>
            </g>
            <rect id="Rectangle-path" fill="#000000" fill-rule="nonzero" x="59" y="68" width="3.31310329" height="16.1105041"></rect>
            <path d="M74.3188627,68 L78.9776343,68 L73.9288751,84.1105041 L69.0276788,84.1105041 L64,68 L68.6798519,68 L70.7773532,76.165447 C71.2130172,77.9799999 71.4519262,79.2435562 71.4940872,79.9561539 C71.5432751,79.4419081 71.6416494,78.7991106 71.789213,78.0277419 C71.9367767,77.2563733 72.0667713,76.6503071 72.1792007,76.209525 L74.3188627,68 Z" id="V" fill="#000000"></path>
        </g>
    </g>
</svg>