<?xml version="1.0" encoding="UTF-8"?>
<svg width="125px" height="144px" viewBox="0 0 125 144" version="1.1" xmlns="http://www.w3.org/2000/svg" xmlns:xlink="http://www.w3.org/1999/xlink">
    <!-- Generator: Sketch 43 (38999) - http://www.bohemiancoding.com/sketch -->
    <title>sex-tech-white-sticker</title>
    <desc>Created with Sketch.</desc>
    <defs>
        <polygon id="path-1" points="0 143.94 124.957 143.94 124.957 0.233 0 0.233"></polygon>
    </defs>
    <g id="Page-1" stroke="none" stroke-width="1" fill="none" fill-rule="evenodd">
        <g id="sex-tech-white-sticker">
            <polygon id="Fill-1" fill="#FFFFFF" points="12.726 56.443 15.561 56.443 15.561 29.799 12.726 29.799"></polygon>
            <path d="M16.736,58.536 C16.736,59.967 15.575,61.128 14.143,61.128 C12.712,61.128 11.551,59.967 11.551,58.536 C11.551,57.104 12.712,55.943 14.143,55.943 C15.575,55.943 16.736,57.104 16.736,58.536 Z" id="Stroke-2" stroke="#FFFFFF" stroke-width="2"></path>
            <polygon id="Fill-3" fill="#FFFFFF" points="61.382 39.64 64.217 39.64 64.217 7.421 61.382 7.421"></polygon>
            <path d="M65.407,41.554 C65.407,42.986 64.246,44.147 62.815,44.147 C61.383,44.147 60.222,42.986 60.222,41.554 C60.222,40.123 61.383,38.962 62.815,38.962 C64.246,38.962 65.407,40.123 65.407,41.554 Z" id="Stroke-4" stroke="#FFFFFF" stroke-width="2"></path>
            <polygon id="Fill-5" fill="#FFFFFF" points="22.172 50.393 25.007 50.393 25.007 28.152 22.172 28.152"></polygon>
            <path d="M26.181,52.411 C26.181,53.843 25.021,55.003 23.589,55.003 C22.157,55.003 20.997,53.843 20.997,52.411 C20.997,50.98 22.157,49.819 23.589,49.819 C25.021,49.819 26.181,50.98 26.181,52.411 Z" id="Stroke-6" stroke="#FFFFFF" stroke-width="2"></path>
            <polyline id="Fill-7" fill="#FFFFFF" points="28.98 26.083 30.393 23.625 35.443 26.529 35.443 29.799 28.98 26.083"></polyline>
            <polygon id="Fill-8" fill="#FFFFFF" points="32.609 43.943 35.444 43.943 35.444 27.549 32.609 27.549"></polygon>
            <path d="M36.618,46.411 C36.618,47.843 35.458,49.003 34.026,49.003 C32.594,49.003 31.434,47.843 31.434,46.411 C31.434,44.98 32.594,43.819 34.026,43.819 C35.458,43.819 36.618,44.98 36.618,46.411 Z" id="Stroke-9" stroke="#FFFFFF" stroke-width="2"></path>
            <polygon id="Fill-10" fill="#FFFFFF" points="102.223 68.335 120.058 68.335 120.058 65.5 102.223 65.5"></polygon>
            <path d="M99.63,69.51 C98.199,69.51 97.038,68.349 97.038,66.917 C97.038,65.486 98.199,64.325 99.63,64.325 C101.062,64.325 102.223,65.486 102.223,66.917 C102.223,68.349 101.062,69.51 99.63,69.51 Z" id="Stroke-11" stroke="#FFFFFF" stroke-width="2"></path>
            <polygon id="Fill-12" fill="#FFFFFF" points="94.491 77.422 124.058 77.422 124.058 74.587 94.491 74.587"></polygon>
            <path d="M92.758,78.597 C91.326,78.597 90.166,77.436 90.166,76.004 C90.166,74.573 91.326,73.412 92.758,73.412 C94.19,73.412 95.35,74.573 95.35,76.004 C95.35,77.436 94.19,78.597 92.758,78.597 Z" id="Stroke-13" stroke="#FFFFFF" stroke-width="2"></path>
            <polygon id="Fill-14" fill="#FFFFFF" points="87.501 85.993 120.058 85.993 120.058 83.158 87.501 83.158"></polygon>
            <path d="M85.63,87.168 C84.199,87.168 83.038,86.007 83.038,84.576 C83.038,83.144 84.199,81.983 85.63,81.983 C87.062,81.983 88.223,83.144 88.223,84.576 C88.223,86.007 87.062,87.168 85.63,87.168 Z" id="Stroke-15" stroke="#FFFFFF" stroke-width="2"></path>
            <polygon id="Fill-16" fill="#FFFFFF" points="89.163 111.222 113.805 111.222 113.805 108.388 89.163 108.388"></polygon>
            <polygon id="Fill-17" fill="#FFFFFF" points="73.684 132.878 76.519 132.878 76.519 111.802 73.684 111.802"></polygon>
            <path d="M77.694,109.817 C77.694,111.249 76.533,112.41 75.101,112.41 C73.67,112.41 72.509,111.249 72.509,109.817 C72.509,108.386 73.67,107.225 75.101,107.225 C76.533,107.225 77.694,108.386 77.694,109.817 Z" id="Stroke-18" stroke="#FFFFFF" stroke-width="2"></path>
            <polygon id="Fill-19" fill="#FFFFFF" points="42.349 129.603 64.205 129.603 64.205 126.768 42.349 126.768"></polygon>
            <polygon id="Fill-20" fill="#FFFFFF" points="61.488 129.581 64.2 129.581 64.2 100.869 61.488 100.869"></polygon>
            <path d="M65.437,98.852 C65.437,100.284 64.276,101.444 62.844,101.444 C61.413,101.444 60.252,100.284 60.252,98.852 C60.252,97.42 61.413,96.26 62.844,96.26 C64.276,96.26 65.437,97.42 65.437,98.852 Z" id="Stroke-21" stroke="#FFFFFF" stroke-width="2"></path>
            <polygon id="Fill-22" fill="#FFFFFF" points="27.079 120.241 50.926 120.241 50.926 117.406 27.079 117.406"></polygon>
            <polygon id="Fill-23" fill="#FFFFFF" points="20.248 117.194 23.083 117.194 23.083 107.275 20.248 107.275"></polygon>
            <polygon id="Fill-24" fill="#FFFFFF" points="20.247 110.11 46.59 110.11 46.59 107.275 20.247 107.275"></polygon>
            <polygon id="Fill-25" fill="#FFFFFF" points="3.113 100.055 31.785 100.055 31.785 97.22 3.113 97.22"></polygon>
            <path d="M32.633,96.39 C33.874,95.676 35.458,96.104 36.172,97.345 C36.885,98.587 36.457,100.171 35.216,100.885 C33.975,101.598 32.39,101.17 31.677,99.929 C30.963,98.688 31.391,97.103 32.633,96.39 Z" id="Stroke-26" stroke="#FFFFFF" stroke-width="2"></path>
            <polygon id="Fill-27" fill="#FFFFFF" points="3.113 90.741 22.582 90.741 22.582 87.906 3.113 87.906"></polygon>
            <path d="M23.791,87.076 C25.032,86.362 26.616,86.79 27.33,88.031 C28.043,89.273 27.615,90.857 26.374,91.571 C25.133,92.284 23.548,91.856 22.835,90.615 C22.121,89.374 22.549,87.789 23.791,87.076 Z M51.839,116.576 C53.08,115.862 54.665,116.29 55.378,117.531 C56.091,118.773 55.664,120.357 54.422,121.071 C53.181,121.784 51.597,121.356 50.883,120.115 C50.17,118.874 50.598,117.289 51.839,116.576 Z" id="Stroke-28" stroke="#FFFFFF" stroke-width="2"></path>
            <polygon id="Fill-29" fill="#FFFFFF" points="4.753 81.432 31.784 81.432 31.784 78.597 4.753 78.597"></polygon>
            <path d="M32.633,77.767 C33.874,77.054 35.458,77.481 36.172,78.723 C36.885,79.964 36.457,81.549 35.216,82.262 C33.975,82.975 32.39,82.548 31.677,81.306 C30.963,80.065 31.391,78.48 32.633,77.767 Z" id="Stroke-30" stroke="#FFFFFF" stroke-width="2"></path>
            <polygon id="Fill-31" fill="#FFFFFF" points="3.128 72.061 23.399 72.061 23.399 69.226 3.128 69.226"></polygon>
            <path d="M24.072,68.396 C25.313,67.682 26.897,68.11 27.611,69.352 C28.324,70.593 27.896,72.177 26.655,72.891 C25.414,73.604 23.829,73.176 23.116,71.935 C22.402,70.694 22.83,69.109 24.072,68.396 Z" id="Stroke-32" stroke="#FFFFFF" stroke-width="2"></path>
            <polyline id="Fill-33" fill="#FFFFFF" points="92.006 111.222 89.171 111.222 89.174 98.347 92.009 98.348 92.006 111.222"></polyline>
            <polygon id="Fill-34" fill="#FFFFFF" points="70.493 33.38 73.328 33.38 73.328 9.963 70.493 9.963"></polygon>
            <path d="M74.517,35.612 C74.517,37.044 73.357,38.204 71.925,38.204 C70.493,38.204 69.333,37.044 69.333,35.612 C69.333,34.18 70.493,33.02 71.925,33.02 C73.357,33.02 74.517,34.18 74.517,35.612 Z" id="Stroke-35" stroke="#FFFFFF" stroke-width="2"></path>
            <polygon id="Fill-36" fill="#FFFFFF" points="52.097 33.723 54.932 33.723 54.932 9.963 52.097 9.963"></polygon>
            <path d="M56.121,35.612 C56.121,37.044 54.961,38.204 53.529,38.204 C52.097,38.204 50.937,37.044 50.937,35.612 C50.937,34.18 52.097,33.02 53.529,33.02 C54.961,33.02 56.121,34.18 56.121,35.612 Z" id="Stroke-37" stroke="#FFFFFF" stroke-width="2"></path>
            <polygon id="Fill-38" fill="#FFFFFF" points="42.566 28.019 45.401 28.019 45.401 14.261 42.566 14.261"></polygon>
            <path d="M46.59,30.612 C46.59,32.044 45.43,33.204 43.998,33.204 C42.566,33.204 41.406,32.044 41.406,30.612 C41.406,29.18 42.566,28.02 43.998,28.02 C45.43,28.02 46.59,29.18 46.59,30.612 Z" id="Stroke-39" stroke="#FFFFFF" stroke-width="2"></path>
            <polygon id="Fill-40" fill="#FFFFFF" points="79.566 28.792 82.401 28.792 82.401 14.261 79.566 14.261"></polygon>
            <path d="M83.59,30.612 C83.59,32.044 82.43,33.204 80.998,33.204 C79.566,33.204 78.406,32.044 78.406,30.612 C78.406,29.18 79.566,28.02 80.998,28.02 C82.43,28.02 83.59,29.18 83.59,30.612 Z" id="Stroke-41" stroke="#FFFFFF" stroke-width="2"></path>
            <polyline id="Fill-42" fill="#FFFFFF" points="98.645 25.903 101.479 25.904 101.476 42.997 98.641 42.997 98.645 25.903"></polyline>
            <polyline id="Fill-43" fill="#FFFFFF" points="101.479 41.581 101.479 44.415 93.756 44.414 93.757 41.579 101.479 41.581"></polyline>
            <path d="M93.048,45.245 C91.807,45.958 90.222,45.53 89.509,44.289 C88.795,43.048 89.223,41.463 90.464,40.75 C91.706,40.036 93.29,40.464 94.004,41.705 C94.717,42.947 94.289,44.531 93.048,45.245 Z" id="Stroke-44" stroke="#FFFFFF" stroke-width="2"></path>
            <polyline id="Fill-45" fill="#FFFFFF" points="106.12 47.558 108.955 47.559 108.953 55.509 106.118 55.509 106.12 47.558"></polyline>
            <polyline id="Fill-46" fill="#FFFFFF" points="108.957 54.093 108.956 56.927 101.234 56.926 101.234 54.091 108.957 54.093"></polyline>
            <path d="M100.525,57.757 C99.284,58.47 97.7,58.042 96.986,56.801 C96.273,55.56 96.701,53.975 97.942,53.262 C99.183,52.548 100.768,52.976 101.481,54.217 C102.195,55.459 101.767,57.043 100.525,57.757 Z" id="Stroke-47" stroke="#FFFFFF" stroke-width="2"></path>
            <polygon id="Fill-48" fill="#FFFFFF" points="106.118 50.393 122.036 50.393 122.036 47.558 106.118 47.558"></polygon>
            <polygon id="Fill-49" fill="#FFFFFF" points="85.957 100.055 92.008 100.055 92.008 97.22 85.957 97.22"></polygon>
            <path d="M81.779,99.929 C81.066,98.688 81.493,97.103 82.735,96.39 C83.976,95.676 85.561,96.104 86.274,97.345 C86.988,98.587 86.56,100.171 85.318,100.884 C84.077,101.598 82.493,101.17 81.779,99.929 Z" id="Stroke-50" stroke="#FFFFFF" stroke-width="2"></path>
            <polygon id="Fill-51" fill="#FFFFFF" points="106.581 97.462 119.537 97.462 119.537 94.627 106.581 94.627"></polygon>
            <path d="M102.172,97.336 C101.458,96.095 101.886,94.51 103.127,93.797 C104.369,93.083 105.953,93.511 106.667,94.753 C107.38,95.994 106.952,97.579 105.711,98.292 C104.47,99.005 102.885,98.577 102.172,97.336 Z" id="Stroke-52" stroke="#FFFFFF" stroke-width="2"></path>
            <polygon id="Fill-53" fill="#FFFFFF" points="44.501 110.11 47.336 110.11 47.336 89.641 44.501 89.641"></polygon>
            <path d="M48.51,87.049 C48.51,88.48 47.35,89.641 45.918,89.641 C44.486,89.641 43.326,88.48 43.326,87.049 C43.326,85.617 44.486,84.456 45.918,84.456 C47.35,84.456 48.51,85.617 48.51,87.049 Z" id="Stroke-54" stroke="#FFFFFF" stroke-width="2"></path>
            <g id="Group-57">
                <mask id="mask-2" fill="white">
                    <use xlink:href="#path-1"></use>
                </mask>
                <g id="Clip-56"></g>
                <path d="M118.423,104.817 L62.191,136.812 L6.248,104.112 L6.535,39.415 L62.766,7.421 L118.709,40.121 L118.423,104.817 Z M124.639,108.45 L124.957,36.567 L62.797,0.233 L0.319,35.782 L0,107.666 L62.16,144 L124.639,108.45 L124.639,108.45 Z" id="Fill-55" fill="#FFFFFF" mask="url(#mask-2)"></path>
            </g>
            <path d="M51.827,49.303 C45.853,49.28 40.192,53.771 40.192,60.739 C40.192,74.492 53.368,75.951 62.815,90.122 C72.261,75.951 85.437,74.491 85.437,60.739 C85.437,49.004 69.382,44.294 62.815,56.344 C60.147,51.448 55.913,49.321 51.827,49.304 L51.827,49.303" id="Fill-58" fill="#FFFFFF"></path>
        </g>
    </g>
</svg>