<?xml version="1.0" encoding="UTF-8"?>
<svg width="126px" height="144px" viewBox="0 0 126 144" version="1.1" xmlns="http://www.w3.org/2000/svg" xmlns:xlink="http://www.w3.org/1999/xlink">
    <!-- Generator: Sketch 43 (38999) - http://www.bohemiancoding.com/sketch -->
    <title>hebocon</title>
    <desc>Created with Sketch.</desc>
    <defs>
        <polygon id="path-1" points="125.897 72.0865 125.897 143.94 0.94 143.94 0.94 0.233 125.897 0.233"></polygon>
    </defs>
    <g id="Page-1" stroke="none" stroke-width="1" fill="none" fill-rule="evenodd">
        <g id="hebocon">
            <g id="Group-4">
                <mask id="mask-2" fill="white">
                    <use xlink:href="#path-1"></use>
                </mask>
                <g id="Clip-2"></g>
                <polyline id="Fill-1" fill="#F6C525" mask="url(#mask-2)" points="4.126 37.562 63.419 4.372 122.975 37.562 122.975 106.924 63.419 140.511 4.126 105.731 4.126 37.562"></polyline>
                <path d="M119.363,104.817 L63.131,136.812 L7.188,104.112 L7.475,39.415 L63.706,7.421 L119.649,40.121 L119.363,104.817 Z M125.579,108.45 L125.897,36.567 L63.737,0.233 L1.259,35.782 L0.94,107.666 L63.1,144 L125.579,108.45 L125.579,108.45 Z" id="Fill-3" fill="#38A1CE" mask="url(#mask-2)"></path>
            </g>
            <polyline id="Fill-5" fill="#D8252C" points="53.56 36.842 70.089 36.885 69.067 38.887 70.175 39.867 71.41 37.226 73.114 35.65 74.35 36.587 74.307 41.571 73.285 41.742 73.072 44.894 74.009 45.278 76.309 45.491 77.161 44.937 76.863 41.657 75.841 41.912 75.798 37.439 79.334 40.08 78.397 44.298 79.462 44.894 80.953 45.107 82.828 44.767 83.254 41.87 88.025 45.746 83.552 45.746 79.547 45.917 76.863 46.087 71.325 46.385 64.295 46.385 60.546 43.233 55.434 39.058"></polyline>
            <polyline id="Fill-6" fill="#D8252C" points="52.567 37.67 51.077 48.573 55.724 49.288 55.963 52.685 53.937 54.83 50.481 63.588 57.333 71.692 59.597 62.575 64.35 45.737 60.978 43.167 53.751 37.467 52.707 37.038 52.567 37.67"></polyline>
            <polyline id="Fill-7" fill="#D8252C" points="57.793 71.692 79.843 69.05 88.134 48.076 88.578 45.863 83.725 45.611 77.517 46.02 68.235 46.257 63.855 46.462 59.27 63.621 57.793 71.692"></polyline>
            <polyline id="Fill-8" fill="#38A1CE" points="65.881 61.347 70.301 66.544 71.905 67.293 75.221 67.025 80.249 63.923 82.71 60.072 83.405 57.29 82.549 54.135 80.945 52.851 77.789 50.605 74.954 50.177 71.37 51.835 68.535 54.365 65.881 58.039 65.881 61.347"></polyline>
            <polyline id="Fill-9" fill="#D8252C" points="53.901 68.085 50.923 75.057 52.905 78.962 58.8 87.182 58.64 78.848 62.228 71.692 58.775 71.692 57.305 71.982 54.319 67.79 53.901 68.085"></polyline>
            <polyline id="Fill-10" fill="#D8252C" points="50.923 84.749 50.481 90.211 44.253 91.779 49.606 95.943 58.584 102.378 59.827 104.596 60.747 109.138 73.186 105.407 74.753 106.002 75.835 104.271 74.537 98.809 59.395 89.67 59.286 91.022 60.044 93.401 63.072 95.564 64.716 96.43 64.716 97.403 59.016 98.647 55.826 94.807 55.717 91.184 50.481 83.18 50.923 84.749"></polyline>
            <polyline id="Fill-11" fill="#38A1CE" points="80.178 40.259 80.178 37.556 79.315 35.461 78.236 35.112 76.617 35.65 76.617 34.604 78.585 33.525 80.178 34.255 81.347 37.08 81.537 41.588 82.49 41.334 83.029 41.588 82.828 44.767 80.953 45.107 78.966 44.826 78.397 44.298 78.998 41.018 80.178 40.259"></polyline>
            <polyline id="Fill-12" fill="#38A1CE" points="74.299 37.937 74.046 36.255 73.114 35.65 71.41 37.226 70.046 39.556 69.347 39.316 70.089 36.885 72.426 34.191 73.76 33.874 75.157 34.953 75.798 37.439 75.841 41.912 76.863 41.657 77.315 42.889 77.161 44.937 76.309 45.491 73.072 44.894 73.285 41.742 74.307 41.571"></polyline>
            <polyline id="Fill-13" fill="#38A1CE" points="53.53 55.713 48.514 68.514 49.494 70.243 49.552 71.973 49.033 72.605 58.893 87.772 59.286 91.022 60.044 93.401 63.072 95.564 64.716 96.43 64.716 97.403 59.527 98.785 55.826 94.807 55.717 91.184 45.227 74.452 43.613 68.398 48.514 51.85 49.379 48.621 55.724 49.288 55.963 52.685 53.937 54.83"></polyline>
            <polyline id="Fill-14" fill="#38A1CE" points="75.066 73.703 82.648 86.654 82.977 89.489 84.493 91.796 85.746 92.587 87.064 92.587 90.558 90.939 88.053 89.753 85.812 87.182 85.219 85.138 85.68 83.951 78.626 69.382 72.495 69.976"></polyline>
            <polyline id="Fill-15" fill="#38A1CE" points="44.253 91.779 58.584 102.378 60.5 106.323 60.5 110.176 59.296 112.103 52.376 114.078 51.204 113.355 36.706 99.869 35.936 94.089 42.871 91.779"></polyline>
            <polyline id="Fill-16" fill="#38A1CE" points="60.044 90.062 74.537 98.809 75.835 104.974 76.78 105.552 82.03 103.529 83.234 101.458 82.56 96.786 76.732 92.837 63.775 86.672 59.392 87.731 59.395 89.67 60.044 90.062"></polyline>
            <path d="M79.685,33.488 C80.144,33.724 80.451,33.995 80.769,34.466 C81.429,35.433 81.689,36.494 81.76,38.663 C81.807,39.783 81.877,40.502 81.96,40.561 C82.03,40.62 82.349,40.761 82.655,40.867 C82.973,40.985 83.398,41.268 83.598,41.48 C83.799,41.704 84.259,42.081 84.612,42.317 C85.414,42.847 86.887,43.991 87.924,44.875 C88.349,45.24 88.726,45.535 88.773,45.535 C88.832,45.535 88.867,45.877 88.867,46.289 C88.867,47.645 87.818,50.745 85.52,56.203 C83.421,61.166 83.233,61.614 82.75,62.805 C82.49,63.453 81.901,65.032 81.453,66.318 C80.345,69.453 80.31,69.512 79.756,69.559 C79.508,69.583 79.284,69.665 79.249,69.747 C79.178,69.936 81.476,74.793 82.762,77.174 C85.178,81.665 85.567,82.432 85.92,83.269 L86.286,84.164 L86.05,84.884 C85.873,85.391 85.838,85.673 85.909,85.815 C85.968,85.933 86.109,86.393 86.227,86.852 C86.404,87.571 86.498,87.748 87.04,88.29 C87.382,88.62 87.889,89.056 88.172,89.257 C88.773,89.693 89.987,90.094 90.718,90.094 L91.237,90.094 L91.201,90.872 C91.178,91.426 91.107,91.685 90.989,91.756 C90.895,91.803 90.082,92.121 89.174,92.451 C87.713,92.982 87.441,93.041 86.581,93.041 C85.709,93.041 85.555,93.005 85.048,92.687 C84.447,92.298 83.575,91.473 83.068,90.801 C82.537,90.094 82.137,88.113 82.36,87.324 C82.443,87.017 82.372,86.852 81.512,85.614 C79.897,83.28 79.154,82.09 77.48,79.119 C75.795,76.137 74.18,73.378 73.024,71.492 C72.353,70.42 72.341,70.408 71.881,70.408 C71.28,70.408 64.278,71.386 62.981,71.646 C62.792,71.692 62.592,72.035 62.133,73.143 C61.79,73.944 61.142,75.276 60.683,76.125 C59.221,78.801 59.044,79.249 59.044,80.357 C59.044,81.535 59.268,86.204 59.338,86.404 C59.362,86.486 59.539,86.452 59.893,86.286 C60.329,86.062 60.6,86.027 61.755,86.027 C62.981,86.027 63.228,86.062 64.289,86.427 C65.527,86.84 75.535,91.744 78.636,93.465 C81.217,94.891 82.75,96.118 83.15,97.084 C83.61,98.192 83.693,101.894 83.268,103.061 C82.879,104.168 81.971,104.675 79.083,105.43 C76.302,106.161 74.51,106.385 73.897,106.067 C73.402,105.807 72.954,105.89 70.891,106.62 C69.382,107.151 68.05,107.552 63.005,109.026 C62.038,109.308 61.177,109.603 61.095,109.674 C61.013,109.733 60.895,110.062 60.824,110.381 C60.635,111.23 60.435,111.571 59.681,112.243 C59.15,112.715 58.867,112.868 58.348,112.975 C57.523,113.139 55.296,113.776 53.881,114.247 C53.268,114.448 52.56,114.613 52.313,114.613 C51.912,114.613 51.806,114.554 51.641,114.259 C51.535,114.07 51.382,113.906 51.323,113.906 C51.158,113.906 49.873,112.916 48.6,111.819 C48.01,111.312 46.773,110.263 45.841,109.485 C42.517,106.715 38.934,103.379 37.743,101.953 C36.34,100.278 36.246,100.09 35.892,98.298 C35.727,97.414 35.586,96.365 35.586,95.964 C35.586,95.575 35.527,94.903 35.444,94.491 C35.315,93.795 35.326,93.725 35.539,93.524 C35.833,93.253 36.847,92.864 37.884,92.628 C38.332,92.534 39.582,92.18 40.643,91.839 C42.388,91.296 42.623,91.249 43.083,91.355 C43.519,91.461 43.896,91.403 45.57,91.025 C48.682,90.33 49.979,89.999 50.156,89.846 C50.286,89.74 50.321,89.115 50.321,86.545 L50.321,83.387 L48.576,80.758 C45.959,76.832 45.158,75.5 45.028,74.84 C44.946,74.463 44.757,74.369 43.814,74.239 C43.519,74.203 43.095,74.05 42.871,73.909 C42.104,73.402 41.397,71.398 41.527,70.125 C41.621,69.241 41.881,68.793 42.541,68.404 C43.001,68.133 43.083,68.027 43.319,67.284 C43.46,66.825 43.849,65.61 44.179,64.573 C44.51,63.535 45.228,61.119 45.771,59.209 C46.325,57.3 46.996,55.095 47.268,54.317 C47.704,53.056 47.751,52.797 47.727,51.948 C47.716,51.382 47.786,50.698 47.904,50.238 C48.069,49.59 48.199,49.39 48.812,48.753 C49.46,48.093 49.59,48.023 50.073,47.987 L50.615,47.952 L50.769,46.655 C51.075,43.944 51.405,41.669 51.617,40.702 C51.747,40.148 51.959,39.064 52.101,38.286 C52.231,37.507 52.407,36.765 52.466,36.647 C52.584,36.423 52.714,36.423 56.734,36.529 C61.979,36.659 64.608,36.635 67.084,36.399 C68.168,36.294 69.24,36.246 69.453,36.282 C69.83,36.353 69.877,36.328 70.278,35.787 C70.856,34.985 72.046,33.888 72.529,33.688 C73.06,33.464 74.05,33.464 74.462,33.676 C74.864,33.888 75.229,34.278 75.488,34.796 L75.689,35.185 L76.29,34.513 C76.95,33.771 78.034,33.158 78.683,33.158 C78.895,33.158 79.343,33.311 79.685,33.488 Z M77.905,34.219 C77.516,34.408 77.15,34.678 77.079,34.808 C76.962,35.02 76.973,35.032 77.256,34.926 C77.433,34.855 77.858,34.808 78.211,34.808 C79.308,34.808 79.85,35.233 80.274,36.458 C80.51,37.13 80.545,37.437 80.533,38.816 C80.522,39.688 80.498,40.561 80.474,40.761 C80.427,41.233 80.805,41.327 80.969,40.879 C81.146,40.407 81.111,38.014 80.899,36.918 C80.616,35.433 79.932,34.337 79.083,33.995 C78.671,33.83 78.683,33.83 77.905,34.219 Z M72.895,34.454 C71.751,35.008 70.938,36.01 70.136,37.85 C69.759,38.734 69.7,38.946 69.83,39.052 C69.96,39.17 70.113,38.957 70.584,37.967 C71.374,36.341 72.187,35.503 73.036,35.433 C73.72,35.374 74.25,35.657 74.569,36.246 C74.746,36.564 74.781,36.918 74.781,38.286 C74.781,39.193 74.757,40.336 74.722,40.82 C74.663,41.645 74.675,41.704 74.911,41.74 C75.394,41.81 75.453,41.527 75.464,39.382 C75.476,37.779 75.441,37.166 75.276,36.517 C74.993,35.385 74.639,34.714 74.203,34.442 C73.744,34.16 73.496,34.16 72.895,34.454 Z M77.492,35.716 C77.091,35.916 76.525,36.423 76.361,36.706 C76.278,36.871 76.608,37.178 78.022,38.332 C79.402,39.441 79.815,39.724 79.874,39.582 C79.909,39.476 79.909,38.863 79.885,38.227 C79.838,37.248 79.779,36.953 79.484,36.376 C78.989,35.385 78.494,35.221 77.492,35.716 Z M72.848,36.282 C72.364,36.517 71.964,37.036 71.469,38.05 C71.103,38.781 71.056,38.957 71.185,39.111 C71.362,39.323 71.256,40.879 71.056,41.138 C70.785,41.456 69.181,41.245 68.557,40.797 C68.027,40.419 67.85,39.877 68.003,39.087 C68.144,38.274 68.38,37.991 68.899,37.991 C69.323,37.991 69.347,37.967 69.465,37.472 L69.547,37.13 L68.627,37.201 C64.537,37.531 62.38,37.555 58.372,37.355 C56.144,37.248 54.27,37.189 54.211,37.225 C54.14,37.272 54.411,37.649 54.859,38.121 C56.168,39.511 55.755,39.759 54.27,38.462 C53.751,38.003 53.292,37.637 53.256,37.637 C53.126,37.637 53.056,37.896 52.973,38.651 C52.926,39.028 52.737,40.03 52.56,40.879 C52.242,42.329 52.089,43.366 51.676,46.643 C51.488,48.199 51.523,48.364 52.101,48.364 C52.714,48.364 55.637,48.977 55.802,49.154 C56.062,49.402 56.227,50.097 56.298,51.146 C56.391,52.679 55.849,54.023 54.918,54.576 C54.647,54.73 54.364,55.237 53.574,56.957 C52.349,59.645 51.877,60.801 51.347,62.369 L50.934,63.571 L51.205,63.783 C52.006,64.408 56.144,69.111 56.898,70.267 C57.123,70.608 57.334,70.867 57.358,70.844 C57.405,70.797 57.759,69.382 58.513,66.223 C59.103,63.795 59.539,62.392 59.716,62.392 C59.916,62.392 59.904,62.569 59.692,63.912 C59.504,65.032 58.231,70.302 57.995,70.926 C57.912,71.115 57.877,71.292 57.912,71.315 C57.995,71.398 60.27,71.139 62.816,70.749 C67.979,69.96 69.818,69.701 71.952,69.477 C73.178,69.347 74.981,69.147 75.96,69.04 C76.927,68.934 78.105,68.816 78.577,68.793 C79.048,68.758 79.472,68.675 79.531,68.593 C79.661,68.416 81.583,63.099 81.512,63.099 C81.5,63.099 81.099,63.488 80.616,63.96 C78.942,65.598 77.256,66.695 75.488,67.296 C74.675,67.579 74.357,67.626 73.13,67.626 C71.551,67.638 70.832,67.484 70.431,67.048 C70.278,66.895 70.031,66.707 69.865,66.648 C69.677,66.577 69.311,66.152 68.922,65.551 C68.568,65.009 67.732,63.96 67.072,63.217 C66.411,62.474 65.787,61.697 65.68,61.508 C65.362,60.931 65.35,59.634 65.621,58.525 C66.082,56.734 66.989,55.296 68.875,53.374 C70.467,51.759 71.787,50.863 73.543,50.215 C74.663,49.802 74.899,49.755 75.96,49.743 C77.268,49.732 77.881,49.92 78.553,50.557 C78.742,50.734 79.756,51.512 80.793,52.29 C83.257,54.117 83.681,54.765 83.681,56.722 C83.681,57.099 83.716,57.441 83.764,57.477 C83.799,57.523 84.282,56.51 84.824,55.225 C86.439,51.429 87.854,47.504 87.948,46.537 L87.983,46.184 L86.274,46.113 C84.093,46.019 83.327,45.912 83.327,45.7 C83.327,45.571 83.705,45.535 85.272,45.535 C86.345,45.535 87.217,45.5 87.217,45.441 C87.206,45.346 85.591,44.038 84.907,43.578 C84.659,43.413 84.259,43.083 84.023,42.859 C83.787,42.635 83.563,42.494 83.516,42.565 C83.48,42.624 83.362,43.213 83.257,43.873 L83.056,45.064 L82.526,45.299 C81.76,45.641 80.415,45.618 79.26,45.252 C78.258,44.934 77.905,44.687 77.905,44.285 C77.905,43.92 78.706,40.572 78.86,40.313 C78.93,40.184 78.965,40.077 78.942,40.054 C78.093,39.311 76.443,38.109 76.372,38.191 C76.325,38.239 76.266,38.946 76.243,39.759 L76.195,41.233 L76.632,41.303 C76.868,41.338 77.197,41.456 77.363,41.574 C77.657,41.763 77.669,41.81 77.657,42.859 C77.645,43.449 77.61,44.262 77.563,44.651 C77.504,45.252 77.457,45.358 77.245,45.394 C77.103,45.417 76.891,45.535 76.773,45.665 C76.573,45.889 76.573,45.901 77.233,45.83 C77.598,45.794 78.199,45.747 78.553,45.712 C79.308,45.641 79.791,45.735 79.791,45.948 C79.791,46.171 79.602,46.207 78.282,46.301 C76.973,46.396 76.525,46.337 76.466,46.054 C76.443,45.901 76.231,45.865 75.429,45.83 C74.345,45.794 73.26,45.464 72.895,45.064 C72.706,44.851 72.694,44.651 72.742,43.236 C72.812,41.492 72.93,41.174 73.508,41.174 C73.873,41.174 73.767,40.985 73.343,40.879 C73.166,40.843 72.871,40.69 72.683,40.561 C72.353,40.325 72.341,40.277 72.388,39.57 C72.447,38.616 72.73,38.18 73.355,38.132 C73.944,38.085 74.227,37.578 74.026,36.918 C73.909,36.505 73.531,36.105 73.272,36.105 C73.225,36.105 73.024,36.187 72.848,36.282 Z M79.072,42.435 C78.588,44.285 78.553,44.168 79.697,44.533 C80.498,44.792 80.805,44.828 81.382,44.769 C82.243,44.675 82.384,44.569 82.384,44.015 C82.384,43.779 82.455,43.154 82.549,42.612 L82.703,41.633 L82.455,41.822 C81.783,42.305 81.253,42.317 80.227,41.857 C79.85,41.681 79.649,41.515 79.602,41.327 C79.555,41.174 79.496,41.068 79.461,41.103 C79.425,41.138 79.249,41.74 79.072,42.435 Z M73.496,43.425 L73.484,44.628 L74.073,44.84 C74.781,45.087 76.514,45.146 76.702,44.91 C76.761,44.84 76.832,44.192 76.856,43.472 C76.903,42.293 76.879,42.176 76.691,42.14 C76.573,42.117 76.372,42.188 76.254,42.293 C75.948,42.576 74.239,42.506 73.932,42.211 C73.602,41.881 73.508,42.129 73.496,43.425 Z M49.731,49.072 C49.731,49.131 49.873,49.189 50.05,49.213 C50.45,49.26 50.651,49.791 50.663,50.804 C50.674,51.205 50.722,51.559 50.781,51.594 C50.945,51.7 51.075,51.005 51.052,50.156 C51.052,49.59 51.087,49.402 51.229,49.343 C51.511,49.236 51.617,49.531 51.617,50.486 C51.617,51.264 51.393,52.337 51.087,53.103 C51.016,53.268 51.063,53.315 51.276,53.315 C51.429,53.315 52.065,53.457 52.667,53.61 C53.928,53.94 54.081,53.952 54.494,53.775 C54.8,53.633 55.26,52.738 55.507,51.795 C55.637,51.288 55.531,50.404 55.26,49.897 C55.178,49.72 53.857,49.413 51.028,48.907 C50.179,48.765 49.731,48.812 49.731,49.072 Z M74.687,50.852 C73.46,51.252 71.881,52.09 70.82,52.891 C68.651,54.53 66.694,57.429 66.329,59.527 C66.117,60.777 66.234,61.119 67.213,62.121 C67.673,62.592 68.086,62.946 68.121,62.899 C68.168,62.84 68.286,62.404 68.38,61.92 C68.486,61.437 68.734,60.695 68.922,60.27 C69.335,59.351 70.29,58.03 70.537,58.03 C70.797,58.03 70.749,58.443 70.419,58.961 C69.983,59.669 69.217,61.543 69.064,62.31 C68.958,62.817 68.958,63.146 69.064,63.594 C69.24,64.431 69.913,65.61 70.478,66.07 C70.738,66.27 70.95,66.506 70.95,66.589 C70.95,66.8 72.4,67.036 73.296,66.954 C75.347,66.789 78.341,65.174 80.085,63.312 L80.675,62.687 L80.085,63.241 C79.756,63.559 79.425,63.807 79.343,63.807 C79.26,63.807 79.166,63.889 79.131,63.983 C79.083,64.078 79.013,64.16 78.942,64.16 C78.883,64.16 78.612,64.314 78.341,64.502 C77.02,65.41 75.028,66.164 73.967,66.164 C73.626,66.164 73.531,66.117 73.567,65.975 C73.59,65.846 73.85,65.705 74.321,65.575 C75.17,65.351 77.209,64.36 78.199,63.701 C79.131,63.087 80.203,62.144 80.781,61.425 C81.276,60.836 81.512,60.718 81.594,61.06 C81.653,61.343 82.561,59.468 82.797,58.561 C83.198,56.993 82.926,55.248 82.16,54.482 C81.653,53.964 81.146,53.799 79.779,53.704 C78.848,53.645 78.671,53.669 77.598,54.023 C75.736,54.635 74.781,55.213 76.325,54.789 C76.726,54.683 77.716,54.565 78.612,54.53 C80.05,54.471 80.262,54.494 80.852,54.718 C81.665,55.037 81.936,55.26 82.255,55.885 C82.561,56.486 82.573,56.663 82.278,56.58 C82.089,56.533 82.078,56.569 82.196,56.887 C82.29,57.158 82.29,57.252 82.172,57.288 C82.101,57.323 82.03,57.441 82.03,57.571 C82.03,57.712 81.948,57.795 81.795,57.795 C81.594,57.795 81.571,57.83 81.677,58.018 C81.971,58.584 81.559,58.679 80.958,58.184 C80.356,57.665 80.215,57.771 80.734,58.349 C81.476,59.186 81.264,59.563 80.463,58.856 L80.05,58.502 L79.732,59.162 C79.083,60.494 77.634,62.05 76.372,62.781 C75.594,63.229 73.838,63.771 72.895,63.865 C71.987,63.948 71.02,63.783 70.702,63.5 C70.431,63.253 70.36,63.429 70.49,64.03 C70.643,64.738 71.033,65.433 71.433,65.775 C71.622,65.94 71.775,66.141 71.775,66.235 C71.775,66.423 71.244,66.459 71.126,66.282 C71.079,66.211 71.009,66.188 70.95,66.223 C70.785,66.329 69.924,64.914 69.771,64.266 C69.453,62.946 69.877,60.789 70.797,59.115 C71.315,58.148 72.482,56.816 73.425,56.109 C73.72,55.885 73.779,55.791 73.626,55.791 C73.095,55.791 73.649,55.13 74.899,54.305 C75.241,54.069 76.113,53.681 76.832,53.421 C77.94,53.033 78.306,52.962 79.095,52.962 C79.602,52.962 80.026,52.926 80.026,52.867 C80.026,52.82 79.72,52.572 79.354,52.313 C78.989,52.054 78.4,51.606 78.046,51.323 C77.693,51.04 77.268,50.769 77.091,50.722 C76.514,50.545 75.429,50.604 74.687,50.852 Z M50.309,54.53 C50.05,55.461 48.199,60.742 47.869,61.472 C47.586,62.121 47.256,62.239 47.256,61.697 C47.256,61.343 48.376,58.018 49.366,55.414 L49.932,53.928 L49.39,53.869 C49.095,53.834 48.741,53.799 48.611,53.775 C48.411,53.728 48.317,53.905 47.928,55.083 C47.68,55.826 47.02,58.007 46.478,59.917 C45.924,61.826 45.217,64.184 44.91,65.162 C44.014,67.92 43.896,68.368 44.073,68.581 C44.333,68.899 44.486,68.77 44.769,67.956 C45.158,66.836 45.617,65.928 45.806,65.928 C45.889,65.928 45.959,65.952 45.959,65.975 C45.959,66.105 45.464,67.968 45.311,68.392 C45.217,68.675 45.134,68.946 45.134,69.005 C45.134,69.17 47.398,69.123 47.716,68.958 C47.916,68.852 48.081,68.557 48.317,67.873 C48.493,67.355 49.048,65.869 49.543,64.573 C50.05,63.276 50.663,61.626 50.91,60.919 C51.158,60.199 51.629,59.032 51.947,58.325 C52.266,57.606 52.749,56.545 53.008,55.968 C53.268,55.378 53.503,54.836 53.527,54.742 C53.551,54.624 53.162,54.459 52.089,54.14 C51.276,53.905 50.592,53.728 50.568,53.751 C50.533,53.775 50.427,54.117 50.309,54.53 Z M74.227,56.71 C72.848,57.653 71.657,59.044 71.657,59.728 C71.657,59.881 71.799,60.176 71.964,60.376 C72.423,60.919 73.119,60.895 74.333,60.27 C75.406,59.704 75.759,59.398 76.184,58.62 C76.549,57.936 76.879,56.545 76.726,56.274 C76.679,56.18 76.455,56.026 76.231,55.956 C75.736,55.791 75.406,55.909 74.227,56.71 Z M49.955,66.058 C49.613,66.93 49.248,67.873 49.142,68.156 L48.93,68.687 L49.272,69.017 C49.72,69.477 50.085,70.502 50.085,71.351 C50.085,71.928 50.038,72.105 49.767,72.412 C49.413,72.836 49.413,72.812 50.274,74.109 C50.615,74.616 50.674,74.664 50.745,74.463 C51.087,73.532 51.582,72.365 52.207,71.056 C52.608,70.208 53.091,69.088 53.28,68.545 L53.633,67.555 L52.714,66.541 C51.818,65.551 50.651,64.396 50.592,64.443 C50.568,64.455 50.286,65.186 49.955,66.058 Z M53.963,69.252 C53.833,69.724 53.351,70.938 52.89,71.94 C52.431,72.942 51.936,74.109 51.771,74.534 C51.606,74.958 51.429,75.359 51.358,75.441 C51.276,75.536 51.452,75.913 51.936,76.679 C53.315,78.86 53.68,79.367 53.881,79.367 C53.999,79.367 54.093,79.308 54.093,79.249 C54.093,79.178 53.987,79.131 53.845,79.131 C53.669,79.131 53.61,79.072 53.645,78.872 C53.692,78.542 54.093,78.483 56.722,78.365 L58.466,78.282 L58.738,77.728 C58.879,77.422 59.35,76.538 59.786,75.759 C60.647,74.227 61.661,72.07 61.578,71.94 C61.555,71.893 61.201,71.905 60.788,71.952 C60.376,71.999 59.433,72.082 58.679,72.129 L57.311,72.212 L56.568,71.162 C55.755,70.019 54.435,68.416 54.305,68.404 C54.258,68.404 54.105,68.793 53.963,69.252 Z M46.784,69.806 L45.193,69.877 L45.217,70.29 C45.346,72.518 45.358,72.589 45.511,72.542 C46.112,72.365 47.327,72.188 48.022,72.176 C48.918,72.176 49.036,72.129 49.248,71.74 C49.448,71.339 49.402,70.879 49.083,70.184 C48.847,69.677 48.753,69.571 48.576,69.654 C48.47,69.701 47.657,69.772 46.784,69.806 Z M76.148,69.936 C75.665,70.007 75.217,70.101 75.158,70.16 C75.099,70.219 75.17,70.455 75.347,70.715 C75.818,71.457 77.245,73.921 77.787,74.946 C78.07,75.465 78.6,76.396 78.965,77.009 C79.708,78.247 80.38,79.532 80.38,79.72 C80.38,79.779 80.31,79.838 80.215,79.838 C80.121,79.838 79.732,79.32 79.343,78.683 C78.965,78.058 78.282,76.95 77.846,76.243 C77.398,75.524 76.82,74.569 76.549,74.109 C76.278,73.662 75.594,72.589 75.028,71.728 C74.191,70.443 73.956,70.172 73.72,70.172 C73.567,70.172 73.414,70.208 73.378,70.267 C73.355,70.313 73.98,71.457 74.793,72.801 C75.594,74.145 77.068,76.691 78.058,78.459 C79.06,80.227 80.486,82.608 81.241,83.752 C82.007,84.895 82.679,85.98 82.762,86.145 C82.832,86.31 82.95,86.427 83.021,86.404 C83.091,86.381 83.492,86.227 83.916,86.086 C84.341,85.933 84.742,85.768 84.824,85.709 C84.954,85.602 85.143,85.037 85.06,84.954 C85.036,84.931 84.812,85.013 84.565,85.143 C84.305,85.273 83.928,85.379 83.705,85.379 C83.362,85.379 83.315,85.343 83.351,85.119 C83.41,84.718 84.977,84.223 84.977,84.612 C84.977,84.919 85.154,84.801 85.307,84.412 C85.437,84.058 85.402,83.952 84.636,82.503 C84.2,81.653 83.292,79.944 82.62,78.718 C81.948,77.481 80.663,74.982 79.767,73.143 L78.14,69.818 L77.586,69.818 C77.268,69.818 76.62,69.877 76.148,69.936 Z M47.126,73.119 C46.784,73.19 46.455,73.284 46.396,73.343 C46.337,73.402 46.56,73.968 46.891,74.639 C47.527,75.901 47.633,76.349 47.28,76.278 C47.162,76.255 46.855,75.83 46.56,75.264 C46.278,74.734 45.994,74.298 45.948,74.298 C45.488,74.298 46.419,75.984 49.378,80.487 C50.521,82.231 51.724,84.117 52.03,84.671 C52.855,86.121 53.833,87.689 54.423,88.49 C54.694,88.88 55.119,89.528 55.342,89.94 C55.578,90.353 55.814,90.648 55.885,90.612 C55.955,90.565 55.991,90.2 55.955,89.681 C55.908,88.95 55.849,88.762 55.543,88.373 C54.612,87.182 52.089,83.563 52.089,83.41 C52.089,82.762 53.409,84.306 55.425,87.324 C55.814,87.901 56.144,88.397 56.156,88.42 C56.18,88.443 56.734,88.397 57.393,88.314 C58.384,88.196 58.584,88.137 58.537,87.984 C58.49,87.795 57.936,86.982 54.317,81.783 C53.244,80.227 52.018,78.424 51.594,77.775 C48.329,72.719 48.541,73.001 48.128,73.001 C47.928,73.001 47.48,73.06 47.126,73.119 Z M55.743,80.015 C55.001,80.051 54.376,80.097 54.352,80.133 C54.329,80.18 54.812,80.935 55.425,81.819 C56.038,82.703 56.922,84.035 57.393,84.766 C57.912,85.567 58.289,86.062 58.36,85.991 C58.419,85.933 58.407,84.671 58.325,82.856 L58.172,79.826 L57.641,79.897 C57.346,79.933 56.486,79.98 55.743,80.015 Z M51.17,88.573 L51.205,92.003 L51.57,92.31 C52.82,93.382 53.845,94.196 53.881,94.161 C53.904,94.137 53.798,93.112 53.657,91.897 C53.503,90.683 53.397,89.433 53.409,89.139 C53.421,88.656 53.338,88.456 52.596,87.253 C52.148,86.51 51.688,85.732 51.57,85.52 C51.158,84.73 51.122,85.025 51.17,88.573 Z M84.246,86.84 C83.327,87.029 83.28,87.1 83.48,87.901 C83.799,89.104 84.518,90.106 85.626,90.86 C86.038,91.155 86.274,91.39 86.274,91.544 C86.274,91.744 86.215,91.768 85.897,91.697 C85.685,91.65 85.307,91.473 85.048,91.296 C84.801,91.119 84.482,90.919 84.341,90.837 C84.2,90.754 84.093,90.636 84.093,90.577 C84.093,90.506 83.964,90.365 83.799,90.247 C83.516,90.047 83.516,90.058 83.846,90.506 C84.034,90.766 84.329,91.131 84.494,91.308 C84.895,91.744 86.133,92.569 86.38,92.569 C86.675,92.569 88.526,91.791 88.443,91.709 C88.396,91.662 88.302,91.673 88.231,91.709 C88.078,91.815 87.901,91.85 87.241,91.944 C86.828,92.003 86.746,91.98 86.746,91.815 C86.746,91.591 86.922,91.508 88.325,91.096 L89.374,90.778 L88.738,90.518 C87.017,89.823 85.449,88.137 85.449,86.97 C85.449,86.64 85.331,86.534 85.107,86.628 C85.001,86.663 84.612,86.758 84.246,86.84 Z M61.991,87.736 C59.456,88.078 59.692,87.972 59.692,88.691 C59.704,89.222 59.751,89.34 60.046,89.575 L60.399,89.858 L60.458,89.587 C60.494,89.445 60.659,89.269 60.812,89.198 C61.048,89.08 63.264,88.656 65.633,88.255 C65.857,88.22 65.987,88.149 65.928,88.09 C65.739,87.901 64.325,87.418 64.066,87.454 C63.936,87.477 62.993,87.606 61.991,87.736 Z M62.958,89.504 C61.967,89.705 61.036,89.87 60.883,89.881 C60.529,89.917 60.565,89.964 61.154,90.376 C61.567,90.671 61.672,90.695 62.015,90.577 C62.227,90.518 63.653,90.188 65.174,89.858 C66.694,89.528 67.956,89.233 67.979,89.21 C68.015,89.186 67.873,89.068 67.673,88.95 C67.319,88.726 67.272,88.726 66.034,88.938 C65.339,89.056 63.948,89.304 62.958,89.504 Z M56.922,89.198 C56.675,89.304 56.616,89.422 56.592,89.894 C56.568,90.306 56.604,90.471 56.734,90.518 C56.946,90.601 58.384,90.141 58.549,89.94 C58.69,89.752 58.832,89.163 58.761,89.045 C58.679,88.915 57.276,89.033 56.922,89.198 Z M66.199,90.376 C64.702,90.719 63.264,91.037 63.017,91.084 C62.769,91.131 62.604,91.214 62.639,91.273 C62.674,91.332 63.099,91.591 63.582,91.862 L64.455,92.346 L64.785,92.11 C65.115,91.874 66.07,91.673 69.181,91.155 C71.48,90.778 71.398,90.86 70.242,90.271 C69.688,89.988 69.17,89.752 69.087,89.752 C69.005,89.74 67.708,90.023 66.199,90.376 Z M53.987,89.999 C53.987,90.153 54.105,91.226 54.246,92.392 L54.505,94.514 L54.977,94.514 C55.413,94.514 55.448,94.491 55.413,94.22 C55.389,94.055 55.366,93.394 55.342,92.746 L55.319,91.555 L54.741,90.66 C54.411,90.165 54.117,89.752 54.058,89.752 C54.01,89.74 53.975,89.858 53.987,89.999 Z M59.445,90.73 C59.563,91.426 60.14,92.616 60.706,93.289 C61.425,94.149 62.474,94.891 64.078,95.658 C65.091,96.141 65.527,96.412 65.527,96.554 C65.527,96.966 65.209,97.791 65.009,97.897 C64.903,97.956 64.054,98.133 63.135,98.286 C62.215,98.44 61.083,98.652 60.635,98.758 C59.174,99.1 59.079,99.112 58.596,98.793 C57.712,98.204 56.734,97.12 56.262,96.224 C55.755,95.245 55.885,95.304 54.564,95.457 L53.916,95.54 L53.056,94.762 C52.584,94.337 51.806,93.689 51.335,93.335 C50.851,92.97 50.427,92.557 50.391,92.416 C50.356,92.275 50.321,91.85 50.321,91.473 C50.321,91.108 50.274,90.801 50.215,90.801 C50.156,90.801 49.448,90.978 48.647,91.202 C47.857,91.426 46.678,91.721 46.042,91.862 C45.394,92.003 44.922,92.169 44.981,92.216 C45.028,92.275 45.688,92.699 46.431,93.171 C47.173,93.63 48.211,94.325 48.729,94.703 C49.248,95.068 50.168,95.717 50.757,96.129 C53.28,97.85 54.458,98.687 55.743,99.63 C57.146,100.668 58.926,102.141 59.068,102.4 C59.138,102.518 59.338,102.507 60.011,102.341 C60.482,102.235 61.378,102.023 61.991,101.882 C62.604,101.74 63.5,101.469 63.971,101.28 C64.891,100.915 65.527,100.833 65.527,101.092 C65.527,101.363 65.162,101.611 64.23,101.976 C63.287,102.353 60.847,102.943 60.246,102.943 C59.763,102.943 59.704,103.084 59.987,103.568 C60.34,104.168 60.788,106.043 60.883,107.351 C60.942,108.141 61.013,108.519 61.119,108.565 C61.201,108.601 62.215,108.33 63.37,107.976 C64.525,107.611 66.199,107.104 67.095,106.833 C67.991,106.574 69.429,106.113 70.278,105.819 C72.765,104.97 74.015,104.782 74.015,105.241 C74.015,105.347 74.132,105.418 74.309,105.418 C74.545,105.418 74.604,105.359 74.604,105.123 C74.604,104.864 74.569,104.829 74.321,104.9 C74.121,104.947 74.026,104.9 73.956,104.746 C73.909,104.629 73.85,103.438 73.85,102.094 C73.838,100.75 73.791,99.619 73.744,99.571 C73.696,99.512 73.213,99.619 72.683,99.783 C71.527,100.161 70.526,100.349 69.736,100.349 C69.264,100.349 69.17,100.314 69.205,100.149 C69.24,99.925 69.37,99.878 71.622,99.171 C72.482,98.911 73.189,98.652 73.189,98.605 C73.189,98.487 67.566,95.08 65.174,93.748 C62.156,92.051 61.142,91.437 60.329,90.754 C59.916,90.412 59.527,90.153 59.468,90.188 C59.421,90.212 59.409,90.459 59.445,90.73 Z M56.828,91.544 C56.521,91.791 56.769,92.97 57.393,94.22 C57.688,94.809 58.513,95.941 59.15,96.601 C59.539,97.013 59.61,97.049 60.246,97.049 C60.836,97.049 60.93,97.084 60.93,97.272 C60.93,97.544 60.624,97.638 59.727,97.638 L59.044,97.638 L58.101,96.447 C57.064,95.151 56.816,94.738 56.498,93.713 C56.38,93.348 56.239,93.041 56.18,93.041 C55.979,93.041 56.203,93.984 56.663,95.092 C57.052,96.059 57.205,96.27 58.113,97.19 L59.127,98.204 L60.058,97.992 C60.565,97.874 61.731,97.662 62.639,97.508 C64.207,97.261 64.632,97.131 64.561,96.919 C64.537,96.872 63.877,96.506 63.087,96.118 C61.932,95.54 61.472,95.234 60.718,94.514 C59.669,93.524 59.303,92.994 58.926,91.862 C58.784,91.437 58.643,91.06 58.62,91.025 C58.561,90.931 57.052,91.367 56.828,91.544 Z M69.24,91.956 C65.822,92.569 65.28,92.687 65.35,92.805 C65.386,92.864 65.869,93.159 66.435,93.465 L67.461,94.019 L68.993,93.76 C70.443,93.524 74.474,92.616 74.592,92.498 C74.675,92.428 74.616,92.392 73.543,91.874 C72.965,91.603 72.412,91.414 72.246,91.437 C72.081,91.461 70.726,91.697 69.24,91.956 Z M41.833,92.557 C40.666,92.911 38.686,93.453 37.825,93.666 C37.401,93.76 36.894,93.913 36.705,93.984 C36.364,94.125 36.364,94.125 36.612,94.232 C36.788,94.291 37.095,94.255 37.555,94.09 C38.38,93.807 41.586,92.994 42.682,92.793 C43.449,92.652 43.649,92.534 43.331,92.416 C43.036,92.298 42.576,92.334 41.833,92.557 Z M73.637,93.618 C72.388,93.937 70.797,94.302 70.089,94.408 C69.394,94.526 68.84,94.679 68.863,94.738 C68.922,94.915 73.484,97.65 74.191,97.945 L74.781,98.181 L77.315,97.674 C78.706,97.402 80.31,97.131 80.875,97.096 C81.453,97.049 81.912,96.978 81.912,96.919 C81.912,96.813 80.109,95.386 79.697,95.175 C79.472,95.057 79.284,95.08 78.565,95.327 C76.927,95.893 73.897,96.459 72.471,96.459 C71.881,96.459 71.598,96.236 71.858,95.976 C71.928,95.905 72.683,95.752 73.555,95.634 C74.427,95.504 75.429,95.339 75.783,95.268 C76.502,95.127 78.388,94.609 78.459,94.526 C78.494,94.502 78.152,94.279 77.704,94.031 C77.268,93.795 76.691,93.465 76.431,93.312 C76.172,93.171 75.948,93.041 75.936,93.041 C75.925,93.041 74.899,93.3 73.637,93.618 Z M42.187,93.654 C40.077,94.161 38.214,94.668 37.967,94.809 C37.849,94.868 37.991,95.009 38.403,95.268 L39.004,95.658 L40.561,95.234 C42.388,94.738 45.193,94.102 45.57,94.102 C45.723,94.102 45.841,94.066 45.841,94.007 C45.841,93.842 44.486,93.053 44.309,93.112 C44.215,93.147 43.26,93.394 42.187,93.654 Z M40.136,96.236 C40.1,96.27 40.49,96.624 40.997,97.025 L41.928,97.756 L44.851,96.978 C46.466,96.554 47.987,96.153 48.223,96.094 C48.47,96.035 48.67,95.941 48.67,95.893 C48.659,95.846 48.246,95.516 47.727,95.151 L46.808,94.491 L43.496,95.339 C41.68,95.799 40.159,96.212 40.136,96.236 Z M36.411,95.693 C36.411,95.917 36.564,96.848 36.764,97.768 C37.153,99.666 37.33,99.996 38.721,101.528 C40.148,103.084 43.331,106.067 45.653,108.012 C47.786,109.803 48.258,110.18 48.022,109.91 C47.893,109.756 47.798,109.615 47.822,109.591 C47.834,109.567 47.633,109.119 47.374,108.601 C47.114,108.083 46.737,107.186 46.548,106.632 L46.207,105.607 L45.228,105.595 C44.427,105.595 44.167,105.548 43.814,105.324 C42.859,104.734 42.022,103.391 41.668,101.894 C41.574,101.481 41.468,101.128 41.433,101.092 C41.409,101.057 41.256,101.116 41.102,101.221 C40.713,101.493 39.664,101.469 39.04,101.162 C37.896,100.609 37.26,99.194 37.153,96.931 C37.095,95.74 37.059,95.552 36.847,95.375 C36.517,95.127 36.411,95.198 36.411,95.693 Z M37.873,96.954 C38.05,98.569 38.356,99.442 38.993,100.078 C39.5,100.597 39.983,100.762 40.407,100.597 C40.749,100.455 40.843,100.29 41.256,99.253 C41.468,98.722 41.468,98.687 41.268,98.617 C41.161,98.569 41.008,98.451 40.926,98.357 C40.808,98.192 40.784,98.215 40.713,98.522 C40.572,99.112 40.207,99.406 39.652,99.406 C38.827,99.406 38.427,98.687 38.415,97.19 C38.415,96.731 38.368,96.577 38.238,96.577 C38.144,96.577 38.061,96.495 38.061,96.4 C38.061,96.306 38.002,96.224 37.932,96.224 C37.849,96.224 37.825,96.459 37.873,96.954 Z M46.101,97.473 C44.51,97.897 43.13,98.286 43.036,98.333 C42.918,98.404 43.083,98.605 43.672,99.088 C44.12,99.465 44.533,99.76 44.603,99.76 C44.662,99.76 45.358,99.548 46.136,99.276 C46.914,99.017 48.388,98.593 49.425,98.345 C50.45,98.098 51.323,97.862 51.358,97.827 C51.44,97.733 51.476,97.768 50.462,97.072 C49.72,96.554 49.554,96.495 49.295,96.589 C49.142,96.648 47.704,97.049 46.101,97.473 Z M78.942,98.122 C75.37,98.817 75.582,98.758 75.818,99.029 C76.077,99.312 76.49,100.243 76.49,100.55 C76.49,100.691 76.537,100.844 76.608,100.88 C76.738,100.962 82.078,99.795 82.431,99.619 C82.62,99.512 82.644,99.406 82.573,98.781 C82.526,98.381 82.431,97.874 82.372,97.662 C82.266,97.355 82.207,97.297 82.078,97.414 C81.995,97.485 80.581,97.803 78.942,98.122 Z M50.309,98.982 C48.081,99.548 45.594,100.349 45.594,100.503 C45.594,100.55 46.006,100.915 46.501,101.304 L47.409,102.023 L47.834,101.787 C48.529,101.398 53.433,100.114 54.235,100.114 C54.423,100.114 54.564,100.078 54.564,100.019 C54.564,99.937 52.56,98.475 52.431,98.463 C52.384,98.463 51.429,98.699 50.309,98.982 Z M42.27,100.267 C42.329,101.646 42.918,103.178 43.719,104.051 C44.321,104.699 44.839,104.9 45.441,104.711 C45.9,104.558 46.053,104.286 46.313,103.191 C46.455,102.566 46.455,102.566 46.124,102.294 C45.7,101.964 45.605,102.012 45.605,102.554 C45.605,103.355 44.851,103.791 44.215,103.343 C43.79,103.049 43.578,102.507 43.566,101.634 C43.554,101.08 43.496,100.821 43.39,100.821 C43.213,100.821 43.201,100.514 43.39,100.396 C43.472,100.337 43.342,100.161 43.001,99.866 C42.376,99.335 42.234,99.406 42.27,100.267 Z M80.604,100.868 C79.732,101.092 78.541,101.375 77.964,101.481 C77.374,101.587 76.832,101.74 76.738,101.811 C76.62,101.905 76.596,102.13 76.643,102.707 C76.691,103.132 76.667,103.791 76.62,104.18 C76.561,104.57 76.549,104.935 76.608,104.982 C76.655,105.029 77.268,104.923 77.964,104.734 C78.742,104.534 79.178,104.357 79.095,104.31 C79.013,104.251 78.895,104.263 78.848,104.31 C78.671,104.487 77.433,104.357 77.433,104.168 C77.433,104.004 77.61,103.945 79.496,103.485 C80.981,103.132 82.349,102.53 82.455,102.189 C82.561,101.846 82.714,100.432 82.655,100.314 C82.632,100.267 82.514,100.278 82.396,100.349 C82.278,100.408 81.465,100.644 80.604,100.868 Z M52.442,101.304 C50.922,101.705 49.354,102.106 48.965,102.189 C47.893,102.448 47.904,102.436 48.341,102.789 C48.552,102.966 48.989,103.343 49.307,103.627 C49.779,104.039 49.908,104.098 49.991,103.957 C50.073,103.803 52.006,103.143 55.507,102.071 C56.062,101.894 56.58,101.728 56.675,101.693 C56.851,101.634 55.59,100.585 55.342,100.585 C55.272,100.585 53.963,100.915 52.442,101.304 Z M55.802,102.825 C53.185,103.709 51.299,104.239 50.792,104.239 C50.545,104.239 50.309,104.286 50.274,104.334 C50.238,104.393 50.545,104.793 50.945,105.229 L51.676,106.008 L55.095,105.3 C56.969,104.911 58.655,104.558 58.843,104.511 C59.28,104.416 59.338,104.286 59.091,103.909 C58.926,103.662 57.641,102.235 57.582,102.235 C57.57,102.235 56.769,102.507 55.802,102.825 Z M47.067,104.192 C46.891,105.159 47.008,105.701 47.798,107.528 C48.47,109.096 48.777,109.497 49.578,109.851 C50.309,110.18 50.639,110.204 50.993,109.957 C51.264,109.768 51.617,108.86 51.617,108.377 C51.617,107.894 50.639,106.184 50.439,106.302 C50.38,106.338 50.309,106.574 50.262,106.821 C50.097,107.823 49.083,108.117 48.647,107.292 C48.388,106.774 48.199,105.748 48.199,104.711 C48.187,103.968 48.175,103.933 47.763,103.615 C47.527,103.438 47.315,103.32 47.28,103.355 C47.244,103.391 47.15,103.768 47.067,104.192 Z M57.17,105.713 C56.18,105.937 54.694,106.231 53.869,106.373 C53.056,106.515 52.313,106.644 52.231,106.668 C52.124,106.703 52.136,106.821 52.313,107.163 C52.726,107.976 52.914,108.978 52.914,110.369 C52.914,111.525 52.938,111.678 53.103,111.619 C53.209,111.583 54.753,111.088 56.545,110.534 C58.348,109.98 59.881,109.462 59.952,109.403 C60.105,109.285 60.176,108 60.034,107.87 C59.999,107.823 58.82,108.188 57.417,108.672 C55.614,109.285 54.694,109.544 54.294,109.544 C53.81,109.544 53.728,109.509 53.763,109.332 C53.787,109.178 54.47,108.908 56.509,108.224 C58.007,107.717 59.338,107.304 59.468,107.304 C59.94,107.304 60.011,107.056 59.81,106.113 C59.716,105.631 59.633,105.218 59.633,105.194 C59.633,105.17 59.492,105.194 59.303,105.241 C59.127,105.288 58.172,105.501 57.17,105.713 Z M50.604,110.841 C50.25,110.841 49.767,110.758 49.531,110.664 C49.307,110.569 48.977,110.464 48.8,110.428 C48.517,110.381 48.529,110.405 48.965,110.794 C49.779,111.512 51.44,112.845 51.511,112.845 C51.7,112.845 51.888,112.102 51.947,111.194 L52.006,110.204 L51.629,110.523 C51.311,110.782 51.134,110.841 50.604,110.841 Z M57.005,111.253 C55.496,111.737 53.951,112.184 53.574,112.232 C53.138,112.279 52.844,112.385 52.796,112.491 C52.631,112.809 52.419,113.564 52.466,113.623 C52.501,113.646 52.914,113.528 53.397,113.363 C54.352,113.033 55.307,112.75 57.099,112.291 C58.69,111.89 59.327,111.548 59.633,110.959 C59.881,110.464 59.916,110.369 59.798,110.369 C59.763,110.369 58.502,110.77 57.005,111.253 Z" id="Fill-20" fill="#000000"></path>
            <path d="M66.577,41.633 C66.73,41.786 66.836,42.117 66.895,42.588 C66.966,43.19 67.025,43.342 67.307,43.543 C67.59,43.743 67.649,43.873 67.649,44.274 C67.649,44.887 67.449,45.653 67.225,45.901 C67.06,46.078 67.225,46.101 69.229,46.148 C70.431,46.171 71.445,46.23 71.492,46.278 C71.527,46.313 71.539,46.431 71.504,46.537 C71.433,46.69 70.962,46.714 67.838,46.714 C64.525,46.714 64.242,46.726 64.183,46.914 C64.148,47.032 64.019,47.657 63.877,48.305 C63.618,49.567 62.451,54.105 62.238,54.635 C62.168,54.824 62.026,54.966 61.92,54.966 C61.614,54.966 61.779,54.01 62.757,50.074 C63.24,48.152 63.641,46.525 63.641,46.466 C63.641,46.407 63.076,45.877 62.368,45.276 C60.812,43.932 60.223,43.342 60.223,43.119 C60.223,42.671 60.918,43.06 62.403,44.344 C62.851,44.733 63.252,45.028 63.299,44.993 C63.346,44.969 63.417,44.604 63.464,44.192 C63.547,43.413 63.724,43.119 64.172,43.036 C64.313,43.013 64.525,42.753 64.726,42.329 C64.903,41.963 65.15,41.598 65.28,41.539 C65.657,41.327 66.329,41.386 66.577,41.633 Z" id="Fill-21" fill="#000000"></path>
            <path d="M55.708,73.685 C55.625,74.428 55.366,74.934 54.458,76.16 C53.975,76.809 53.669,77.127 53.503,77.127 C53.091,77.127 53.221,76.573 53.822,75.724 C54.128,75.3 54.6,74.546 54.859,74.062 C55.142,73.52 55.413,73.166 55.555,73.143 C55.755,73.096 55.767,73.155 55.708,73.685 Z" id="Fill-22" fill="#000000"></path>
            <path d="M63.346,104.381 C63.724,104.581 63.877,104.841 63.877,105.3 C63.877,106.113 63.111,106.467 62.168,106.079 C61.46,105.784 61.319,105.111 61.838,104.57 C62.085,104.31 62.262,104.239 62.628,104.239 C62.899,104.239 63.217,104.31 63.346,104.381 Z" id="Fill-23" fill="#000000"></path>
            <path d="M32.211,25.79 C32.027,25.878 30.616,26.271 28.755,27.326 C26.878,28.341 24.607,30.047 22.321,31.759 C20.045,33.477 17.628,35.073 15.647,35.923 C13.668,36.787 12.238,36.964 12.218,36.859 C12.173,36.697 13.504,36.268 15.296,35.229 C17.096,34.199 19.289,32.501 21.444,30.65 C23.601,28.811 25.844,26.931 27.82,25.738 C29.77,24.508 31.375,23.985 31.579,23.893 C32.479,23.635 33.302,23.882 33.409,24.422 C33.516,24.966 32.979,25.575 32.211,25.79" id="Fill-24" fill="#0A0A08"></path>
            <path d="M41.163,18.497 C41.884,18.082 60.673,7.787 60.949,8.266 C61.224,8.744 42.882,19.816 42.161,20.23 C41.44,20.645 40.632,20.594 40.357,20.115 C40.081,19.636 40.442,18.912 41.163,18.497" id="Fill-25" fill="#0A0A08"></path>
            <path d="M36.536,121.459 C36.258,121.248 34.19,119.817 30.813,118.254 C29.14,117.448 27.162,116.571 25.123,115.447 C23.085,114.332 21.044,112.998 19.044,111.662 C17.044,110.327 15.076,108.991 13.172,107.862 C11.272,106.729 9.438,105.799 7.809,105.143 C7.612,105.056 7.389,104.983 7.159,104.843 C6.908,104.695 6.709,104.478 6.612,104.222 C6.427,103.66 6.541,103.299 6.537,102.937 C6.582,102.221 6.621,101.594 6.654,101.072 C6.731,100.039 6.805,99.451 6.874,99.452 C6.943,99.452 7.003,100.042 7.057,101.077 C7.078,101.599 7.103,102.227 7.132,102.944 C7.149,103.296 7.13,103.731 7.24,103.935 C7.296,104.056 7.404,104.15 7.525,104.208 C7.664,104.281 7.86,104.336 8.076,104.412 C9.792,104.972 11.729,105.825 13.722,106.888 C15.717,107.947 17.763,109.216 19.807,110.471 C21.851,111.729 23.9,112.969 25.899,113.981 C27.889,114.999 29.867,115.81 31.585,116.581 C33.307,117.347 34.772,118.065 35.822,118.665 C36.873,119.266 37.522,119.706 37.678,119.817 C38.95,120.695 39.562,121.898 39.181,122.286 C38.79,122.689 37.678,122.245 36.536,121.459" id="Fill-26" fill="#0A0A08"></path>
            <path d="M119.875,75.165 C119.869,76.006 119.798,87.275 119.728,98.351 C119.711,99.739 119.694,101.124 119.678,102.485 C119.652,103.188 119.588,103.959 119.234,104.694 C118.886,105.45 118.205,105.971 117.599,106.287 C116.972,106.614 116.398,106.832 115.842,107.088 C115.286,107.342 114.745,107.597 114.224,107.858 C113.182,108.377 112.216,108.906 111.339,109.419 C107.829,111.476 105.746,113.235 105.642,113.108 C105.6,113.059 106.066,112.559 106.965,111.767 C107.865,110.978 109.204,109.902 110.926,108.758 C111.786,108.186 112.741,107.596 113.779,107.015 C114.297,106.724 114.837,106.438 115.394,106.153 C115.95,105.867 116.548,105.604 117.051,105.312 C117.561,105.011 117.954,104.662 118.149,104.189 C118.36,103.713 118.41,103.109 118.406,102.464 C118.375,101.113 118.344,99.738 118.313,98.36 C118.104,87.286 117.891,76.019 117.875,75.177 C117.864,73.491 118.303,72.122 118.855,72.118 C119.408,72.115 119.864,73.479 119.875,75.165" id="Fill-27" fill="#0A0A08"></path>
            <path d="M118.466,47.58 C118.446,47.474 118.38,47.032 118.373,46.384 C118.358,45.735 118.416,44.887 118.46,43.965 C118.495,43.049 118.496,42.041 118.126,41.182 C117.8,40.326 116.912,39.576 115.951,38.921 C114.003,37.637 111.655,36.717 110.159,35.552 C108.616,34.423 108.064,33.227 108.169,33.18 C108.299,33.086 109.031,34.055 110.585,34.9 C112.107,35.802 114.426,36.466 116.694,37.718 C117.257,38.039 117.805,38.399 118.323,38.839 C118.832,39.278 119.32,39.833 119.624,40.47 C120.255,41.744 120.28,43.011 120.303,43.99 C120.265,45.977 120.382,47.103 120.439,47.255 C120.529,47.859 120.325,48.458 119.825,48.717 C119.343,48.973 118.603,48.463 118.466,47.58" id="Fill-28" fill="#0A0A08"></path>
            <path d="M7.28,84.823 C7.344,84.441 7.818,81.76 7.55,77.761 C7.282,73.754 6.941,68.459 6.863,63.252 C6.761,58.036 6.863,52.87 7.061,49.016 C7.255,45.161 7.521,42.617 7.653,42.624 C7.797,42.63 7.794,45.183 7.84,49.031 C7.881,52.878 7.995,58.021 8.276,63.201 C8.536,68.395 9.015,73.573 9.389,77.64 C9.555,79.682 9.58,81.465 9.498,82.78 C9.419,84.094 9.286,84.927 9.256,85.13 C9.005,86.768 8.201,87.937 7.675,87.783 C7.14,87.629 7.052,86.321 7.28,84.823" id="Fill-29" fill="#0A0A08"></path>
            <path d="M67.618,134.991 C67.559,135.013 66.953,135.064 66.353,135.614 C66.023,135.886 65.69,136.496 64.869,137.041 C64.474,137.281 63.953,137.486 63.335,137.399 C62.681,137.296 62.29,136.878 62.056,136.665 C60.086,134.733 57.477,133.658 57.562,133.406 C57.6,133.281 58.324,133.349 59.365,133.694 C60.403,134.035 61.743,134.682 62.956,135.574 C63.263,135.81 63.449,135.893 63.518,135.867 C63.612,135.86 63.785,135.796 63.949,135.661 C64.26,135.426 64.564,134.869 65.012,134.349 C65.987,133.261 67.082,133.074 67.196,133.036 C67.776,132.91 68.235,133.394 68.192,133.94 C68.15,134.495 67.894,134.925 67.618,134.991" id="Fill-30" fill="#0A0A08"></path>
            <path d="M98.342,117.701 C98.149,117.793 96.715,118.357 94.767,119.277 C93.796,119.743 92.702,120.309 91.598,120.993 C90.496,121.67 89.386,122.515 88.243,123.361 C87.106,124.207 85.901,125.034 84.711,125.662 C83.527,126.298 82.388,126.79 81.406,127.174 C79.437,127.934 78.103,128.319 78.051,128.199 C77.993,128.066 79.238,127.432 81.081,126.467 C82,125.98 83.062,125.398 84.143,124.699 C85.229,124.007 86.293,123.161 87.367,122.25 C88.44,121.346 89.539,120.401 90.684,119.609 C91.82,118.818 92.944,118.166 93.933,117.634 C95.918,116.582 97.346,115.962 97.541,115.869 C98.336,115.522 99.154,115.659 99.372,116.166 C99.591,116.673 99.126,117.359 98.342,117.701" id="Fill-31" fill="#0A0A08"></path>
        </g>
    </g>
</svg>