<svg xmlns="http://www.w3.org/2000/svg" xmlns:xlink="http://www.w3.org/1999/xlink" viewBox="0 0 124.96 143.77"><defs><style>.cls-1{fill:none;clip-rule:evenodd;}.cls-2{fill:#bf0000;}.cls-3{fill:#fff;}.cls-4{fill:#b70000;stroke:#fff;stroke-miterlimit:10;stroke-width:2px;}.cls-5{clip-path:url(#clip-path);}</style><clipPath id="clip-path"><path class="cls-1" d="M81,76.26l3.7-.65L81.78,83l3.1,8.93L81,92.59l-2.34-6.85V93l-3.89.68V71.08l3.89-.68V82.34ZM73.85,86.52V90a5.83,5.83,0,0,1-.23,1.63,4.34,4.34,0,0,1-2,2.54,5.14,5.14,0,0,1-1.82.65l-.64.11q-2.28.4-3.28-.64a4,4,0,0,1-1-2.86V83.25a5.82,5.82,0,0,1,1-3.44A4.74,4.74,0,0,1,69.15,78l.76-.13a4.89,4.89,0,0,1,1.88,0,2.44,2.44,0,0,1,1.21.62,2.57,2.57,0,0,1,.65,1.13,5.48,5.48,0,0,1,.2,1.53v2.7l-3.58.63V82.17a2,2,0,0,0-.14-.81q-.14-.29-.59-.22a.69.69,0,0,0-.56.39,2.19,2.19,0,0,0-.14.86v8.23a1.67,1.67,0,0,0,.12.71q.12.25.55.18a.75.75,0,0,0,.58-.36,1.5,1.5,0,0,0,.15-.71V87.15ZM54.6,91A4.75,4.75,0,0,1,55,88.87a4.56,4.56,0,0,1,1.29-1.53A8.85,8.85,0,0,1,57,86.8l.93-.62.9-.58a6.29,6.29,0,0,0,.61-.42.54.54,0,0,0,.18-.2,1.11,1.11,0,0,0,.06-.45v-.88a.94.94,0,0,0-.17-.67.57.57,0,0,0-.5-.09l-.12,0a.69.69,0,0,0-.53.32,1.42,1.42,0,0,0-.14.68v1.61l-3.46.6V83.87a4.54,4.54,0,0,1,.15-1.13,3.1,3.1,0,0,1,.58-1.13,4,4,0,0,1,1.17-1A5.83,5.83,0,0,1,58.61,80l.7-.12a6.55,6.55,0,0,1,2-.09,2.46,2.46,0,0,1,1.28.52,2.09,2.09,0,0,1,.65,1,5,5,0,0,1,.18,1.41v9a.41.41,0,0,0,.11.33q.11.09.47,0l.43-.07v3.46l-3.61.63a.79.79,0,0,1-.85-.28,2.49,2.49,0,0,1-.27-1.38,6.69,6.69,0,0,1-.39.72,4.61,4.61,0,0,1-.59.76,4.06,4.06,0,0,1-.79.64,2.74,2.74,0,0,1-1,.37l-.12,0a1.77,1.77,0,0,1-1-.07,1.64,1.64,0,0,1-.7-.52,2.37,2.37,0,0,1-.41-.82,3.7,3.7,0,0,1-.14-1Zm5.1-2.71-.47.39a3.45,3.45,0,0,0-.53.55,1.66,1.66,0,0,0-.29.55,3,3,0,0,0-.08.76v2a1.39,1.39,0,0,0,.14.69.43.43,0,0,0,.5.17q.73-.13.73-1.1ZM47.37,98.46l-4,.71V76.58l4-.71V84.5l2.13-.37V75.5l4-.71V97.39l-4,.71V88.56l-2.13.37ZM85.1,63.33,81.4,64V59.49l3.7-.65ZM75,60v-5.1l4.11-.72V59.4a9,9,0,0,1-.23,2A5.62,5.62,0,0,1,78,63.29a5.21,5.21,0,0,1-1.48,1.46,5.92,5.92,0,0,1-2.29.85l-.84.15a5.41,5.41,0,0,1-2.44,0,3,3,0,0,1-1.49-.94,3.63,3.63,0,0,1-.75-1.61,9.94,9.94,0,0,1-.2-2V48A8.4,8.4,0,0,1,68.8,46a5.24,5.24,0,0,1,2.33-3.22,6.21,6.21,0,0,1,2.3-.84l.84-.15a5.69,5.69,0,0,1,2.43,0,2.85,2.85,0,0,1,1.46.88,3.36,3.36,0,0,1,.72,1.51,9.1,9.1,0,0,1,.19,1.88v3.89L75,50.66V46.92a1.57,1.57,0,0,0-.23-1,.8.8,0,0,0-.82-.2,1.1,1.1,0,0,0-.81.47,2.07,2.07,0,0,0-.22,1V60.36q0,1.4,1.06,1.22a1,1,0,0,0,.79-.53A2.18,2.18,0,0,0,75,60ZM60.34,55.21v8a1.84,1.84,0,0,0,.16.81q.16.32.65.23a.82.82,0,0,0,.68-.48,2.25,2.25,0,0,0,.16-.85v-8a1.57,1.57,0,0,0-.17-.81q-.17-.28-.67-.19a.82.82,0,0,0-.64.42A1.94,1.94,0,0,0,60.34,55.21Zm-4,8.73V56a5.66,5.66,0,0,1,1.15-3.69,5.09,5.09,0,0,1,3.21-1.77l.93-.16a3.75,3.75,0,0,1,3.22.64A4,4,0,0,1,66,54.25v7.94a6.36,6.36,0,0,1-.3,2,5.51,5.51,0,0,1-.87,1.68,5.09,5.09,0,0,1-1.39,1.25,5.15,5.15,0,0,1-1.84.68l-.93.16a4.7,4.7,0,0,1-2,0,2.83,2.83,0,0,1-1.35-.76,3.3,3.3,0,0,1-.78-1.37A6.31,6.31,0,0,1,56.32,63.94ZM47.49,66l.81-.14a1.29,1.29,0,0,0,1-.56,2.6,2.6,0,0,0,.25-1.27V51.62a1.94,1.94,0,0,0-.25-1.15.82.82,0,0,0-.84-.21l-.93.16ZM43.35,47.47l5.88-1a4,4,0,0,1,3.42.55q1.09,1,1.09,3.61V63.67a7.09,7.09,0,0,1-1,4,5,5,0,0,1-3.52,1.94l-5.88,1Z"/></clipPath></defs><title>logo-doc-hack</title><g id="Layer_4" data-name="Layer 4"><g id="Layer_5" data-name="Layer 5"><g id="Layer_6" data-name="Layer 6"><polygon class="cls-2" points="3.13 36.39 3.13 105.95 62.53 140.39 121.06 105.95 121.06 38.04 62.53 3.77 3.13 36.39"/></g></g><g id="svg3686"><rect id="rect4518" class="cls-3" x="12.73" y="29.57" width="2.83" height="28.43"/><circle class="cls-4" cx="14.14" cy="58.3" r="2.59"/><rect id="rect4518-2" data-name="rect4518" class="cls-3" x="61.38" y="7.19" width="2.83" height="20.57"/><circle class="cls-4" cx="62.81" cy="27.1" r="2.59"/><polygon id="rect4518-3" data-name="rect4518" class="cls-3" points="22.98 28.85 24.39 26.39 29.44 29.3 29.44 32.57 22.98 28.85"/><rect id="rect4518-4" data-name="rect4518" class="cls-3" x="26.61" y="30.32" width="2.83" height="16.39"/><circle class="cls-4" cx="28.03" cy="49.18" r="2.59"/><rect id="rect4518-5" data-name="rect4518" class="cls-3" x="99.71" y="67.58" width="23.76" height="2.83"/><circle class="cls-4" cx="101.23" cy="68.99" r="2.59"/><rect id="rect4518-6" data-name="rect4518" class="cls-3" x="95.9" y="82.93" width="24.16" height="2.83"/><circle class="cls-4" cx="96.42" cy="84.34" r="2.59"/><rect id="rect4518-7" data-name="rect4518" class="cls-3" x="82.26" y="108.15" width="31.55" height="2.83"/><rect id="rect4518-8" data-name="rect4518" class="cls-3" x="62.64" y="109.61" width="2.71" height="14.4"/><circle class="cls-4" cx="64" cy="110.62" r="2.59"/><rect id="rect4518-9" data-name="rect4518" class="cls-3" x="32.08" y="121.17" width="33.29" height="2.83"/><rect id="rect4518-10" data-name="rect4518" class="cls-3" x="20.25" y="107.04" width="2.83" height="9.92"/><rect id="rect4518-11" data-name="rect4518" class="cls-3" x="20.25" y="107.04" width="15.98" height="2.83"/><rect id="rect4518-12" data-name="rect4518" class="cls-3" x="3.11" y="92.26" width="19.47" height="2.83"/><circle class="cls-4" cx="25.08" cy="93.67" r="2.59" transform="translate(-43.34 24.96) rotate(-29.89)"/><rect id="rect4518-13" data-name="rect4518" class="cls-3" x="3.13" y="76.36" width="25.11" height="2.83"/><circle class="cls-4" cx="29.95" cy="77.78" r="2.59" transform="translate(-34.78 25.27) rotate(-29.89)"/><rect id="rect4518-14" data-name="rect4518" class="cls-3" x="42.57" y="14.03" width="2.83" height="26.14"/><circle class="cls-4" cx="44" cy="38.38" r="2.59"/><rect id="rect4518-15" data-name="rect4518" class="cls-3" x="98.64" y="25.67" width="2.83" height="11.13"/><rect id="rect4518-16" data-name="rect4518" class="cls-3" x="86.49" y="33.96" width="13.72" height="2.83"/><circle class="cls-4" cx="86.62" cy="35.38" r="2.59" transform="translate(-6.11 47.87) rotate(-29.89)"/><rect id="rect4518-17" data-name="rect4518" class="cls-3" x="106.12" y="45.33" width="2.83" height="7.95"/><rect id="rect4518-18" data-name="rect4518" class="cls-3" x="96.93" y="51.86" width="12.03" height="2.83"/><circle class="cls-4" cx="96.93" cy="53.28" r="2.59" transform="translate(-13.66 55.39) rotate(-29.89)"/><rect id="rect4518-19" data-name="rect4518" class="cls-3" x="106.12" y="45.33" width="15.92" height="2.83"/><circle class="cls-4" cx="83.25" cy="109.88" r="2.59" transform="translate(-43.68 56.1) rotate(-29.89)"/><rect id="rect4518-20" data-name="rect4518" class="cls-3" x="105.56" y="94.39" width="13.98" height="2.83"/><circle class="cls-4" cx="104.42" cy="95.81" r="2.59" transform="translate(-33.86 64.78) rotate(-29.89)"/><circle class="cls-4" cx="36.23" cy="108.4" r="2.59"/></g><g id="Layer_3" data-name="Layer 3"><path id="path4497" class="cls-3" d="M124.64,108.22,125,36.33,62.8,0,.32,35.55,0,107.43l62.16,36.33Zm-6.22-3.63-56.23,32L6.25,103.88l.29-64.7,56.23-32,55.94,32.7Z"/></g></g><g id="Layer_7" data-name="Layer 7"><g class="cls-5"><rect class="cls-3" x="42.58" y="40.89" width="43.28" height="59.04"/></g></g></svg>