<?xml version="1.0" encoding="UTF-8"?>
<svg width="125px" height="144px" viewBox="0 0 125 144" version="1.1" xmlns="http://www.w3.org/2000/svg" xmlns:xlink="http://www.w3.org/1999/xlink">
    <!-- Generator: Sketch 39.1 (31720) - http://www.bohemiancoding.com/sketch -->
    <title>hacksmiths-sticker-white</title>
    <desc>Created with Sketch.</desc>
    <defs></defs>
    <g id="Page-1" stroke="none" stroke-width="1" fill="none" fill-rule="evenodd">
        <g id="hacksmiths-sticker-white" fill="#C52085">
            <path d="M103.382,94.97 C103.015,95.184 102.586,95.24 102.174,95.127 C101.764,95.017 101.421,94.752 101.209,94.384 L101.209,94.383 C100.998,94.015 100.941,93.585 101.052,93.175 C101.163,92.765 101.427,92.422 101.795,92.21 C102.045,92.067 102.318,91.998 102.587,91.998 C103.139,91.998 103.676,92.286 103.97,92.796 C104.182,93.165 104.238,93.594 104.126,94.005 C104.016,94.415 103.751,94.758 103.382,94.97 L103.382,94.97 Z M101.223,84.576 C101.223,85.453 100.508,86.168 99.63,86.168 C98.752,86.168 98.038,85.453 98.038,84.576 C98.038,83.698 98.752,82.983 99.63,82.983 C100.508,82.983 101.223,83.698 101.223,84.576 L101.223,84.576 Z M90.35,76.004 C90.35,76.882 89.636,77.597 88.758,77.597 C87.88,77.597 87.165,76.882 87.165,76.004 C87.165,75.126 87.88,74.412 88.758,74.412 C89.636,74.412 90.35,75.126 90.35,76.004 L90.35,76.004 Z M101.223,66.917 C101.223,67.795 100.508,68.51 99.63,68.51 C98.752,68.51 98.038,67.795 98.038,66.917 C98.038,66.039 98.752,65.325 99.63,65.325 C100.508,65.325 101.223,66.039 101.223,66.917 L101.223,66.917 Z M85.391,43.819 C85.391,44.697 84.677,45.411 83.799,45.411 C82.921,45.411 82.206,44.697 82.206,43.819 C82.206,42.941 82.921,42.226 83.799,42.226 C84.677,42.226 85.391,42.941 85.391,43.819 L85.391,43.819 Z M91.35,33.169 C92.228,33.169 92.943,33.884 92.943,34.762 C92.943,35.64 92.228,36.354 91.35,36.354 C90.472,36.354 89.758,35.64 89.758,34.762 C89.758,33.884 90.472,33.169 91.35,33.169 L91.35,33.169 Z M74.122,33.169 C75,33.169 75.715,33.884 75.715,34.762 C75.715,35.64 75,36.354 74.122,36.354 C73.245,36.354 72.531,35.64 72.531,34.762 C72.531,33.884 73.245,33.169 74.122,33.169 L74.122,33.169 Z M45.419,43.943 C45.419,44.821 44.706,45.536 43.828,45.536 C42.95,45.536 42.235,44.821 42.235,43.943 C42.235,43.065 42.95,42.351 43.828,42.351 C44.706,42.351 45.419,43.065 45.419,43.943 L45.419,43.943 Z M34.026,44.819 C34.904,44.819 35.619,45.533 35.619,46.411 C35.619,47.289 34.904,48.003 34.026,48.003 C33.148,48.003 32.434,47.289 32.434,46.411 C32.434,45.533 33.148,44.819 34.026,44.819 L34.026,44.819 Z M14.57,69.263 C14.82,69.12 15.091,69.052 15.361,69.052 C15.913,69.052 16.45,69.338 16.744,69.85 C17.181,70.611 16.917,71.586 16.157,72.024 C15.396,72.462 14.42,72.198 13.983,71.437 C13.545,70.676 13.809,69.7 14.57,69.263 L14.57,69.263 Z M32.387,79.6 C32.498,79.189 32.762,78.846 33.13,78.634 C33.375,78.493 33.647,78.421 33.921,78.421 C34.061,78.421 34.201,78.44 34.339,78.477 C34.75,78.588 35.092,78.852 35.304,79.222 C35.516,79.59 35.573,80.019 35.461,80.43 C35.351,80.84 35.086,81.183 34.718,81.395 C34.348,81.607 33.916,81.662 33.509,81.552 C33.099,81.441 32.756,81.177 32.544,80.808 C32.333,80.439 32.276,80.01 32.387,79.6 L32.387,79.6 Z M24.289,87.943 C24.534,87.802 24.805,87.73 25.08,87.73 C25.219,87.73 25.36,87.748 25.498,87.786 C25.908,87.897 26.25,88.161 26.462,88.53 C26.9,89.291 26.637,90.266 25.876,90.703 C25.118,91.142 24.139,90.878 23.702,90.117 C23.264,89.355 23.528,88.38 24.289,87.943 L24.289,87.943 Z M32.387,98.222 C32.498,97.812 32.762,97.469 33.13,97.257 L33.131,97.257 C33.375,97.116 33.647,97.044 33.922,97.044 C34.061,97.044 34.202,97.063 34.339,97.1 C34.75,97.21 35.092,97.475 35.304,97.844 C35.743,98.605 35.479,99.58 34.718,100.018 C34.349,100.23 33.92,100.287 33.509,100.174 C33.099,100.064 32.756,99.799 32.544,99.43 C32.333,99.062 32.276,98.632 32.387,98.222 L32.387,98.222 Z M42.863,107.444 C43.155,107.213 43.503,107.101 43.849,107.101 C44.32,107.101 44.786,107.307 45.1,107.703 C45.645,108.391 45.529,109.395 44.84,109.94 C44.152,110.485 43.148,110.368 42.604,109.681 C42.059,108.993 42.175,107.99 42.863,107.444 L42.863,107.444 Z M51.593,118.409 C51.704,117.997 51.968,117.655 52.337,117.443 C53.097,117.004 54.074,117.268 54.511,118.03 C54.949,118.79 54.685,119.766 53.923,120.203 C53.554,120.415 53.125,120.469 52.715,120.361 C52.305,120.249 51.962,119.986 51.75,119.616 C51.539,119.247 51.482,118.819 51.593,118.409 L51.593,118.409 Z M68.966,103.885 C68.633,104.149 68.218,104.266 67.793,104.219 C67.371,104.17 66.993,103.959 66.729,103.626 C66.183,102.938 66.299,101.934 66.988,101.389 C67.28,101.158 67.628,101.045 67.975,101.045 C68.445,101.045 68.911,101.252 69.225,101.648 C69.489,101.982 69.608,102.398 69.559,102.82 C69.51,103.243 69.299,103.62 68.966,103.885 L68.966,103.885 Z M90.097,109.805 C90.097,110.683 89.383,111.397 88.505,111.397 C87.627,111.397 86.913,110.683 86.913,109.805 C86.913,108.927 87.627,108.212 88.505,108.212 C89.383,108.212 90.097,108.927 90.097,109.805 L90.097,109.805 Z M112.147,108.388 L91.803,108.388 C91.252,107.11 89.982,106.212 88.505,106.212 C86.524,106.212 84.912,107.824 84.912,109.805 C84.912,111.785 86.524,113.397 88.505,113.397 C89.982,113.397 91.252,112.499 91.803,111.222 L107.165,111.222 L79.519,126.952 L79.519,113.116 C80.796,112.565 81.694,111.295 81.694,109.818 C81.694,107.836 80.083,106.225 78.101,106.225 C76.121,106.225 74.509,107.836 74.509,109.818 C74.509,111.295 75.407,112.565 76.684,113.116 L76.684,128.565 L62.191,136.812 L49.858,129.603 L69.333,129.603 L69.333,105.951 C69.639,105.826 69.936,105.667 70.208,105.452 C71.761,104.221 72.022,101.957 70.792,100.406 C69.561,98.853 67.295,98.591 65.746,99.822 C64.194,101.052 63.931,103.316 65.162,104.868 C65.558,105.369 66.067,105.72 66.621,105.945 L66.621,126.768 L45.008,126.768 L33.841,120.241 L49.848,120.241 C49.902,120.365 49.947,120.493 50.016,120.613 C50.494,121.445 51.267,122.04 52.194,122.291 C52.505,122.375 52.822,122.417 53.136,122.417 C53.756,122.417 54.369,122.255 54.921,121.938 C56.637,120.951 57.232,118.75 56.245,117.033 C55.258,115.316 53.058,114.721 51.341,115.708 C50.659,116.1 50.148,116.697 49.844,117.406 L28.992,117.406 L23.082,113.952 L23.082,110.11 L40.567,110.11 C40.689,110.393 40.836,110.67 41.037,110.923 C41.745,111.817 42.795,112.283 43.855,112.283 C44.637,112.283 45.424,112.03 46.083,111.507 C47.635,110.277 47.897,108.013 46.666,106.461 C45.437,104.91 43.173,104.646 41.62,105.877 C41.139,106.259 40.797,106.746 40.57,107.275 L20.248,107.275 L20.248,112.295 L6.248,104.112 L6.266,100.055 L30.642,100.055 C30.696,100.18 30.741,100.307 30.81,100.427 C31.288,101.259 32.061,101.855 32.988,102.105 C33.299,102.19 33.616,102.231 33.93,102.231 C34.55,102.231 35.162,102.069 35.715,101.752 C36.546,101.274 37.142,100.499 37.392,99.574 C37.642,98.647 37.517,97.678 37.039,96.847 C36.561,96.015 35.788,95.419 34.861,95.169 C33.935,94.92 32.966,95.045 32.133,95.523 C31.453,95.915 30.942,96.511 30.638,97.22 L6.279,97.22 L6.307,90.74 L21.8,90.74 C21.854,90.865 21.898,90.993 21.967,91.114 C22.631,92.268 23.843,92.914 25.089,92.914 C25.696,92.914 26.31,92.761 26.874,92.438 C28.59,91.45 29.184,89.25 28.197,87.533 C27.719,86.701 26.946,86.105 26.019,85.855 C25.094,85.606 24.125,85.731 23.292,86.208 C22.594,86.61 22.093,87.217 21.797,87.906 L6.32,87.906 L6.349,81.432 L30.642,81.432 C30.696,81.557 30.741,81.685 30.81,81.805 C31.288,82.637 32.061,83.233 32.988,83.483 C33.299,83.567 33.616,83.608 33.93,83.608 C34.55,83.608 35.162,83.446 35.714,83.129 C36.546,82.651 37.142,81.877 37.392,80.951 C37.642,80.025 37.517,79.057 37.039,78.225 C36.561,77.393 35.788,76.797 34.861,76.546 C33.935,76.297 32.966,76.423 32.134,76.9 C31.453,77.292 30.942,77.888 30.638,78.597 L6.361,78.597 L6.39,72.061 L12.082,72.061 C12.136,72.185 12.179,72.313 12.249,72.433 C12.913,73.588 14.125,74.235 15.37,74.235 C15.976,74.235 16.59,74.081 17.153,73.758 C18.871,72.771 19.464,70.571 18.478,68.853 C17.491,67.137 15.291,66.542 13.574,67.529 C12.875,67.93 12.374,68.537 12.078,69.226 L6.403,69.226 L6.535,39.415 L15.726,34.186 L15.726,43.237 C14.449,43.788 13.551,45.058 13.551,46.536 C13.551,48.516 15.163,50.128 17.143,50.128 C19.125,50.128 20.736,48.516 20.736,46.536 C20.736,45.058 19.838,43.788 18.561,43.237 L18.561,32.573 L24.172,29.38 L24.172,43.112 C22.894,43.664 21.996,44.934 21.996,46.411 C21.996,48.392 23.608,50.003 25.589,50.003 C27.57,50.003 29.181,48.392 29.181,46.411 C29.181,44.934 28.284,43.664 27.006,43.113 L27.006,27.767 L29.471,26.365 L32.609,28.169 L32.609,43.113 C31.331,43.664 30.434,44.934 30.434,46.411 C30.434,48.392 32.045,50.003 34.026,50.003 C36.007,50.003 37.619,48.392 37.619,46.411 C37.619,44.934 36.721,43.664 35.443,43.113 L35.443,26.529 L32.329,24.739 L34.751,23.361 L61.115,38.522 L61.115,42.706 L47.186,42.706 C46.68,41.336 45.372,40.351 43.828,40.351 C41.846,40.351 40.235,41.962 40.235,43.943 C40.235,45.924 41.846,47.536 43.828,47.536 C45.232,47.536 46.437,46.718 47.028,45.541 L63.95,45.541 L63.95,36.897 L63.941,36.897 L63.95,36.882 L37.609,21.735 L43.474,18.398 L70.614,34.005 C70.562,34.249 70.531,34.502 70.531,34.762 C70.531,36.743 72.142,38.354 74.122,38.354 C76.104,38.354 77.715,36.743 77.715,34.762 C77.715,32.781 76.104,31.169 74.122,31.169 C73.447,31.169 72.822,31.368 72.281,31.694 L46.332,16.772 L52.272,13.392 L87.884,33.87 C87.81,34.157 87.758,34.452 87.758,34.762 C87.758,36.743 89.37,38.354 91.35,38.354 C93.331,38.354 94.943,36.743 94.943,34.762 C94.943,32.781 93.331,31.169 91.35,31.169 C90.732,31.169 90.159,31.34 89.651,31.617 L55.13,11.766 L62.766,7.421 L118.709,40.121 L118.699,42.402 L87.098,42.402 C86.547,41.124 85.276,40.226 83.799,40.226 C81.818,40.226 80.206,41.838 80.206,43.819 C80.206,45.8 81.818,47.411 83.799,47.411 C85.276,47.411 86.546,46.514 87.097,45.236 L118.686,45.236 L118.597,65.5 L102.929,65.5 C102.378,64.223 101.108,63.325 99.63,63.325 C97.65,63.325 96.038,64.936 96.038,66.917 C96.038,68.898 97.65,70.51 99.63,70.51 C101.108,70.51 102.378,69.612 102.929,68.335 L118.584,68.335 L118.557,74.587 L92.056,74.587 C91.505,73.31 90.236,72.412 88.758,72.412 C86.777,72.412 85.165,74.023 85.165,76.004 C85.165,77.985 86.777,79.597 88.758,79.597 C90.235,79.597 91.505,78.699 92.056,77.422 L118.544,77.422 L118.519,83.158 L102.929,83.158 C102.378,81.881 101.108,80.983 99.63,80.983 C97.65,80.983 96.038,82.595 96.038,84.576 C96.038,86.557 97.65,88.168 99.63,88.168 C101.108,88.168 102.378,87.27 102.929,85.993 L118.506,85.993 L118.442,100.478 L104.007,100.475 L104.007,96.888 C104.134,96.833 104.258,96.774 104.379,96.704 C105.211,96.227 105.807,95.453 106.057,94.527 C106.308,93.6 106.182,92.632 105.705,91.799 C104.717,90.084 102.517,89.488 100.799,90.476 C99.967,90.953 99.371,91.727 99.121,92.654 C98.872,93.58 98.996,94.549 99.475,95.381 C99.867,96.062 100.463,96.573 101.173,96.877 L101.171,103.313 L104.006,103.313 L104.006,103.31 L118.43,103.313 L118.423,104.817 L112.147,108.388 L112.147,108.388 Z M78.101,111.41 C77.223,111.41 76.509,110.696 76.509,109.818 C76.509,108.94 77.223,108.225 78.101,108.225 C78.979,108.225 79.694,108.94 79.694,109.818 C79.694,110.696 78.979,111.41 78.101,111.41 L78.101,111.41 Z M17.143,44.943 C18.021,44.943 18.736,45.658 18.736,46.536 C18.736,47.413 18.021,48.128 17.143,48.128 C16.265,48.128 15.551,47.413 15.551,46.536 C15.551,45.658 16.265,44.943 17.143,44.943 L17.143,44.943 Z M25.589,44.819 C26.467,44.819 27.181,45.533 27.181,46.411 C27.181,47.289 26.467,48.003 25.589,48.003 C24.711,48.003 23.997,47.289 23.997,46.411 C23.997,45.533 24.711,44.819 25.589,44.819 L25.589,44.819 Z M62.797,0.233 L0,35.692 L0,107.666 L62.16,144 L124.957,108.269 L124.957,36.567 L62.797,0.233 L62.797,0.233 Z" id="Fill-1"></path>
            <path d="M90.857,86.901 C88.283,85.015 80.303,80.519 80.303,80.519 L80.303,73.048 L95.757,59.209 L112.11,59.193 L112.11,50.543 L51.182,50.543 L51.125,53.58 L12.847,53.537 L14.879,56.364 C16.91,59.191 20.486,63.351 29.168,67.535 C38.465,72.014 55.606,73.011 55.606,73.011 C55.606,73.011 55.751,80.518 55.642,80.518 C55.534,80.518 54.839,80.657 51.653,82.368 C46.213,85.288 41.861,89.657 41.861,89.657 L41.897,97.273 C41.897,97.273 57.057,97.397 59.458,97.302 C60.856,94.881 64.224,93.174 68.159,93.174 C71.901,93.174 75.131,94.717 76.642,96.95 C76.829,97.15 76.931,97.273 76.931,97.273 L94.665,97.273 L94.52,90.419 C94.52,90.419 93.433,88.787 90.857,86.901" id="Fill-4"></path>
        </g>
    </g>
</svg>